<?xml version="1.0" encoding="UTF-8"?>
<svg version="1.1" xmlns="http://www.w3.org/2000/svg" width="2000" height="2000">
<path d="M0 0 C0.8765625 0.77085937 1.753125 1.54171875 2.65625 2.3359375 C16.85641555 15.61867662 23.36682326 31.84460786 29.86572266 49.88525391 C30.88836128 52.69343805 31.95175169 55.47962617 33.04296875 58.26171875 C43.95295241 86.26089219 45.37424257 115.93305193 46.94366455 145.64916992 C47.13852887 149.29904767 47.34439573 152.94830429 47.54882812 156.59765625 C47.92823603 163.39535679 48.28267676 170.19413783 48.62882137 176.99360561 C48.86480401 181.57202476 49.12799265 186.1477964 49.41426659 190.72333241 C51.57795213 225.62622445 51.3557571 260.5770842 51.31765366 295.53136063 C51.31295304 299.85979433 51.31099146 304.18822435 51.30979842 308.51666027 C51.29665671 351.212622 51.10069878 393.88588307 49.6875 436.5625 C49.65786289 437.48028103 49.62822578 438.39806206 49.59769058 439.34365463 C48.94218118 459.55706919 47.90768362 479.73000331 46.515625 499.90625 C46.45501577 500.79140856 46.39440655 501.67656712 46.33196068 502.58854866 C44.89437858 523.33877563 42.89305192 544.11185409 39 564.5625 C38.85828369 565.32361084 38.71656738 566.08472168 38.57055664 566.86889648 C37.48802167 572.0561668 35.47648895 576.34076623 33 581 C32.34765558 582.48831171 31.71778749 583.9869805 31.125 585.5 C30.79628906 586.33402344 30.46757813 587.16804687 30.12890625 588.02734375 C29.26368904 590.30564928 28.41980578 592.58776691 27.58984375 594.87890625 C24.90168758 602.27351342 22.24741333 609.33482831 18 616 C17.66516602 616.53947266 17.33033203 617.07894531 16.98535156 617.63476562 C1.60320379 642.30449789 -20.70084938 658.32827727 -44.19482422 674.73242188 C-45.69177223 675.78356524 -47.17748213 676.85069193 -48.66015625 677.921875 C-62.24562335 687.70900396 -76.45397338 695.79553198 -92 702 C-92.81887695 702.3309668 -93.63775391 702.66193359 -94.48144531 703.00292969 C-148.19164153 724.43368763 -241.14686183 739.0976793 -297.734375 716.27734375 C-301.02570502 714.75764227 -304.1300938 712.99670956 -307.2109375 711.08984375 C-309.04738807 709.97113259 -310.91454116 708.94795177 -312.8125 707.9375 C-327.8219291 699.89419642 -342.81484188 690.97506918 -355 679 C-356.22328025 677.85715368 -357.45015783 676.71815143 -358.6796875 675.58203125 C-370.94871144 664.23733461 -382.21062518 653.32652673 -390.59130859 638.70507812 C-392.69120665 635.06459604 -394.95048385 631.64670908 -397.41796875 628.2421875 C-401.14893697 622.96493967 -404.00168448 617.4635245 -406.75 611.625 C-407.25950195 610.55064697 -407.76900391 609.47629395 -408.29394531 608.36938477 C-414.14765055 595.82224418 -419.21151629 582.98613889 -424 570 C-424.36577148 569.01273926 -424.73154297 568.02547852 -425.10839844 567.00830078 C-444.30255629 514.44514455 -450.72845105 461.63951047 -440.47265625 406.41015625 C-439.45226654 400.8632257 -438.65986998 395.34948783 -438.06030273 389.74194336 C-433.86681607 350.99755787 -424.39296346 309.98512482 -405 276 C-404.57299805 275.24895996 -404.14599609 274.49791992 -403.70605469 273.72412109 C-401.57728998 270.0229534 -399.35844531 266.38748079 -397.09033203 262.77050781 C-395.50073281 260.18927773 -393.9943485 257.56181034 -392.47900391 254.93652344 C-384.42826085 241.02284354 -375.8419878 227.37587656 -366.02734375 214.6328125 C-364.04726726 212.06138369 -362.14260271 209.44876572 -360.25 206.8125 C-350.60805423 193.5237985 -340.4222821 180.68131611 -330 168 C-328.39548709 166.04195034 -326.79128134 164.08364891 -325.1875 162.125 C-324.47207031 161.25488281 -323.75664063 160.38476562 -323.01953125 159.48828125 C-321.7275317 157.89639786 -320.45227213 156.29068647 -319.19921875 154.66796875 C-307.25674943 139.24760686 -292.86532309 125.67692128 -279.10107422 111.91577148 C-276.71076419 109.52556398 -274.32747767 107.12847845 -271.94577408 104.72969913 C-269.61945149 102.38945617 -267.2858263 100.05654088 -264.953125 97.72265625 C-264.11638245 96.87872818 -263.27963989 96.03480011 -262.4175415 95.16529846 C-257.3596077 90.12653729 -252.11307276 85.51006301 -246.51409912 81.07859802 C-243.15330407 78.29997172 -240.15054018 75.23232252 -237.10546875 72.1171875 C-233.89317282 68.88701238 -230.48333488 65.93233463 -227 63 C-226.16726563 62.28972656 -225.33453125 61.57945312 -224.4765625 60.84765625 C-217.95256757 55.37983815 -211.13779937 50.62436375 -204 46 C-203.32517578 45.53972412 -202.65035156 45.07944824 -201.95507812 44.60522461 C-196.70936738 41.03560747 -191.3488013 37.91541726 -185.75 34.9375 C-178.47949576 31.01327007 -171.42393914 26.84619743 -164.4375 22.4375 C-154.87501056 16.43707324 -145.16096938 10.92516637 -135 6 C-134.33709961 5.67837891 -133.67419922 5.35675781 -132.99121094 5.02539062 C-113.77904066 -4.06236314 -92.03469854 -9.37631717 -71 -12 C-70.08992188 -12.12890625 -69.17984375 -12.2578125 -68.2421875 -12.390625 C-45.55970019 -15.09261408 -17.8673865 -15.90197398 0 0 Z " fill="#FDFDFE" transform="translate(898,149)"/>
<path d="M0 0 C0.94302979 0.00563965 1.88605957 0.0112793 2.85766602 0.01708984 C22.14907937 0.33779312 40.40970921 3.92341246 58.875 9.3125 C60.01171143 9.63371826 60.01171143 9.63371826 61.17138672 9.96142578 C81.48820986 15.71252102 100.16601463 25.26074972 117.92138672 36.5769043 C124.44512285 40.72318323 131.16256915 44.48272644 137.92138672 48.22900391 C141.142154 50.01527798 144.35534434 51.81441252 147.5625 53.625 C148.65949219 54.23988281 149.75648438 54.85476562 150.88671875 55.48828125 C153.77040475 57.24864904 156.26227731 59.17702387 158.875 61.3125 C160.50789491 62.4668909 162.14121915 63.62075159 163.78369141 64.76147461 C170.60555648 69.51131286 176.8208518 74.60266355 182.875 80.3125 C184.76784546 82.06573133 186.66385826 83.81554735 188.5625 85.5625 C189.03926178 86.00297668 189.51602356 86.44345337 190.00723267 86.89727783 C193.10331157 89.74143752 196.26013368 92.48355604 199.4901123 95.17622375 C211.40972034 105.20714808 222.23976841 116.41405151 233.21148682 127.45336914 C235.44081304 129.69357412 237.67576958 131.92811832 239.9108429 134.16258717 C242.08860266 136.34062037 244.26373612 138.52126066 246.4380188 140.70276451 C247.46434465 141.73223478 248.49124399 142.76113367 249.51876831 143.78940773 C257.67252959 151.95566684 265.24606571 160.45655683 272.5625 169.375 C273.46923462 170.47908203 273.46923462 170.47908203 274.39428711 171.60546875 C284.28135886 183.66735951 293.91068883 195.89846732 303.34960938 208.31396484 C304.78226878 210.19100548 306.22421866 212.06029277 307.671875 213.92578125 C312.59391093 220.26849782 317.32447872 226.69849652 321.875 233.3125 C322.99995393 234.89586607 324.12495498 236.47919866 325.25 238.0625 C331.57466314 247.11986837 337.44532652 256.4649779 343.125 265.9375 C343.72501831 266.92085327 343.72501831 266.92085327 344.3371582 267.92407227 C347.81792431 273.80178607 350.32424881 279.98749839 352.875 286.3125 C353.73194578 288.3564889 354.59134135 290.39945237 355.453125 292.44140625 C362.01609905 308.17671491 367.72385228 324.06345762 372.875 340.3125 C373.25760986 341.49610107 373.64021973 342.67970215 374.03442383 343.89916992 C377.67583015 355.24712784 380.76494355 366.73056852 383.8125 378.25 C384.07512634 379.23885193 384.33775269 380.22770386 384.6083374 381.246521 C387.67153635 392.78560474 390.70687054 404.3295583 393.5 415.9375 C393.72292725 416.86296631 393.94585449 417.78843262 394.17553711 418.74194336 C394.76770351 421.26071242 395.33194316 423.78271049 395.875 426.3125 C396.06642578 427.20308105 396.25785156 428.09366211 396.45507812 429.01123047 C397.74137642 435.45749392 398.1907929 441.62170632 398.125 448.1875 C398.11750732 449.21069336 398.11001465 450.23388672 398.10229492 451.28808594 C397.8122905 472.86182291 395.76199431 493.80442361 391.53955078 514.96191406 C390.89584521 518.20740094 390.28540309 521.4574528 389.68359375 524.7109375 C388.5161344 530.93463315 387.23488323 537.12810644 385.875 543.3125 C385.65183105 544.33456543 385.42866211 545.35663086 385.19873047 546.40966797 C380.96950304 565.17521151 373.78068275 582.17525243 365.70166016 599.53277588 C364.47818524 602.16680609 363.27248564 604.80897029 362.0625 607.44921875 C355.74558896 621.08915688 348.70444416 634.21075939 340.48046875 646.80078125 C338.89486682 649.28141882 337.44969482 651.81321053 336 654.375 C333.18038651 659.12979059 329.73781432 663.0397892 325.96875 667.06640625 C324.32248966 668.83245046 322.80090246 670.60429821 321.3125 672.5 C319.33825747 674.77797215 317.46650134 676.59594701 315.19140625 678.5390625 C312.44630379 680.91612042 309.76824207 683.33288302 307.15625 685.85546875 C298.80027094 693.92319722 290.17959704 701.164636 280.75708008 707.9519043 C275.53157551 711.72953265 270.51019572 715.58901127 265.6875 719.875 C252.97798622 730.30870553 234.68085429 733.58593038 218.6875 735 C216.77553833 735.18042847 216.77553833 735.18042847 214.82495117 735.36450195 C211.17630507 735.69968305 207.52665423 736.01207422 203.875 736.3125 C202.57369141 736.42271484 202.57369141 736.42271484 201.24609375 736.53515625 C148.20459533 740.81122902 93.43434449 735.20326316 43.875 715.3125 C43.11638672 715.01827148 42.35777344 714.72404297 41.57617188 714.42089844 C23.87593071 707.5045487 7.44645606 697.02990941 -7.48828125 685.34375 C-10.41795818 683.0868137 -13.44004883 681.014026 -16.5 678.9375 C-45.12006956 659.2633444 -67.97112077 635.28740043 -78.04785156 601.42651367 C-79.09535031 597.98467631 -80.02242291 595.45909639 -82.109375 592.4765625 C-86.90714497 584.94517941 -87.81846458 575.32337926 -89.125 566.625 C-89.29306152 565.51415039 -89.46112305 564.40330078 -89.63427734 563.25878906 C-102.47396236 474.95394681 -99.78921887 383.62401638 -96.8125 182.5625 C-96.75901398 181.58293209 -96.70552795 180.60336418 -96.65042114 179.5941124 C-95.61516458 160.85274874 -94.29658118 142.1399524 -92.5703125 123.44921875 C-92.45286179 122.17632996 -92.33541107 120.90344116 -92.21440125 119.59197998 C-90.68128608 103.79553635 -87.96071302 88.85188285 -82.18261719 74.05371094 C-81.12828466 71.32101343 -80.10841358 68.57667782 -79.09466553 65.82870483 C-78.08163243 63.09076966 -77.0546535 60.35818162 -76.02514648 57.62640381 C-75.51779778 56.27553796 -75.01422669 54.92324582 -74.51489258 53.56939697 C-69.3460971 39.60536864 -62.61117537 28.08362579 -52.125 17.3125 C-51.5165625 16.65378906 -50.908125 15.99507812 -50.28125 15.31640625 C-44.30979727 9.00566643 -35.99654147 2.66168904 -26.97265625 2.203125 C-25.51119483 2.23394668 -24.04996837 2.28085234 -22.58959961 2.34521484 C-20.0622542 2.31166712 -17.92550639 1.91170818 -15.46875 1.3359375 C-10.26545408 0.24980333 -5.30530542 -0.03428149 0 0 Z " fill="#FDFCFD" transform="translate(1147.125,135.6875)"/>
<path d="M0 0 C2.05535373 2.08405979 3.90303487 4.1218047 5.75 6.375 C6.27295654 6.99914795 6.79591309 7.6232959 7.3347168 8.26635742 C11.38731135 13.14568374 15.2292097 18.16070331 18.98828125 23.26953125 C20.78809747 25.71238861 22.62720983 28.1129425 24.5 30.5 C25.06203125 31.22445313 25.6240625 31.94890625 26.203125 32.6953125 C27.47298641 34.32404778 28.75551131 35.94294732 30.046875 37.5546875 C48.40890785 61.06069409 56.96424514 86.80732028 63.75 115.4375 C64.04382568 116.66847412 64.33765137 117.89944824 64.64038086 119.16772461 C65.47541383 122.76993654 66.25219069 126.37873842 67 130 C67.22494141 131.02625488 67.44988281 132.05250977 67.68164062 133.10986328 C69.92759933 145.32179425 68.7026019 157.68250447 68 170 C67.92457285 171.36408113 67.84940375 172.72817655 67.7744751 174.09228516 C67.168312 185.06449745 66.49700802 196.03243496 65.8125 207 C65.75860863 207.86692348 65.70471725 208.73384697 65.64919281 209.62704086 C62.19779427 265.14205579 58.27826794 320.60941919 53.1875 376 C53.1106321 376.83993626 53.03376419 377.67987251 52.95456696 378.54526138 C52.51708556 383.32375677 52.07464503 388.10173939 51.6236248 392.87897682 C51.48770467 394.32208907 51.35297487 395.76531398 51.21949959 397.2086544 C51.03730577 399.17203125 50.84926568 401.13486301 50.66088867 403.09765625 C50.55685226 404.19601807 50.45281586 405.29437988 50.34562683 406.42602539 C50 409 50 409 49 411 C54.6789974 408.75848844 59.67366051 405.90853205 64.8125 402.625 C65.63637207 402.10115723 66.46024414 401.57731445 67.30908203 401.03759766 C82.15274711 391.4954436 96.92188977 381.03677621 110.1875 369.375 C113 367 113 367 115 367 C115.24621094 366.46761719 115.49242187 365.93523437 115.74609375 365.38671875 C116.98347217 363.03145952 118.39645581 360.85530317 119.86621094 358.64038086 C132.46629598 339.38796521 142.3252182 318.08061396 151.875 297.1875 C152.1678186 296.55431854 152.46063721 295.92113708 152.7623291 295.26876831 C157.23995863 285.54694645 160.38644596 276.12847072 161.75 265.5 C162.96609968 258.29775449 166.83047268 251.16952732 172 246 C173.98828125 245.6640625 173.98828125 245.6640625 176.3125 245.625 C177.07175781 245.59664062 177.83101562 245.56828125 178.61328125 245.5390625 C181.94960641 246.18339371 183.4957203 247.72039622 186 250 C187.81762695 252.7421875 187.81762695 252.7421875 189.48828125 255.875 C190.11283203 257.02613281 190.73738281 258.17726563 191.38085938 259.36328125 C192.02555772 260.57508593 192.66943573 261.78732738 193.3125 263 C198.79817389 273.27206887 204.78345134 283.0042237 211.4765625 292.5390625 C225.44266457 312.59946366 242.45453239 339.32014074 243.5 364.4375 C243.66327392 368.35199222 243.92495486 371.73646256 245 375.51171875 C246.72017148 381.97096265 246.48615602 388.73399351 246.5 395.375 C246.5023465 396.08798248 246.50469299 396.80096497 246.5071106 397.53555298 C246.49112982 409.26494972 245.15241022 419.36221043 240 430 C239.20529297 431.73636719 239.20529297 431.73636719 238.39453125 433.5078125 C228.81114891 452.76563069 212.50854501 467.92117624 196.875 482.26464844 C195.18788103 483.82611219 193.52656301 485.40893607 191.875 487.0078125 C185.86827745 492.73705059 179.68070962 497.43425512 172.77905273 502.01660156 C168.91036571 504.60652531 165.4370776 507.26914377 162.0625 510.5 C155.41930064 516.70470436 147.72042043 521.26647226 140 526 C139.08798828 526.55961426 138.17597656 527.11922852 137.23632812 527.69580078 C116.435538 540.40467843 95.28791207 552.54933216 73.87719727 564.20019531 C68.71861042 567.01774528 63.6614754 569.97073793 58.625 573 C49.51580913 578.45120349 40.03224755 583.10485159 30.50244141 587.76855469 C28.38235886 588.81184214 26.27206089 589.87027864 24.16796875 590.9453125 C14.68839881 595.77393578 5.06865327 600.29622534 -4.5625 604.8125 C-5.27162537 605.14527954 -5.98075073 605.47805908 -6.71136475 605.82092285 C-8.76647053 606.784553 -10.82248405 607.74621399 -12.87890625 608.70703125 C-13.49195114 608.99425552 -14.10499603 609.2814798 -14.73661804 609.57740784 C-26.54555517 615.08139466 -26.54555517 615.08139466 -30.96484375 615.953125 C-35.2002411 616.94297983 -38.74423446 618.70845575 -42.5625 620.75 C-59.86252498 629.63043904 -78.19735145 635.09136736 -96.85546875 640.38671875 C-108.0115848 643.58088333 -118.86011381 647.44571027 -129.75 651.4375 C-142.74047804 656.19550758 -155.72786625 660.55920425 -169.08447266 664.1953125 C-172.28809926 665.07951559 -175.47786297 666.00573416 -178.66796875 666.9375 C-180.90354566 667.58367999 -183.13922036 668.2295218 -185.375 668.875 C-186.39166748 669.17390137 -187.40833496 669.47280273 -188.45581055 669.78076172 C-204.49000013 674.33839331 -204.49000013 674.33839331 -211 671.6875 C-214 670 -214 670 -216 668 C-217.40824067 660.2917353 -215.00242964 654.46136913 -211 648 C-210.5771875 647.31035156 -210.154375 646.62070313 -209.71875 645.91015625 C-206.9460089 641.83970784 -203.81857477 638.95673959 -199.9375 635.9375 C-192.6244755 630.17662764 -186.90793269 623.15222366 -181 616 C-180.20722656 615.04867187 -179.41445312 614.09734375 -178.59765625 613.1171875 C-177.15377293 611.36781711 -175.72018428 609.6099002 -174.296875 607.84375 C-172.61669868 605.7635317 -170.9201335 603.70550778 -169.203125 601.65625 C-155.57444627 585.23841516 -145.52737974 567.01995338 -136 548 C-135.51611816 547.0507666 -135.03223633 546.1015332 -134.53369141 545.12353516 C-117.73053134 512.088059 -109.00145186 475.22546713 -104.33447266 438.54394531 C-104.01451552 436.11040268 -103.62563359 433.6956801 -103.23046875 431.2734375 C-101.40224634 418.18561781 -106.87941495 410.0779418 -114.2890625 399.8359375 C-124.35825895 386.92032509 -134.94564683 379.48773003 -150.875 375.8125 C-151.88691406 375.56564453 -152.89882812 375.31878906 -153.94140625 375.06445312 C-156.95424804 374.34113964 -159.9725945 373.65953836 -163 373 C-164.39653809 372.69328369 -164.39653809 372.69328369 -165.82128906 372.38037109 C-178.69346763 369.77621276 -191.00159572 371.52026841 -203.875 373.1875 C-204.7611499 373.30114899 -205.6472998 373.41479797 -206.56030273 373.53189087 C-256.41282402 379.95257958 -303.48143384 392.43611602 -350.25 410.75 C-351.03038635 411.05424896 -351.81077271 411.35849792 -352.61480713 411.67196655 C-381.48740047 422.98414732 -406.74467305 438.46365901 -430 459 C-430.84433594 459.74507812 -431.68867187 460.49015625 -432.55859375 461.2578125 C-435.0558666 463.4873777 -437.52959681 465.74071072 -440 468 C-441.08710345 468.98192157 -442.17435132 469.96368327 -443.26171875 470.9453125 C-448.62372605 475.81080927 -453.80470412 480.64478201 -458.4609375 486.20703125 C-460.05992032 488.06980565 -461.74714718 489.78189537 -463.5 491.5 C-465.85708547 493.81269069 -468.07394926 496.18776039 -470.2265625 498.69140625 C-474.00727258 503.03892295 -477.91930262 507.24931071 -481.875 511.4375 C-482.57681396 512.18249756 -483.27862793 512.92749512 -484.00170898 513.69506836 C-487.63535822 517.5404599 -491.29845517 521.34380511 -495.0625 525.0625 C-498.19044878 528.15517116 -501.15068145 531.32758335 -504.0078125 534.671875 C-505.54761986 536.47133615 -507.10506002 538.2470455 -508.6796875 540.015625 C-511.86412153 543.61404599 -514.94214308 547.29384743 -518 551 C-518.77730469 551.92135742 -518.77730469 551.92135742 -519.5703125 552.86132812 C-540.88075273 578.53558965 -545.07555094 616.96161978 -547.484375 649.22265625 C-547.56212158 650.22474121 -547.63986816 651.22682617 -547.7199707 652.25927734 C-547.86103044 654.15812186 -547.98558763 656.05829256 -548.09057617 657.95947266 C-548.46618403 663.15513582 -549.04056393 666.25093245 -553 670 C-559.27235398 673.13617699 -567.92792421 670.63351574 -574.3515625 668.89453125 C-575.20972565 668.6703804 -576.06788879 668.44622955 -576.95205688 668.21528625 C-586.51944109 665.67213127 -595.96396725 662.75364769 -605.375 659.6875 C-606.74931686 659.24221451 -606.74931686 659.24221451 -608.15139771 658.78793335 C-625.7273896 653.06031256 -642.64882418 646.14280709 -659.58148193 638.75769043 C-666.40131712 635.79523663 -673.30587399 633.09625992 -680.25 630.4375 C-692.04964657 625.88758521 -703.59407713 620.84926753 -715.13745117 615.69384766 C-724.07868591 611.70454821 -733.06402071 607.85408312 -742.11373901 604.11776733 C-766.35072263 594.10255699 -789.81417662 582.56842028 -812.60522461 569.59594727 C-817.54815681 566.78984448 -822.54085888 564.08555309 -827.55029297 561.40014648 C-850.15129666 549.27054636 -872.2075759 536.21700237 -893.14453125 521.3671875 C-897.45163135 518.33381537 -901.86697873 515.61410997 -906.4375 513 C-907.92123408 512.13524801 -909.40430785 511.26936207 -910.88671875 510.40234375 C-911.94705322 509.78335205 -911.94705322 509.78335205 -913.02880859 509.15185547 C-927.90039093 500.46172351 -942.76527863 490.58797595 -948.3671875 473.546875 C-949.18966511 470.23665648 -949.28842926 468.18317817 -948 465 C-945.41462749 461.93837466 -943.81557502 460.27185834 -940 459 C-938.4453894 458.9273447 -936.88770838 458.91305505 -935.33154297 458.93408203 C-933.89276794 458.94850845 -933.89276794 458.94850845 -932.42492676 458.96322632 C-931.3746228 458.97793976 -930.32431885 458.9926532 -929.2421875 459.0078125 C-926.94971657 459.02812516 -924.65723513 459.04727596 -922.36474609 459.06542969 C-921.14615906 459.07586304 -919.92757202 459.08629639 -918.67205811 459.0970459 C-876.38328717 459.40837761 -834.19069423 457.50565456 -792.17431641 452.59326172 C-787.40889095 452.03982088 -782.639127 451.53346165 -777.86799622 451.03190613 C-749.22786178 448.01391638 -720.95878433 444.00830719 -692.68731689 438.52075195 C-689.97839669 437.99581368 -687.26840332 437.47675884 -684.55810547 436.95898438 C-642.10551721 428.82917077 -601.35072057 418.46667782 -562.88525391 398.00244141 C-561.6023513 397.32028677 -560.31537312 396.64575425 -559.02490234 395.97802734 C-547.47622541 389.98992664 -536.72250555 382.93913274 -525.95629883 375.67089844 C-519.67625568 371.43369362 -513.37111015 367.27674932 -506.875 363.375 C-490.20001281 353.34387685 -473.78594534 342.88684479 -458.02587891 331.46533203 C-455.92386794 329.94493316 -453.81247171 328.43832085 -451.69921875 326.93359375 C-442.63297021 320.45827401 -433.73060304 313.78935224 -424.88769531 307.01269531 C-419.13738044 302.61093358 -413.34283214 298.27806069 -407.5 294 C-400.77494119 289.07447611 -394.11946776 284.06651345 -387.5 279 C-380.88052785 273.9334832 -374.22492873 268.92570609 -367.5 264 C-358.83401736 257.65163207 -350.28748434 251.15373759 -341.75390625 244.62890625 C-338.01808114 241.77296144 -334.26728115 238.93929304 -330.5 236.125 C-320.48347808 228.63041888 -310.64617924 220.9679697 -301 213 C-299.20866138 211.54126373 -297.41699095 210.08293484 -295.625 208.625 C-292.15516191 205.79006845 -288.72045626 202.92000696 -285.3125 200.01147461 C-279.18597966 194.78423467 -272.93694113 189.75098093 -266.58203125 184.8046875 C-264.18535382 182.9367562 -261.80941491 181.04662514 -259.44921875 179.1328125 C-251.87276402 172.99148652 -244.14840984 167.1131809 -236.2722168 161.36108398 C-228.38275436 155.58479948 -220.67956416 149.58241206 -212.98388672 143.55175781 C-208.01625317 139.66617095 -203.00783724 135.8335413 -198 132 C-197.24380371 131.42024414 -196.48760742 130.84048828 -195.70849609 130.24316406 C-186.26666363 123.00791669 -176.79700216 115.82390672 -167.1875 108.8125 C-159.14569544 102.93323252 -151.38226163 96.76734027 -143.71044922 90.41503906 C-141.33767434 88.45206401 -138.94956951 86.50805139 -136.5625 84.5625 C-132.69968247 81.39938445 -128.84601427 78.22530023 -124.99438477 75.04858398 C-122.05346948 72.62431153 -119.10957131 70.20367453 -116.16552734 67.78320312 C-114.11370048 66.09362664 -112.06646806 64.39861913 -110.01953125 62.703125 C-96.26857576 51.3631968 -81.81455873 41.0124707 -67.34814453 30.61328125 C-63.00488738 27.48100499 -58.72861267 24.28538829 -54.5 21 C-15.7857594 -8.98022941 -15.7857594 -8.98022941 0 0 Z M-62.625 147.9375 C-63.35227295 148.2866748 -64.0795459 148.63584961 -64.82885742 148.99560547 C-73.17030041 153.24679528 -80.32555726 159.04847495 -87.64453125 164.828125 C-92.79222185 168.88621327 -98.10304947 172.65772837 -103.5 176.375 C-115.27470774 184.52855849 -126.45423481 193.21630412 -137.31445312 202.55273438 C-139.06486771 204.05569754 -140.82093609 205.55183967 -142.578125 207.046875 C-149.48125937 212.9275992 -156.31765978 218.86808375 -163 225 C-163.58458984 225.53415527 -164.16917969 226.06831055 -164.77148438 226.61865234 C-174.57884813 235.49107119 -174.57884813 235.49107119 -183.47265625 245.25390625 C-185 247 -185 247 -186.87109375 248.58984375 C-195.12493938 255.68525491 -200.94398614 267.11842625 -202.58984375 277.84375 C-202.4141789 284.38153756 -200.73052058 288.80329048 -196.01171875 293.359375 C-187.19225639 300.55194624 -176.42533175 304.99591841 -164.96386719 305.20874023 C-163.98383728 305.22803085 -163.00380737 305.24732147 -161.99407959 305.26719666 C-157.44678194 305.32607462 -152.89963194 305.3744069 -148.35205078 305.4050293 C-145.98634009 305.42635501 -143.6207025 305.46014275 -141.25537109 305.50756836 C-116.26734918 306.00267724 -79.37412034 302.3482199 -59.94921875 284.0703125 C-50.06135856 272.61703957 -41.09800698 256.79584551 -38.140625 241.9609375 C-37.98635544 241.20623672 -37.83208588 240.45153595 -37.67314148 239.67396545 C-37.18477977 237.24347318 -36.71409284 234.81023825 -36.25 232.375 C-36.09081085 231.54364532 -35.9316217 230.71229065 -35.76760864 229.85574341 C-33.49953521 217.80337936 -32.12678632 206.56688492 -33.71191406 194.31982422 C-34.01323382 191.89343407 -34.21524203 189.47317478 -34.3984375 187.03515625 C-34.7936372 182.00330414 -35.35535954 177.00560966 -36 172 C-36.11682129 171.06430176 -36.23364258 170.12860352 -36.35400391 169.16455078 C-36.73368115 166.28874893 -37.16985657 163.42724095 -37.625 160.5625 C-37.74077393 159.68013672 -37.85654785 158.79777344 -37.97583008 157.88867188 C-38.58945389 154.37443634 -39.10387547 151.88652505 -41.68652344 149.33154297 C-48.80218236 144.52770088 -54.93228531 144.17193878 -62.625 147.9375 Z " fill="#FDFDFE" transform="translate(1371,1194)"/>
<path d="M0 0 C1.78470703 0.70576172 1.78470703 0.70576172 3.60546875 1.42578125 C6.42318542 2.57929517 9.21542198 3.76888252 12 5 C12.67699951 5.2693335 13.35399902 5.53866699 14.05151367 5.81616211 C19.7852723 8.17964475 24.22792931 11.18181967 28.9375 15.1875 C29.6291626 15.76483887 30.3208252 16.34217773 31.03344727 16.93701172 C33.03210534 18.6134862 35.01704385 20.30500991 37 22 C37.969375 22.81339844 38.93875 23.62679687 39.9375 24.46484375 C45.14041726 28.96048945 49.34628132 33.81427468 53.609375 39.1953125 C56.53610603 42.62896099 59.75775496 45.59150774 63.12744141 48.58447266 C67.4992872 52.48324045 71.63362663 56.5835578 75.75 60.75 C81.24767652 66.32457408 81.24767652 66.32457408 87.0625 71.5625 C90.92115499 74.8288176 94.48431393 78.37054108 98.0625 81.9375 C98.6407251 82.51121338 99.2189502 83.08492676 99.81469727 83.67602539 C102.71639387 86.58760431 105.50278398 89.54865032 108.17578125 92.671875 C112.71077234 97.91263238 117.60911595 102.79516377 122.50732422 107.69262695 C124.13409136 109.32160371 125.75265494 110.95845662 127.37109375 112.59570312 C128.41617723 113.64371746 129.4617335 114.69126059 130.5078125 115.73828125 C130.9850174 116.22267166 131.46222229 116.70706207 131.95388794 117.20613098 C134.77112715 120.00442572 137.60829199 121.97509969 141 124 C142.46289062 125.6472168 142.46289062 125.6472168 143.65625 127.44921875 C144.11467285 128.12436523 144.5730957 128.79951172 145.04541016 129.49511719 C145.5254248 130.21860352 146.00543945 130.94208984 146.5 131.6875 C151.14029243 138.4758339 156.04480549 144.91713597 161.28100586 151.25415039 C164.63404508 155.31367443 167.88895512 159.42398386 171.0625 163.625 C175.53618887 169.49308541 180.2876245 175.0759973 185.1171875 180.65234375 C189.91975058 186.20461387 194.51233668 191.9291482 199.1328125 197.6328125 C202.31378372 201.54346888 205.49962081 205.44225222 208.8125 209.2421875 C214.69620455 215.99353512 220.23999441 222.87678005 225.55419922 230.08618164 C230.8328955 237.20921031 236.52156454 243.96687821 242.4152832 250.59057617 C245.96574377 254.66428892 245.96574377 254.66428892 246.3125 258.0625 C243.12494083 265.196561 232.91169018 267.95858613 226.125 270.8125 C210.05408687 277.65288158 194.19775844 284.74027495 178.59594727 292.59912109 C176.06950453 293.87147242 173.53991876 295.13738952 171.00976562 296.40234375 C161.78883717 301.02334752 152.61942709 305.72926766 143.52589417 310.59689331 C138.43369239 313.30693634 133.2623436 315.76411849 128 318.125 C119.80835124 321.88614011 112.09406944 326.36405159 104.375 331 C103.2080611 331.69938905 102.04106931 332.39868986 100.87402344 333.09790039 C99.17681152 334.11484985 99.17681152 334.11484985 97.4453125 335.15234375 C92.08536702 338.36091692 86.71929046 341.54342192 81.25 344.5625 C80.60208496 344.93826172 79.95416992 345.31402344 79.28662109 345.70117188 C74.85235815 348.09602814 71.84552337 348.34764247 67 347 C61.9392216 339.6705968 61.70093447 331.42760344 61.65625 322.84375 C61.6416272 321.78265015 61.62700439 320.72155029 61.61193848 319.6282959 C61.54999205 315.11185371 61.51016028 310.59527866 61.46826172 306.07861328 C61.43440857 302.77101749 61.38932932 299.46370167 61.34375 296.15625 C61.3384729 295.14252319 61.3331958 294.12879639 61.32775879 293.08435059 C61.25221125 287.68962125 60.7457853 283.16015455 59 278 C58.4988218 276.065778 58.00518445 274.1295846 57.51953125 272.19140625 C54.29643919 259.58496511 50.86517218 247.63530686 45 236 C44.2265625 234.45119141 44.2265625 234.45119141 43.4375 232.87109375 C42.03725345 230.19093433 40.55170369 227.59465207 39 225 C38.41605469 223.90945313 38.41605469 223.90945313 37.8203125 222.796875 C32.1984955 213.64832807 20.03391878 210.2338987 10.125 207.6875 C-33.34905709 197.51026003 -71.07096802 208.61516765 -108.75 230.6875 C-109.64251465 231.20973145 -110.5350293 231.73196289 -111.45458984 232.27001953 C-123.70941248 239.61737317 -133.80578436 249.08535647 -144 259 C-144.58313965 259.56025879 -145.1662793 260.12051758 -145.76708984 260.69775391 C-158.60729975 273.16578382 -164.56636786 288.11412747 -170.25244141 304.84423828 C-170.90024458 306.7123317 -171.60707023 308.55975862 -172.32421875 310.40234375 C-177.46476182 324.99427126 -177.71764544 346.76139452 -172.12158203 361.27880859 C-171.12823412 363.29785946 -170.04980843 365.20635298 -168.875 367.125 C-168.47611572 367.80022705 -168.07723145 368.4754541 -167.66625977 369.17114258 C-159.58373075 382.57158828 -151.80577302 389.59603647 -136.68823242 393.61450195 C-97.97846738 402.89191366 -52.40217059 394.18868351 -15 383 C-14.19868652 382.76104004 -13.39737305 382.52208008 -12.57177734 382.27587891 C-6.6197627 380.47098866 -0.93999478 378.51772082 4.58203125 375.62109375 C10.56636233 372.577679 16.77435521 370.62430648 23.1875 368.6875 C24.32380859 368.32849609 25.46011719 367.96949219 26.63085938 367.59960938 C39.56102902 363.64139418 39.56102902 363.64139418 45.21484375 365.875 C46.80989583 366.91666667 48.40494792 367.95833333 50 369 C50.16592851 370.78834062 50.28012896 372.58148559 50.375 374.375 C50.44460938 375.37273437 50.51421875 376.37046875 50.5859375 377.3984375 C49.13133726 386.33938034 41.99794442 393.89947953 36.5625 400.875 C35.14504034 402.71293036 33.72839424 404.55148841 32.3125 406.390625 C31.59707031 407.31810547 30.88164063 408.24558594 30.14453125 409.20117188 C26.74063957 413.64359152 23.40516553 418.1364602 20.0625 422.625 C12.56355878 432.65157662 4.80677286 442.24858321 -3.68359375 451.46484375 C-5.56729323 453.52643053 -7.38636708 455.61720066 -9.1875 457.75 C-13.3333804 462.53903607 -17.88718523 466.93769541 -22.40698242 471.37011719 C-25.4118944 474.33393034 -28.31358338 477.31811539 -31.046875 480.53515625 C-36.30117218 486.62335172 -42.05747754 492.24347443 -47.74121094 497.92651367 C-49.73663414 499.92411952 -51.72391056 501.92959353 -53.7109375 503.93554688 C-60.14718188 510.39916225 -66.60654717 516.54166372 -73.76611328 522.20483398 C-76.41833849 524.33617955 -78.72954343 526.5900021 -81.0625 529.0625 C-82.33758913 530.41137368 -83.64056661 531.73617511 -85 533 C-85.66 533 -86.32 533 -87 533 C-87.21527344 533.52851562 -87.43054688 534.05703125 -87.65234375 534.6015625 C-92.25195303 542.7875338 -101.37057707 552.18699917 -110 556 C-115.36810133 556.84759495 -120.35246647 555.80677746 -125 553 C-129.07827187 548.04511105 -131.42459517 541.99823619 -133.6875 536.0625 C-134.02217285 535.21131592 -134.3568457 534.36013184 -134.70166016 533.4831543 C-136.21467493 529.6328188 -137.70514856 525.77436719 -139.17724609 521.90820312 C-147.59031261 499.83112103 -155.60025599 483.25502535 -174 468 C-174.96035156 467.19820312 -175.92070313 466.39640625 -176.91015625 465.5703125 C-193.92228431 452.38142287 -222.18903532 440.30843415 -244 443 C-263.01396201 446.17231895 -280.41424598 454.41203856 -297 464 C-297.67659668 464.37898438 -298.35319336 464.75796875 -299.05029297 465.1484375 C-312.0246101 472.55345834 -319.67628199 482.80757934 -328 495 C-329.00854738 496.4414139 -330.01884927 497.88160245 -331.03125 499.3203125 C-333.73349052 503.18312171 -336.37450976 507.08475939 -339 511 C-339.40492676 511.60054199 -339.80985352 512.20108398 -340.22705078 512.81982422 C-347.62226138 523.78923793 -354.83253934 534.88083187 -362 546 C-362.50289551 546.77859375 -363.00579102 547.5571875 -363.52392578 548.359375 C-376.14315146 567.94394696 -387.79012727 588.10684184 -398.73828125 608.66992188 C-399.82985415 610.68578328 -400.96131738 612.66595894 -402.125 614.640625 C-411.00896993 630.49391616 -413.75235399 650.04158069 -410.875 667.875 C-410.74520752 668.67945557 -410.61541504 669.48391113 -410.48168945 670.31274414 C-406.98519532 690.45309516 -399.01798719 706.85725848 -388.58178711 724.26123047 C-380.2317145 738.18909742 -380.2317145 738.18909742 -381 746 C-383.27630633 749.17924117 -385.91902786 749.75356986 -389.625 750.625 C-391.09839844 750.98464844 -391.09839844 750.98464844 -392.6015625 751.3515625 C-401.99474777 753.14382544 -411.53361677 753.40294531 -421.0625 753.875 C-424.4596949 754.04701476 -427.85679778 754.22081921 -431.25390625 754.39453125 C-432.16761993 754.44099289 -433.08133362 754.48745453 -434.0227356 754.5353241 C-441.65033728 754.92517713 -449.2764042 755.34071875 -456.90234375 755.76171875 C-485.48938786 757.33732843 -514.02608423 758.78870951 -542.65625 759.20703125 C-546.5272953 759.26407043 -550.39833894 759.32121481 -554.26937866 759.37863159 C-556.91848019 759.41780849 -559.56758914 759.45648619 -562.21670532 759.49465942 C-579.6622949 759.75181578 -597.06212189 760.25716785 -614.48370361 761.2003479 C-629.67318271 762.01997215 -644.787222 762.24194533 -660 762 C-661.76462683 758.91190305 -662 757.76687864 -662 754 C-662.66 754 -663.32 754 -664 754 C-669.02158579 735.03454654 -663.72122885 716.19764356 -658 698 C-657.70319336 697.02546875 -657.40638672 696.0509375 -657.10058594 695.046875 C-652.1974488 678.99079072 -646.14466781 663.90910915 -637.29296875 649.59765625 C-633.03753745 642.57930966 -629.44284565 635.21095313 -625.74264526 627.89065552 C-614.93637151 606.54417779 -604.09962707 585.39993586 -590 566 C-588.99066406 564.60201172 -588.99066406 564.60201172 -587.9609375 563.17578125 C-586.69643446 561.43513818 -585.42690146 559.69813797 -584.15234375 557.96484375 C-581.96078135 554.94597649 -579.81681186 551.89742929 -577.67773438 548.84130859 C-568.95498503 536.39081825 -559.65129441 524.49202274 -550.03515625 512.72265625 C-546.9715109 508.97212028 -543.95358275 505.18647787 -540.94140625 501.39453125 C-539.55569817 499.68539835 -538.14376066 497.99739496 -536.71484375 496.32421875 C-531.33747067 490.0264712 -526.46549723 483.55200786 -521.734375 476.76245117 C-515.66050611 468.04756133 -509.35056391 459.51455721 -503 451 C-502.34418945 450.11666992 -501.68837891 449.23333984 -501.01269531 448.32324219 C-494.17405104 439.12961154 -487.36797226 430.08572072 -479.43261719 421.80786133 C-473.3616612 415.40838598 -468.1287554 408.34204342 -462.78662109 401.33496094 C-459.86369337 397.51494444 -456.8978385 393.72854364 -453.9375 389.9375 C-450.4722618 385.49275575 -447.02085761 381.03900839 -443.6171875 376.546875 C-438.2488754 369.46218524 -432.82892751 362.48360584 -427.02709961 355.74755859 C-423.68803962 351.85898681 -420.51327347 347.86428205 -417.375 343.8125 C-413.5012003 338.82020883 -409.45637338 334.0750231 -405.17578125 329.421875 C-402.88089933 326.86742834 -400.71808866 324.23527893 -398.5625 321.5625 C-394.65303059 316.73195141 -390.54472169 312.12886905 -386.33984375 307.5546875 C-383.77013922 304.74903347 -381.2665564 301.89305561 -378.7734375 299.01953125 C-376.731803 296.69458623 -374.64665651 294.41188163 -372.5625 292.125 C-368.94864427 288.12177261 -365.56376468 283.99290378 -362.22265625 279.76171875 C-355.21168267 271.05036845 -347.78582235 262.68533248 -340.23046875 254.4453125 C-337.71816829 251.69102163 -335.26909433 248.88769299 -332.828125 246.0703125 C-330.67605163 243.63313539 -328.46050346 241.25928518 -326.25 238.875 C-321.52778045 233.69694026 -317.21073681 228.27740186 -312.91796875 222.7421875 C-305.48080234 213.16236659 -297.74447457 203.81502844 -289.8828125 194.58178711 C-287.04946883 191.25188339 -284.25980831 187.89104106 -281.5 184.5 C-276.89093693 178.84305047 -272.18971296 173.26859669 -267.45898438 167.71337891 C-266.47249956 166.55488653 -265.48684435 165.3956873 -264.50195312 164.23583984 C-258.51813102 157.19117926 -252.4652703 150.23645349 -246.2109375 143.4296875 C-244.36578822 141.40197928 -242.58211578 139.34299734 -240.8125 137.25 C-236.62868506 132.41714456 -232.01928681 127.99793951 -227.4831543 123.50024414 C-223.73591596 119.77261263 -220.09406443 116.01639009 -216.67944336 111.9777832 C-208.28174686 102.08830227 -199.13240374 92.97867612 -189.95239258 83.82202148 C-187.43650714 81.31150926 -184.92602814 78.79567936 -182.41601562 76.27929688 C-180.79719563 74.66113751 -179.17806555 73.04328828 -177.55859375 71.42578125 C-176.81878769 70.68395096 -176.07898163 69.94212067 -175.3167572 69.17781067 C-171.22787085 65.10704915 -167.04856029 61.20558494 -162.6688385 57.44865417 C-160.68017149 55.72236924 -158.82873741 53.89404946 -157 52 C-153.16398851 48.11964156 -149.13870076 44.55216515 -145 41 C-143.84827706 39.9968754 -142.69730163 38.99289224 -141.546875 37.98828125 C-130.70605649 28.53130807 -119.82758223 19.2169912 -108 11 C-106.84153564 10.19175781 -106.84153564 10.19175781 -105.65966797 9.3671875 C-85.17532392 -4.84534031 -85.17532392 -4.84534031 -75 -8 C-74.01128906 -8.35964844 -73.02257812 -8.71929688 -72.00390625 -9.08984375 C-49.18358763 -15.45758798 -21.34457849 -8.44078875 0 0 Z " fill="#FDFDFE" transform="translate(1042,845)"/>
<path d="M0 0 C8.14852546 4.75414588 13.56244069 11.36288428 19.16015625 18.84375 C19.90910156 19.82730469 20.65804687 20.81085937 21.4296875 21.82421875 C32.97253324 37.27929257 42.17178695 54.15266894 50.14697266 71.67236328 C51.41861881 74.39766952 52.78737213 77.06529058 54.16894531 79.73608398 C62.62329881 96.11379095 68.97196537 113.50871676 75.16015625 130.84375 C75.54905029 131.9258374 75.54905029 131.9258374 75.94580078 133.02978516 C89.22106332 170.04941971 101.17530707 207.21934507 109.2890625 245.72851562 C110.03689739 249.27705748 110.81380311 252.81859838 111.59765625 256.359375 C117.88916784 285.40558556 120.59308439 315.19701161 123.36328125 344.74609375 C123.42972336 345.44484116 123.49616547 346.14358856 123.56462097 346.86351013 C124.68236378 359.04853177 125.32148014 371.1931564 125.36328125 383.4296875 C125.36610863 384.09081165 125.368936 384.75193581 125.37184906 385.43309402 C125.38667674 388.93733335 125.39600724 392.44153332 125.40039062 395.94580078 C125.40475325 398.77666262 125.41858274 401.60721591 125.44140625 404.43798828 C125.58338151 422.43477744 124.92560006 440.01652176 122.16015625 457.84375 C122.00036285 458.90879761 122.00036285 458.90879761 121.83734131 459.99536133 C121.24131682 463.90758707 120.52770995 467.78196682 119.72265625 471.65625 C119.47950684 472.82655762 119.23635742 473.99686523 118.98583984 475.20263672 C114.14138357 497.08110227 106.6008321 519.06144839 97.26318359 539.42871094 C95.97140036 542.25702429 94.71780109 545.1013146 93.4609375 547.9453125 C82.19191723 573.18349574 69.2133062 597.43353182 50.1328125 617.69140625 C48.17900139 619.82318828 46.46252869 622.03559708 44.72265625 624.34375 C40.57876203 629.60942568 35.89451492 634.29641171 31.16015625 639.03125 C30.40033447 639.79179688 29.6405127 640.55234375 28.85766602 641.3359375 C13.61993945 656.42716329 -3.50204242 668.86923027 -21.96240234 679.72265625 C-24.42630506 681.193949 -26.81930487 682.76411006 -29.21484375 684.34375 C-44.17779249 693.83466438 -59.41760618 701.24299128 -76.20605469 706.94824219 C-77.79522188 707.48857082 -79.38061562 708.04046231 -80.95800781 708.61425781 C-98.44011508 714.96220112 -119.75542252 713.9589169 -136.84130859 706.81933594 C-141.78547927 704.40583654 -145.28104608 700.95216894 -148.83984375 696.84375 C-149.52820313 696.15539063 -150.2165625 695.46703125 -150.92578125 694.7578125 C-159.7476356 685.66555649 -164.96772093 674.33901753 -169.3203125 662.609375 C-170.43704077 659.69770839 -171.76611662 656.95498177 -173.1875 654.1796875 C-176.16127456 648.32622766 -178.63664827 642.30537702 -181.08984375 636.21875 C-181.56583008 635.04304443 -182.04181641 633.86733887 -182.53222656 632.65600586 C-189.49584689 615.35728593 -195.97875406 597.88362901 -202.01025391 580.23876953 C-202.80985274 577.93033383 -203.63965608 575.63497352 -204.4765625 573.33984375 C-214.89983095 544.19629949 -221.1540014 513.52811302 -225.53125 482.94970703 C-225.82970364 480.9129498 -226.14719912 478.88025657 -226.47265625 476.84765625 C-236.18800777 415.29660012 -230.03410823 348.54057084 -216.83984375 287.84375 C-216.66606201 287.04225525 -216.49228027 286.2407605 -216.31323242 285.41497803 C-214.86688632 278.76083079 -213.38978972 272.11381595 -211.90234375 265.46875 C-211.69719147 264.54448212 -211.49203918 263.62021423 -211.28067017 262.66793823 C-208.52724149 250.3104206 -205.30170743 238.1980889 -201.53933716 226.11010742 C-200.50019147 222.74327721 -199.51463799 219.36172561 -198.5234375 215.98046875 C-191.39610902 192.14089233 -182.54838067 169.05022016 -170.94873047 146.99414062 C-169.58614471 144.35176824 -168.27749352 141.68506997 -166.96875 139.015625 C-161.70674411 128.30010173 -156.44404127 117.80625222 -149.83984375 107.84375 C-149.25460938 106.94011719 -148.669375 106.03648437 -148.06640625 105.10546875 C-146.0261908 101.99349454 -143.94350865 98.91296578 -141.83984375 95.84375 C-141.32083496 95.08578125 -140.80182617 94.3278125 -140.26708984 93.546875 C-133.4689485 83.6502872 -126.5901176 74.01882167 -118.83984375 64.84375 C-117.70616043 63.41308813 -116.58097099 61.97564996 -115.46484375 60.53125 C-114.90539062 59.809375 -114.3459375 59.0875 -113.76953125 58.34375 C-112.72637112 56.99228749 -111.68391946 55.64027071 -110.64550781 54.28515625 C-104.82313076 46.69722769 -98.81179398 39.43935108 -92.26953125 32.4609375 C-90.3220202 30.36313621 -88.4689634 28.24065227 -86.65234375 26.03125 C-84.1059163 23.0257483 -81.28917861 20.52189451 -78.28515625 17.98046875 C-76.37546665 16.31177832 -74.53603979 14.61731248 -72.70703125 12.86328125 C-66.82430559 7.23512479 -60.90899684 1.89630047 -54.27734375 -2.84375 C-53.70612793 -3.25343018 -53.13491211 -3.66311035 -52.54638672 -4.08520508 C-36.46279524 -15.26270547 -15.86434653 -8.29232731 0 0 Z " fill="#FCFCFD" transform="translate(369.83984375,712.15625)"/>
<path d="M0 0 C0.79639893 -0.02255859 1.59279785 -0.04511719 2.41333008 -0.06835938 C18.00222897 -0.00353393 30.55261927 14.41268259 41.15625 24.46875 C43.58276045 26.76905897 46.06578305 28.97200796 48.625 31.125 C53.29380868 35.15533912 57.26336468 39.79939955 61.3125 44.4375 C62.19035156 45.40816406 62.19035156 45.40816406 63.0859375 46.3984375 C67.12653619 50.89431491 70.81479156 55.63277997 74.47363281 60.43969727 C77.88595023 64.91464499 81.4156634 69.28014331 85.01171875 73.609375 C90.68821317 80.5869335 96.0469957 87.74441072 101.1875 95.125 C101.79682373 95.99858154 102.40614746 96.87216309 103.03393555 97.7722168 C107.97423385 104.88815527 112.73897878 112.08009631 117.3125 119.4375 C117.66586426 119.99614746 118.01922852 120.55479492 118.38330078 121.13037109 C125.0363199 131.66605758 130.56976541 142.68270367 136.04296875 153.86767578 C137.15128559 156.11116483 138.28346067 158.33839452 139.4375 160.55859375 C149.76946983 180.48508618 157.3874139 201.45307159 164.16162109 222.81201172 C164.88374065 225.0868262 165.61225919 227.35962979 166.35009766 229.62939453 C181.19108208 275.43645087 189.75738027 323.5666196 194.3125 371.4375 C194.43109375 372.65066895 194.5496875 373.86383789 194.671875 375.11376953 C198.15499591 412.42773892 198.66452324 451.20486687 192.6607666 488.25817871 C192.2875325 490.59373725 191.93278408 492.93161715 191.58105469 495.27050781 C186.65935391 527.8379659 179.38875292 559.38390065 168.3125 590.4375 C167.78366427 591.93872612 167.25555762 593.44020918 166.72802734 594.94189453 C165.23519028 599.1898834 163.73380425 603.43476762 162.22640991 607.6776123 C161.63040601 609.35518804 161.03548506 611.03314904 160.44180298 612.71154785 C156.39484249 624.12598509 151.95415351 635.31312288 147.16967773 646.43814087 C146.06832771 649.00702959 144.99270386 651.58622767 143.921875 654.16796875 C143.60476563 654.92787109 143.28765625 655.68777344 142.9609375 656.47070312 C142.34439875 657.94905581 141.72992286 659.42826999 141.1171875 660.90820312 C139.61625446 664.49617734 138.05262582 668.00747895 136.27734375 671.46875 C134.5868833 674.78383536 133.23308236 678.14500344 131.92993164 681.62744141 C127.3856008 693.61058133 120.47056551 702.56103123 110.3125 710.4375 C109.3534375 711.22060547 109.3534375 711.22060547 108.375 712.01953125 C94.47766863 722.41620907 76.97148162 723.20722184 60.3125 721.4375 C53.0585121 720.21194607 46.21091611 717.9425793 39.3125 715.4375 C38.50570801 715.1590625 37.69891602 714.880625 36.86767578 714.59375 C18.95716425 708.36526058 1.99275018 699.05920522 -13.40917969 688.03833008 C-16.00540186 686.21413068 -18.67106398 684.5606189 -21.390625 682.92895508 C-37.44379767 673.28988488 -51.32607052 661.48869613 -64.6875 648.4375 C-65.25903809 647.88642578 -65.83057617 647.33535156 -66.41943359 646.76757812 C-72.33295718 641.06518949 -77.86775909 635.24972584 -82.89453125 628.73046875 C-84.58378831 626.57013347 -86.35060587 624.53503102 -88.1875 622.5 C-131.75582653 573.11599188 -158.51264234 494.14735923 -158.92578125 429.015625 C-158.93552979 427.73810867 -158.94527832 426.46059235 -158.95532227 425.1443634 C-158.98275509 420.99208562 -158.99378302 416.8398582 -159 412.6875 C-159.00194681 411.62150637 -159.00194681 411.62150637 -159.00393295 410.53397751 C-159.03935252 384.90469814 -157.84283209 359.60057411 -154.98498535 334.11743164 C-154.68654325 331.42888102 -154.40144854 328.7392192 -154.12011719 326.04882812 C-151.6570706 302.62755236 -148.07878443 279.58754117 -143.14251709 256.5604248 C-142.68769481 254.43840892 -142.23740562 252.31546659 -141.78759766 250.19238281 C-138.64860558 235.44104713 -135.25719946 220.81859609 -130.64501953 206.44873047 C-129.69750767 203.46897237 -128.77290274 200.48300774 -127.85360718 197.49446106 C-122.54219584 180.22832202 -116.95036051 163.13037472 -110.68554688 146.18212891 C-109.41729312 142.69443108 -108.22448316 139.18350669 -107.0324707 135.66918945 C-103.46748701 125.19878806 -99.27612824 115.07072609 -94.80175781 104.95849609 C-93.73059644 102.53500523 -92.67234108 100.10627643 -91.6171875 97.67578125 C-80.29187316 71.71365715 -67.13385091 45.14270624 -48.6875 23.4375 C-48.01944336 22.64835205 -48.01944336 22.64835205 -47.33789062 21.84326172 C-39.71577842 13.05203146 -31.43880715 7.78605076 -20.6875 3.4375 C-19.76453125 3.05722656 -18.8415625 2.67695312 -17.890625 2.28515625 C-12.03840695 0.31321321 -6.12391737 0.11753032 0 0 Z " fill="#FDFDFE" transform="translate(1660.6875,702.5625)"/>
<path d="M0 0 C3.0625 2.0625 3.0625 2.0625 5 5 C5.26741783 18.63830942 -5.90528361 31.80773533 -14.51953125 41.5078125 C-16.84327928 43.84995431 -19.37344491 45.93959257 -21.88671875 48.07421875 C-24.14678966 50.13376581 -26.11734455 52.31936229 -28.125 54.625 C-36.27715025 63.85941848 -45.56566524 72.00894053 -55.16796875 79.69921875 C-58.44198832 82.35907741 -61.62560308 85.11202796 -64.8125 87.875 C-69.48054443 91.91457999 -74.2376726 95.7917935 -79.125 99.5625 C-85.75749178 104.6966796 -91.89972169 110.2508756 -98 116 C-109.20793323 126.56276438 -121.05650723 135.92783446 -133.5 145 C-134.25361816 145.55220215 -135.00723633 146.1044043 -135.78369141 146.67333984 C-146.96750767 154.74318179 -146.96750767 154.74318179 -154.94140625 153.51953125 C-157.53244092 152.86562686 -159.18636663 151.97134062 -161 150 C-161 149.34 -161 148.68 -161 148 C-161.87785156 147.74089844 -161.87785156 147.74089844 -162.7734375 147.4765625 C-166.12777384 145.25210787 -167.14873701 141.97420756 -168.625 138.375 C-168.9240625 137.68792969 -169.223125 137.00085937 -169.53125 136.29296875 C-172.82370382 128.52802235 -174.3121852 121.36438194 -174.3359375 112.96875 C-174.3425943 112.13339722 -174.3492511 111.29804443 -174.35610962 110.43737793 C-174.36617101 108.68272076 -174.37092867 106.92802583 -174.37060547 105.17333984 C-174.37498875 102.50684188 -174.41140369 99.84198843 -174.44921875 97.17578125 C-174.45508655 95.46094309 -174.45905619 93.74609717 -174.4609375 92.03125 C-174.47530853 91.24455933 -174.48967957 90.45786865 -174.50448608 89.64733887 C-174.44770646 82.68621309 -172.36066028 77.44193496 -167.50390625 72.41796875 C-150.75088255 59.71414865 -131.1150288 51.48764338 -112 43 C-111.02740234 42.56800293 -110.05480469 42.13600586 -109.05273438 41.69091797 C-97.65205473 36.64625104 -86.18062517 31.79510558 -74.62744141 27.1105957 C-69.80607866 25.1552025 -65.01420532 23.15453112 -60.25 21.0625 C-52.5680636 17.73335349 -44.73548892 14.80114344 -36.90771484 11.8347168 C-31.68555945 9.84519855 -26.4982195 7.8206438 -21.37890625 5.578125 C-20.52707764 5.2054248 -19.67524902 4.83272461 -18.79760742 4.44873047 C-17.23851603 3.7577213 -15.68473422 3.05453829 -14.13793945 2.33642578 C-9.17715282 0.13583206 -5.43764087 -0.50380698 0 0 Z " fill="#FDFDFE" transform="translate(1302,1147)"/>
</svg>
