<?xml version="1.0" encoding="UTF-8"?>
<svg version="1.1" xmlns="http://www.w3.org/2000/svg" width="504" height="513">
<path d="M0 0 C12.76756501 3.29285132 23.42436415 13.48097565 33.2109375 21.828125 C34.34752264 22.79312614 35.48423471 23.7579778 36.62109375 24.72265625 C38.22499664 26.08370449 39.82762819 27.4460031 41.42480469 28.81494141 C44.08627272 31.08414999 46.77629813 33.28485884 49.56640625 35.39453125 C57.13471186 41.12125881 63.91708165 47.26507097 70.53051758 54.08276367 C74.34325405 58.01066477 78.27037402 61.68614291 82.41650391 65.26025391 C99.75806242 80.4122932 107.36044186 102.23454886 109.0234375 124.71875 C109.93987458 141.83084242 104.95017344 159.55449098 93.3359375 172.515625 C79.59186256 185.48965839 62.77097513 187.42095236 44.7265625 187.13671875 C27.56333235 186.5420755 10.5309591 180.08420185 -1.7890625 167.828125 C-15.40575733 151.52935391 -13.02439215 133.48579917 -13.0390625 113.265625 C-13.04073425 112.04868958 -13.04240601 110.83175415 -13.04412842 109.57794189 C-13.04562103 91.24955638 -12.51650166 72.99797106 -11.4140625 54.703125 C-11.35093872 53.65140106 -11.28781494 52.59967712 -11.22277832 51.51608276 C-10.79920606 44.61580298 -10.31950627 37.72099379 -9.7890625 30.828125 C-9.71151733 29.82044067 -9.63397217 28.81275635 -9.55407715 27.77453613 C-9.31728349 24.77320332 -9.06771334 21.77325564 -8.8125 18.7734375 C-8.74020172 17.8746286 -8.66790344 16.9758197 -8.59341431 16.04977417 C-8.15064884 11.083391 -7.54189881 6.51378175 -5.7890625 1.828125 C-2.7890625 -0.171875 -2.7890625 -0.171875 0 0 Z " fill="#000000" transform="translate(275.7890625,45.171875)"/>
<path d="M0 0 C7.08250948 10.62376422 5.17319987 31.65571813 6 44 C6.09374782 45.33091505 6.18782953 46.66180662 6.28222656 47.99267578 C7.76479283 69.18264799 8.18853436 90.32193076 8.1875 111.5625 C8.18840637 112.7814093 8.18931274 114.0003186 8.19024658 115.25616455 C8.18994961 118.77630436 8.18096988 122.29629228 8.16796875 125.81640625 C8.16616356 127.37227699 8.16616356 127.37227699 8.1643219 128.95957947 C8.06752898 144.33306892 7.44817032 156.12565088 -3.515625 167.76953125 C-21.47262555 183.89130376 -42.72558342 187.02335898 -66.04199219 186.1953125 C-71.81162384 185.814353 -76.74515728 184.46248834 -82 182 C-83.43279297 181.36384766 -83.43279297 181.36384766 -84.89453125 180.71484375 C-99.15075412 173.71349764 -105.42158776 162.34305594 -111.12890625 148.203125 C-117.85486816 128.31767239 -112.40028598 105.52489193 -104.66015625 86.75 C-98.04209617 73.55224541 -86.63340165 63.5063491 -75.94140625 53.66015625 C-72.9678739 50.92055199 -70.10886436 48.10930875 -67.3125 45.1875 C-63.33664025 41.15047318 -58.98218702 37.73944681 -54.4987793 34.29345703 C-50.24658993 31.0171335 -46.16526002 27.5955711 -42.125 24.0625 C-10.57289227 -3.27969321 -10.57289227 -3.27969321 0 0 Z " fill="#000000" transform="translate(231,46)"/>
<path d="M0 0 C2.94139008 0.94627922 5.57698917 2.06288706 8 4 C8.33 4.99 8.66 5.98 9 7 C9.66 7 10.32 7 11 7 C14.64773815 15.30703394 15.29200323 24.48147435 14.97265625 33.46484375 C14.92402099 36.02161451 14.92402099 36.02161451 15.5 38.5703125 C16.24675614 43.69259286 16.01327669 48.77028779 15.9375 53.9375 C15.8314187 66.38967628 16.66270349 78.62645063 18 91 C22.06610303 85.92285682 25.26984668 80.95632781 27.875 75 C28.33519531 73.98099609 28.33519531 73.98099609 28.8046875 72.94140625 C29.54527935 71.29821808 30.27397137 69.64967453 31 68 C33.97 68.495 33.97 68.495 37 69 C39.2314324 77.63576946 40.69384803 85.17271069 39 94 C38.89300781 94.73347656 38.78601563 95.46695313 38.67578125 96.22265625 C36.93123018 103.91263738 30.77517695 109.21515742 25.38256836 114.61035156 C24.23105842 115.76775834 23.11466962 116.95997588 22.0078125 118.16015625 C19.48928359 120.46799111 16.79864291 121.97371025 13.8125 123.625 C9.70440764 125.61782258 9.70440764 125.61782258 7 129 C5.06755854 129.73836569 3.10262841 130.39295819 1.125 131 C-2.38357037 132.08216146 -4.92924751 132.95283167 -8 135 C-10.33991954 135.581502 -12.69710684 136.09529204 -15.0625 136.5625 C-19.66758855 137.37786708 -19.66758855 137.37786708 -24 139 C-29.04694057 139.52501296 -34.12213471 139.76880338 -39.1875 140.0625 C-39.93788544 140.10702301 -40.68827087 140.15154602 -41.46139526 140.19741821 C-52.83010464 140.85971857 -64.17477067 141.19410315 -75.5625 141.1875 C-76.23961029 141.18831573 -76.91672058 141.18913147 -77.61434937 141.18997192 C-88.81156754 141.18843246 -88.81156754 141.18843246 -90 140 C-90.25 137.5625 -90.25 137.5625 -90 135 C-86.33635178 132.55756785 -83.65534439 132.80581706 -79.4375 132.9375 C-74.57665288 133.26570523 -74.57665288 133.26570523 -70 132 C-68.10639696 131.84483374 -66.20981711 131.72498409 -64.3125 131.625 C-59.26914491 131.24028638 -55.56136679 130.28068339 -51 128 C-49.824375 127.608125 -48.64875 127.21625 -47.4375 126.8125 C-35.93590385 122.50219309 -22.99012255 114.98675908 -16.375 104.375 C-13.89982163 98.54065099 -14.06197864 91.15921381 -15 85 C-17.15124198 81.57971395 -19.14056384 79.31839518 -23 78 C-29.01119617 77.39683576 -35.05072945 78.11862659 -41 79 C-41 79.66 -41 80.32 -41 81 C-42.37671875 81.45439453 -42.37671875 81.45439453 -43.78125 81.91796875 C-50.71856177 84.28627371 -57.0168728 86.69116354 -63 91 C-64.54132036 92.08382598 -66.08301617 93.16711815 -67.625 94.25 C-68.46675781 94.84425781 -69.30851563 95.43851562 -70.17578125 96.05078125 C-75.68467899 99.85291122 -81.34158221 103.42610263 -87 107 C-87.61472168 107.38961914 -88.22944336 107.77923828 -88.86279297 108.18066406 C-90.65498188 109.3137168 -92.45150749 110.43948576 -94.25 111.5625 C-95.30703125 112.22378906 -96.3640625 112.88507813 -97.453125 113.56640625 C-100 115 -100 115 -102 115 C-102 115.66 -102 116.32 -102 117 C-103.60681641 117.63228516 -103.60681641 117.63228516 -105.24609375 118.27734375 C-106.64328302 118.83059319 -108.04041551 119.38398602 -109.4375 119.9375 C-110.14455078 120.21529297 -110.85160156 120.49308594 -111.58007812 120.77929688 C-115.04673881 121.96222034 -115.04673881 121.96222034 -118 124 C-119.51165654 124.39148761 -121.03469632 124.73972457 -122.5625 125.0625 C-123.80193359 125.32740234 -123.80193359 125.32740234 -125.06640625 125.59765625 C-125.70449219 125.73042969 -126.34257812 125.86320312 -127 126 C-127.33 127.32 -127.66 128.64 -128 130 C-123.87271289 131.62143422 -119.97163889 133.05384264 -115.625 133.9375 C-112 135 -112 135 -110.4375 137 C-110 139 -110 139 -111 141 C-113.58984375 141.4140625 -113.58984375 141.4140625 -116.9375 141.625 C-118.55978516 141.73714844 -118.55978516 141.73714844 -120.21484375 141.8515625 C-128.51337013 142.17699491 -136.04029417 141.90962268 -144.1875 140.1875 C-145.03763672 140.02185547 -145.88777344 139.85621094 -146.76367188 139.68554688 C-151.86894135 138.64083922 -156.26498634 137.16052719 -161 135 C-162.50046875 134.51660156 -162.50046875 134.51660156 -164.03125 134.0234375 C-175.5085786 130.06677948 -184.51010313 122.37530544 -193.39550781 114.41015625 C-196.46236456 111.71475689 -199.69288707 109.2253302 -202.9140625 106.71875 C-205.10647311 104.91226934 -207.12643394 103.13877404 -209 101 C-208.75 98.25 -208.75 98.25 -208 96 C-205 95 -205 95 -202 96 C-200.53740901 96.09249173 -199.07097978 96.13067952 -197.60546875 96.1328125 C-196.73881592 96.13490723 -195.87216309 96.13700195 -194.97924805 96.13916016 C-194.05797119 96.1344873 -193.13669434 96.12981445 -192.1875 96.125 C-191.24495361 96.12161621 -190.30240723 96.11823242 -189.33129883 96.11474609 C-178.97240839 96.03876617 -169.04862752 95.67963401 -159 93 C-155.6736977 92.56738843 -152.34386373 92.26038283 -149 92 C-149 91.34 -149 90.68 -149 90 C-148.25878906 89.87625 -147.51757812 89.7525 -146.75390625 89.625 C-128.12817063 85.97736512 -110.73924816 75.2963804 -95 65 C-94.31164062 64.56558594 -93.62328125 64.13117188 -92.9140625 63.68359375 C-86.54874964 59.58522565 -80.80393097 54.84865049 -75 50 C-68.96072047 45.03343166 -62.899431 40.09663438 -56.78515625 35.22265625 C-54.6854439 33.54700923 -52.58943772 31.8671624 -50.49609375 30.18359375 C-11.3410986 -1.28069549 -11.3410986 -1.28069549 0 0 Z M-12.6796875 30.65234375 C-13.40414062 31.40644531 -14.12859375 32.16054688 -14.875 32.9375 C-19.10546365 37.22168383 -23.5743154 41.01977947 -28.26953125 44.78125 C-32.29857742 48.05521026 -36.15376138 51.51464303 -40 55 C-33.40085682 57.19971439 -23.56855032 54.43924958 -17.171875 51.859375 C-13.09084831 49.47121864 -11.3562206 47.63970206 -10 43 C-9.75917126 39.41569055 -9.75917126 39.41569055 -9.875 35.6875 C-9.89304687 34.43324219 -9.91109375 33.17898438 -9.9296875 31.88671875 C-9.95289063 30.93410156 -9.97609375 29.98148437 -10 29 C-11.27388262 28.88311993 -11.27388262 28.88311993 -12.6796875 30.65234375 Z " fill="#000000" transform="translate(337,321)"/>
<path d="M0 0 C11.05463498 3.44687699 19.65583488 9.00465104 28.51806641 16.328125 C30.8767944 18.25148175 33.30805979 20.06636824 35.74633789 21.88696289 C40.48101131 25.43504955 44.8132564 29.09032109 48.88671875 33.375 C51.78047793 36.23058294 55.24733351 38.17293937 58.72265625 40.23046875 C61.38229816 41.84511103 63.96194979 43.55388176 66.5546875 45.2734375 C71.63093662 48.52691424 76.72148213 50.78094494 82.3671875 52.8359375 C83.0271875 53.1659375 83.6871875 53.4959375 84.3671875 53.8359375 C84.3046875 55.6484375 84.3046875 55.6484375 83.3671875 57.8359375 C78.24820757 60.44509415 73.39135929 61.55505408 67.7421875 62.3984375 C62.99297921 63.12493352 58.80954637 63.92989976 54.3671875 65.8359375 C51.06144005 66.6846397 47.7326534 67.27593267 44.3671875 67.8359375 C43.3359375 68.0215625 42.3046875 68.2071875 41.2421875 68.3984375 C37.29429688 67.62602412 35.39441143 65.56348311 32.5078125 62.84765625 C23.07740853 53.98514157 14.54918812 49.5643084 1.3671875 49.8359375 C-9.66261199 51.81900695 -19.04258861 60.09290713 -25.6328125 68.8359375 C-26.49685086 73.64575106 -24.51119716 76.504258 -21.9296875 80.41796875 C-16.2088532 86.44041166 -5.74978797 88.42320993 2.3671875 88.8359375 C3.08132812 88.87460937 3.79546875 88.91328125 4.53125 88.953125 C9.44810895 89.1051928 13.69840719 88.44945436 18.421875 87.078125 C20.3671875 86.8359375 20.3671875 86.8359375 23.3671875 88.8359375 C23.12216699 99.86186044 14.6704205 108.15038403 7.15234375 115.37890625 C2.41318673 119.55973341 -2.32835212 123.5598844 -8.6328125 124.8359375 C-9.7053125 125.0628125 -10.7778125 125.2896875 -11.8828125 125.5234375 C-17.95426358 124.41033814 -20.21367904 119.66502291 -23.6328125 114.8359375 C-26.73540566 110.70502274 -28.44357934 108.8534342 -33.6328125 107.8359375 C-40.37938356 108.07688647 -44.40972229 110.68401329 -49.1953125 115.31640625 C-56.95162978 123.93039323 -62.63229385 132.41398112 -67.6328125 142.8359375 C-68.36042739 144.2534018 -69.08948465 145.67012709 -69.8203125 147.0859375 C-71.41080095 150.2669144 -72.54738168 153.44396618 -73.6328125 156.8359375 C-74.55711721 159.24867656 -75.51964626 161.64304139 -76.49609375 164.03515625 C-77.30555515 166.02960237 -78.09223707 168.03335835 -78.86328125 170.04296875 C-79.28222656 171.10902344 -79.70117188 172.17507813 -80.1328125 173.2734375 C-80.70515625 174.75650391 -80.70515625 174.75650391 -81.2890625 176.26953125 C-83.38572986 180.27392211 -85.52118096 181.42594412 -89.71484375 182.97265625 C-101.08170892 185.88622856 -116.76186832 186.82587909 -127.6328125 181.8359375 C-130.04378839 179.87635577 -130.56038883 179.28082576 -131.0703125 176.1484375 C-130.13205865 169.04451549 -126.21077151 164.17217698 -121.8828125 158.7109375 C-112.30252188 146.59655091 -105.04546248 132.32255239 -99.03515625 118.11328125 C-95.7672406 110.47600764 -91.23758148 103.46259417 -86.94213867 96.36987305 C-84.42539662 92.20308506 -82.02966335 87.99763629 -79.80078125 83.66796875 C-78.6328125 81.8359375 -78.6328125 81.8359375 -76.76953125 80.07421875 C-73.93267807 77.10252429 -72.19872916 73.80931804 -70.2578125 70.2109375 C-69.46180663 68.7690511 -68.66493253 67.32764367 -67.8671875 65.88671875 C-67.48369141 65.1901416 -67.10019531 64.49356445 -66.70507812 63.77587891 C-63.03570543 57.13725517 -59.18417247 50.98840319 -54.34375 45.13671875 C-52.59339953 42.78293696 -51.1946145 40.32327652 -49.76660156 37.76538086 C-47.6636963 34.18672877 -45.2291296 30.83791524 -42.8203125 27.4609375 C-42.29131348 26.71432861 -41.76231445 25.96771973 -41.21728516 25.19848633 C-37.91545501 20.56188452 -34.53577004 16.01046005 -30.9375 11.59765625 C-29.57330804 9.86602133 -29.57330804 9.86602133 -28.65234375 7.83984375 C-22.76818271 -3.72557622 -10.99409061 -2.99174464 0 0 Z " fill="#000000" transform="translate(249.6328125,228.1640625)"/>
<path d="M0 0 C5.7160555 0.84383361 8.6074996 5.08318811 12.04296875 9.44921875 C31.70620887 39.44399182 38.91907439 81.87978287 32.98046875 117.07421875 C28.75274307 135.2474282 23.17205202 153.9885338 7.91796875 165.88671875 C0.44488567 169.94817695 -8.05358728 171.07072392 -16.33203125 168.796875 C-29.74302484 162.69382518 -36.33573023 147.01433893 -41.640625 134.1640625 C-45.1358533 124.30067345 -47.44563891 113.91087549 -47.95703125 103.44921875 C-47.99119141 102.76956055 -48.02535156 102.08990234 -48.06054688 101.38964844 C-48.23907499 93.92122236 -47.17724764 86.6669669 -46.04052734 79.30981445 C-45.7095145 77.15289984 -45.39705216 74.99384752 -45.0859375 72.83398438 C-42.22540182 53.61150355 -35.26570073 40.3277331 -23.31152344 25.17138672 C-21.91608985 23.39716384 -20.53321398 21.6137001 -19.15234375 19.828125 C-16.86755652 16.87982134 -14.55905917 13.95190978 -12.22802734 11.04003906 C-11.04198834 9.55555382 -9.8681622 8.06133385 -8.6953125 6.56640625 C-8.01855469 5.74398437 -7.34179688 4.9215625 -6.64453125 4.07421875 C-5.78408203 3.01074219 -5.78408203 3.01074219 -4.90625 1.92578125 C-2.95703125 0.44921875 -2.95703125 0.44921875 0 0 Z " fill="#000000" transform="translate(416.95703125,212.55078125)"/>
<path d="M0 0 C2.421875 1.94921875 2.421875 1.94921875 4.75 4.6875 C5.38832764 5.42963745 5.38832764 5.42963745 6.03955078 6.18676758 C10.43725849 11.36487027 14.57002473 16.75728534 18.63769531 22.19628906 C20.10089444 24.13358569 21.59146502 26.04767917 23.0859375 27.9609375 C34.04569065 42.08027434 39.16772233 54.40956647 42 72 C42.15098145 72.92216309 42.30196289 73.84432617 42.45751953 74.79443359 C42.90430145 77.56910835 43.33253007 80.34577183 43.75 83.125 C43.87785889 83.96474365 44.00571777 84.8044873 44.13745117 85.66967773 C47.52141644 109.69559299 40.92484954 135.50414497 27.5 155.6875 C23.09985412 161.5041312 18.08404565 166.76403279 11 169 C1.51733218 170.05635937 -5.63103138 168.89003737 -13.33984375 163.3046875 C-28.78407506 150.61009471 -34.59556119 127.12065279 -37 108 C-38.64419508 73.93028503 -34.53140863 33.12613919 -12.0625 5.62890625 C-6.00310322 -0.99282092 -6.00310322 -0.99282092 0 0 Z " fill="#000000" transform="translate(88,213)"/>
<path d="M0 0 C2.6683155 1.33415775 3.08520359 2.30435459 4.125 5.0625 C3.96688743 10.17790664 2.33868939 14.85831378 -1.22265625 18.60546875 C-6.93583325 23.64332932 -13.35346613 27.51150102 -20.0625 31.0625 C-21.75439453 31.9596875 -21.75439453 31.9596875 -23.48046875 32.875 C-27.473077 34.27172372 -29.79618957 34.04452587 -33.875 33.0625 C-37.92749851 31.03625074 -39.57655513 29.59199895 -41.8125 25.625 C-42.91532868 21.92728032 -43.20389708 20.60622554 -41.875 17.0625 C-41.441875 15.825 -41.00875 14.5875 -40.5625 13.3125 C-39.5234375 11.5078125 -39.5234375 11.5078125 -37.875 10.0625 C-34.68520948 9.36607673 -31.71897425 9.18803282 -28.45703125 9.1328125 C-25.94379319 9.36049197 -25.94379319 9.36049197 -24.875 8.0625 C-22.691757 7.624074 -20.50318668 7.21207382 -18.3125 6.8125 C-12.80581893 5.69325588 -9.02744871 4.23679984 -4.48828125 1.01953125 C-2.875 0.0625 -2.875 0.0625 0 0 Z " fill="#000000" transform="translate(333.875,290.9375)"/>
<path d="M0 0 C0 0.99 0 1.98 0 3 C-1.98 3.99 -1.98 3.99 -4 5 C-2.68 3.35 -1.36 1.7 0 0 Z " fill="#000000" transform="translate(368,430)"/>
<path d="M0 0 C0.66 0.33 1.32 0.66 2 1 C0.68 1.99 -0.64 2.98 -2 4 C-1.34 2.68 -0.68 1.36 0 0 Z " fill="#000000" transform="translate(203,341)"/>
<path d="M0 0 C1.98 0.99 1.98 0.99 4 2 C3.01 2 2.02 2 1 2 C0.67 1.34 0.34 0.68 0 0 Z " fill="#000000" transform="translate(228,308)"/>
<path d="M0 0 C0.99 0.33 1.98 0.66 3 1 C2.01 1 1.02 1 0 1 C0 0.67 0 0.34 0 0 Z " fill="#000000" transform="translate(231,352)"/>
<path d="M0 0 C0.99 0.33 1.98 0.66 3 1 C2.01 1 1.02 1 0 1 C0 0.67 0 0.34 0 0 Z " fill="#000000" transform="translate(292,320)"/>
<path d="M0 0 C0 3 0 3 0 3 Z " fill="#000000" transform="translate(163,320)"/>
<path d="M0 0 C0 3 0 3 0 3 Z " fill="#000000" transform="translate(165,317)"/>
<path d="M0 0 C0 3 0 3 0 3 Z " fill="#000000" transform="translate(195,270)"/>
<path d="M0 0 C0 3 0 3 0 3 Z " fill="#000000" transform="translate(206,253)"/>
<path d="M0 0 C0.33 0.66 0.66 1.32 1 2 C0.34 1.67 -0.32 1.34 -1 1 C-0.67 0.67 -0.34 0.34 0 0 Z " fill="#000000" transform="translate(181,291)"/>
<path d="" fill="#000000" transform="translate(0,0)"/>
<path d="M0 0 C2 1 2 1 2 1 Z " fill="#000000" transform="translate(349,446)"/>
<path d="M0 0 C2 1 2 1 2 1 Z " fill="#000000" transform="translate(311,433)"/>
<path d="" fill="#000000" transform="translate(0,0)"/>
<path d="" fill="#000000" transform="translate(0,0)"/>
<path d="" fill="#000000" transform="translate(0,0)"/>
<path d="" fill="#000000" transform="translate(0,0)"/>
<path d="" fill="#000000" transform="translate(0,0)"/>
<path d="M0 0 C2 1 2 1 2 1 Z " fill="#000000" transform="translate(322,276)"/>
<path d="M0 0 C2 1 2 1 2 1 Z " fill="#000000" transform="translate(320,275)"/>
<path d="" fill="#000000" transform="translate(0,0)"/>
<path d="" fill="#000000" transform="translate(0,0)"/>
<path d="" fill="#000000" transform="translate(0,0)"/>
<path d="" fill="#000000" transform="translate(0,0)"/>
<path d="" fill="#000000" transform="translate(0,0)"/>
<path d="" fill="#000000" transform="translate(0,0)"/>
<path d="" fill="#000000" transform="translate(0,0)"/>
<path d="" fill="#000000" transform="translate(0,0)"/>
<path d="" fill="#000000" transform="translate(0,0)"/>
<path d="" fill="#000000" transform="translate(0,0)"/>
<path d="" fill="#000000" transform="translate(0,0)"/>
<path d="" fill="#000000" transform="translate(0,0)"/>
<path d="" fill="#000000" transform="translate(0,0)"/>
<path d="" fill="#000000" transform="translate(0,0)"/>
<path d="" fill="#000000" transform="translate(0,0)"/>
<path d="" fill="#000000" transform="translate(0,0)"/>
<path d="" fill="#000000" transform="translate(0,0)"/>
<path d="" fill="#000000" transform="translate(0,0)"/>
<path d="" fill="#000000" transform="translate(0,0)"/>
<path d="" fill="#000000" transform="translate(0,0)"/>
<path d="" fill="#000000" transform="translate(0,0)"/>
<path d="" fill="#000000" transform="translate(0,0)"/>
<path d="" fill="#000000" transform="translate(0,0)"/>
<path d="" fill="#000000" transform="translate(0,0)"/>
<path d="" fill="#000000" transform="translate(0,0)"/>
<path d="" fill="#000000" transform="translate(0,0)"/>
<path d="" fill="#000000" transform="translate(0,0)"/>
<path d="" fill="#000000" transform="translate(0,0)"/>
<path d="" fill="#000000" transform="translate(0,0)"/>
<path d="" fill="#000000" transform="translate(0,0)"/>
<path d="" fill="#000000" transform="translate(0,0)"/>
<path d="" fill="#000000" transform="translate(0,0)"/>
<path d="" fill="#000000" transform="translate(0,0)"/>
<path d="" fill="#000000" transform="translate(0,0)"/>
<path d="" fill="#000000" transform="translate(0,0)"/>
<path d="" fill="#000000" transform="translate(0,0)"/>
<path d="" fill="#000000" transform="translate(0,0)"/>
<path d="" fill="#000000" transform="translate(0,0)"/>
<path d="" fill="#000000" transform="translate(0,0)"/>
<path d="" fill="#000000" transform="translate(0,0)"/>
<path d="" fill="#000000" transform="translate(0,0)"/>
<path d="" fill="#000000" transform="translate(0,0)"/>
<path d="" fill="#000000" transform="translate(0,0)"/>
<path d="" fill="#000000" transform="translate(0,0)"/>
<path d="" fill="#000000" transform="translate(0,0)"/>
<path d="" fill="#000000" transform="translate(0,0)"/>
<path d="" fill="#000000" transform="translate(0,0)"/>
<path d="" fill="#000000" transform="translate(0,0)"/>
<path d="" fill="#000000" transform="translate(0,0)"/>
<path d="" fill="#000000" transform="translate(0,0)"/>
<path d="" fill="#000000" transform="translate(0,0)"/>
<path d="" fill="#000000" transform="translate(0,0)"/>
<path d="" fill="#000000" transform="translate(0,0)"/>
<path d="" fill="#000000" transform="translate(0,0)"/>
<path d="" fill="#000000" transform="translate(0,0)"/>
<path d="" fill="#000000" transform="translate(0,0)"/>
<path d="" fill="#000000" transform="translate(0,0)"/>
<path d="" fill="#000000" transform="translate(0,0)"/>
<path d="" fill="#000000" transform="translate(0,0)"/>
<path d="" fill="#000000" transform="translate(0,0)"/>
<path d="" fill="#000000" transform="translate(0,0)"/>
<path d="" fill="#000000" transform="translate(0,0)"/>
<path d="" fill="#000000" transform="translate(0,0)"/>
<path d="" fill="#000000" transform="translate(0,0)"/>
<path d="" fill="#000000" transform="translate(0,0)"/>
<path d="" fill="#000000" transform="translate(0,0)"/>
<path d="" fill="#000000" transform="translate(0,0)"/>
<path d="" fill="#000000" transform="translate(0,0)"/>
<path d="" fill="#000000" transform="translate(0,0)"/>
<path d="" fill="#000000" transform="translate(0,0)"/>
<path d="" fill="#000000" transform="translate(0,0)"/>
<path d="" fill="#000000" transform="translate(0,0)"/>
<path d="" fill="#000000" transform="translate(0,0)"/>
<path d="" fill="#000000" transform="translate(0,0)"/>
<path d="" fill="#000000" transform="translate(0,0)"/>
<path d="" fill="#000000" transform="translate(0,0)"/>
<path d="" fill="#000000" transform="translate(0,0)"/>
<path d="" fill="#000000" transform="translate(0,0)"/>
<path d="" fill="#000000" transform="translate(0,0)"/>
<path d="" fill="#000000" transform="translate(0,0)"/>
<path d="" fill="#000000" transform="translate(0,0)"/>
<path d="" fill="#000000" transform="translate(0,0)"/>
<path d="" fill="#000000" transform="translate(0,0)"/>
<path d="" fill="#000000" transform="translate(0,0)"/>
<path d="" fill="#000000" transform="translate(0,0)"/>
<path d="" fill="#000000" transform="translate(0,0)"/>
<path d="" fill="#000000" transform="translate(0,0)"/>
<path d="" fill="#000000" transform="translate(0,0)"/>
<path d="" fill="#000000" transform="translate(0,0)"/>
<path d="" fill="#000000" transform="translate(0,0)"/>
<path d="" fill="#000000" transform="translate(0,0)"/>
<path d="" fill="#000000" transform="translate(0,0)"/>
<path d="" fill="#000000" transform="translate(0,0)"/>
<path d="" fill="#000000" transform="translate(0,0)"/>
<path d="" fill="#000000" transform="translate(0,0)"/>
<path d="" fill="#000000" transform="translate(0,0)"/>
<path d="" fill="#000000" transform="translate(0,0)"/>
<path d="" fill="#000000" transform="translate(0,0)"/>
<path d="" fill="#000000" transform="translate(0,0)"/>
<path d="" fill="#000000" transform="translate(0,0)"/>
<path d="" fill="#000000" transform="translate(0,0)"/>
<path d="" fill="#000000" transform="translate(0,0)"/>
<path d="" fill="#000000" transform="translate(0,0)"/>
<path d="" fill="#000000" transform="translate(0,0)"/>
<path d="" fill="#000000" transform="translate(0,0)"/>
<path d="" fill="#000000" transform="translate(0,0)"/>
<path d="" fill="#000000" transform="translate(0,0)"/>
<path d="" fill="#000000" transform="translate(0,0)"/>
<path d="" fill="#000000" transform="translate(0,0)"/>
<path d="" fill="#000000" transform="translate(0,0)"/>
<path d="" fill="#000000" transform="translate(0,0)"/>
<path d="" fill="#000000" transform="translate(0,0)"/>
<path d="" fill="#000000" transform="translate(0,0)"/>
<path d="" fill="#000000" transform="translate(0,0)"/>
<path d="" fill="#000000" transform="translate(0,0)"/>
<path d="" fill="#000000" transform="translate(0,0)"/>
<path d="" fill="#000000" transform="translate(0,0)"/>
<path d="" fill="#000000" transform="translate(0,0)"/>
<path d="" fill="#000000" transform="translate(0,0)"/>
<path d="" fill="#000000" transform="translate(0,0)"/>
<path d="" fill="#000000" transform="translate(0,0)"/>
<path d="" fill="#000000" transform="translate(0,0)"/>
<path d="" fill="#000000" transform="translate(0,0)"/>
<path d="" fill="#000000" transform="translate(0,0)"/>
<path d="" fill="#000000" transform="translate(0,0)"/>
<path d="" fill="#000000" transform="translate(0,0)"/>
<path d="" fill="#000000" transform="translate(0,0)"/>
<path d="" fill="#000000" transform="translate(0,0)"/>
<path d="" fill="#000000" transform="translate(0,0)"/>
<path d="" fill="#000000" transform="translate(0,0)"/>
<path d="" fill="#000000" transform="translate(0,0)"/>
<path d="" fill="#000000" transform="translate(0,0)"/>
<path d="" fill="#000000" transform="translate(0,0)"/>
<path d="" fill="#000000" transform="translate(0,0)"/>
<path d="" fill="#000000" transform="translate(0,0)"/>
<path d="" fill="#000000" transform="translate(0,0)"/>
<path d="" fill="#000000" transform="translate(0,0)"/>
<path d="" fill="#000000" transform="translate(0,0)"/>
<path d="" fill="#000000" transform="translate(0,0)"/>
<path d="" fill="#000000" transform="translate(0,0)"/>
<path d="" fill="#000000" transform="translate(0,0)"/>
<path d="" fill="#000000" transform="translate(0,0)"/>
<path d="" fill="#000000" transform="translate(0,0)"/>
<path d="" fill="#000000" transform="translate(0,0)"/>
<path d="" fill="#000000" transform="translate(0,0)"/>
<path d="" fill="#000000" transform="translate(0,0)"/>
<path d="" fill="#000000" transform="translate(0,0)"/>
<path d="" fill="#000000" transform="translate(0,0)"/>
<path d="" fill="#000000" transform="translate(0,0)"/>
<path d="" fill="#000000" transform="translate(0,0)"/>
<path d="" fill="#000000" transform="translate(0,0)"/>
<path d="" fill="#000000" transform="translate(0,0)"/>
<path d="" fill="#000000" transform="translate(0,0)"/>
<path d="" fill="#000000" transform="translate(0,0)"/>
<path d="" fill="#000000" transform="translate(0,0)"/>
<path d="" fill="#000000" transform="translate(0,0)"/>
<path d="" fill="#000000" transform="translate(0,0)"/>
<path d="" fill="#000000" transform="translate(0,0)"/>
<path d="" fill="#000000" transform="translate(0,0)"/>
<path d="" fill="#000000" transform="translate(0,0)"/>
<path d="" fill="#000000" transform="translate(0,0)"/>
<path d="" fill="#000000" transform="translate(0,0)"/>
<path d="" fill="#000000" transform="translate(0,0)"/>
<path d="" fill="#000000" transform="translate(0,0)"/>
<path d="" fill="#000000" transform="translate(0,0)"/>
<path d="" fill="#000000" transform="translate(0,0)"/>
<path d="" fill="#000000" transform="translate(0,0)"/>
<path d="" fill="#000000" transform="translate(0,0)"/>
</svg>
