<?xml version="1.0" encoding="UTF-8"?>
<svg version="1.1" xmlns="http://www.w3.org/2000/svg" width="2000" height="2000">
<path d="M0 0 C15.1014548 16.35729304 16.43148393 37.10807654 15.77404785 58.17730713 C15.47370131 65.58705546 14.88743201 72.98248824 14.3125 80.375 C14.24937622 81.19562927 14.18625244 82.01625854 14.12121582 82.86175537 C13.27393955 93.72192657 12.13642655 104.51623023 10.6875 115.3125 C11.22971191 114.95937744 11.77192383 114.60625488 12.33056641 114.24243164 C26.04080837 105.36791862 41.83122917 104.06849566 57.85546875 106.92578125 C70.98486193 110.29343351 81.03818684 118.13312092 90.6875 127.3125 C92.41408518 128.83626343 94.14324912 130.35710992 95.875 131.875 C100.1869698 135.76514667 103.97316405 139.85831664 107.6875 144.3125 C108.59769327 145.37348241 109.50926359 146.43328435 110.421875 147.4921875 C111.40655871 148.64036032 112.39093287 149.78879868 113.375 150.9375 C113.83898193 151.47600586 114.30296387 152.01451172 114.78100586 152.56933594 C117.0115412 155.1931171 118.98699755 157.76519188 120.89453125 160.6484375 C122.41688143 163.3823266 122.41688143 163.3823266 124.6875 164.3125 C124.65269531 163.01183594 124.61789062 161.71117187 124.58203125 160.37109375 C124.05049162 130.97182555 125.97259525 99.28251704 138.6875 72.3125 C139.12578125 71.34441406 139.5640625 70.37632812 140.015625 69.37890625 C143.60508055 62.10716441 148.66654859 56.47951447 154.29248047 50.75146484 C155.6017513 49.40094992 156.86714407 48.00828551 158.12890625 46.61328125 C173.77382611 29.78274967 198.50313648 22.63475964 220.91796875 21.08984375 C248.96288807 20.37393571 277.22160158 28.16391331 304.00390625 35.73046875 C308.20640169 36.91521081 312.42307812 38.02798592 316.65234375 39.11328125 C342.66952794 45.8147289 367.82905862 54.14569425 392.60302734 64.59423828 C397.38997975 66.61236221 402.18978608 68.59936324 406.98828125 70.58984375 C463.85129725 94.20381867 463.85129725 94.20381867 486.2890625 106.95019531 C488.49879799 108.20531787 490.71586033 109.44579388 492.9375 110.6796875 C496.17989773 112.48353152 499.40949836 114.30866188 502.63330078 116.14550781 C504.0826833 116.96890316 505.53440991 117.78817897 506.98779297 118.60449219 C517.02425076 124.24276919 526.69784667 130.07199509 535.91015625 136.98388672 C537.83519413 138.42290542 539.77606056 139.83882103 541.71875 141.25390625 C549.83097337 147.20102688 557.3468737 153.42766422 564.6875 160.3125 C566.09839671 161.54828542 567.51460526 162.77804841 568.9375 164 C572.08215659 166.72920399 575.0116416 169.6101583 577.921875 172.5859375 C579.68799789 174.31298688 581.53285136 175.86577775 583.4375 177.4375 C596.40011067 188.66337254 605.92130962 203.68239456 612.6875 219.3125 C612.6875 220.3025 612.6875 221.2925 612.6875 222.3125 C613.35652344 222.15265625 614.02554687 221.9928125 614.71484375 221.828125 C632.30778442 218.77652425 648.01403429 223.73703511 662.6875 233.3125 C667.0782254 236.56924798 671.10383837 240.22248482 675.12792969 243.91503906 C677.39635449 245.94767268 679.79141352 247.80835346 682.1875 249.6875 C708.55311671 271.19935811 729.72306682 303.4171406 735.6875 337.3125 C735.89836291 340.72741589 735.87260108 344.14164716 735.875 347.5625 C735.88724609 348.46613281 735.89949219 349.36976563 735.91210938 350.30078125 C735.92500304 356.27484585 735.18131002 361.52620032 733.6875 367.3125 C734.25557373 367.29155273 734.82364746 367.27060547 735.40893555 367.24902344 C754.45133252 366.64077544 768.84386217 369.07300551 783.31982422 382.37695312 C797.74030068 396.26769779 804.0440783 415.27529144 808.6875 434.3125 C808.88021484 435.07191895 809.07292969 435.83133789 809.27148438 436.61376953 C810.90999995 443.73378552 810.91799687 450.6582157 810.8125 457.9375 C810.80347656 459.13246094 810.79445313 460.32742188 810.78515625 461.55859375 C810.76181077 464.47677834 810.72906656 467.39452776 810.6875 470.3125 C811.58597656 470.57675781 812.48445313 470.84101562 813.41015625 471.11328125 C818.30738689 472.90523573 821.7541875 475.95883355 825.6875 479.3125 C826.29851562 479.81523438 826.90953125 480.31796875 827.5390625 480.8359375 C848.03729012 499.27498243 855.37198169 536.34370476 856.81176758 562.57666016 C857.49486331 581.57221998 853.79207851 596.53686518 840.63720703 610.73583984 C832.28804415 619.15625434 821.97662133 622.41406239 810.6875 625.3125 C811.45320313 626.95992187 811.45320313 626.95992187 812.234375 628.640625 C829.69183372 667.22757224 841.72323062 709.43733337 841.890625 751.953125 C841.89632507 753.11841736 841.90202515 754.28370972 841.90789795 755.48431396 C841.91727809 757.93810133 841.92385382 760.3919009 841.92773438 762.84570312 C841.9373672 766.51195609 841.96842953 770.17762968 842 773.84375 C842.14673778 805.16223642 836.81601587 833.49521406 826.625 863 C826.29735657 863.95506439 825.96971313 864.91012878 825.63214111 865.89413452 C817.3071453 890.06886443 806.67984758 912.28749023 793.6875 934.3125 C792.64185707 936.10803214 791.59628315 937.90360448 790.55078125 939.69921875 C785.45525323 948.38324949 780.15121642 956.78646338 774.17578125 964.890625 C772.40243757 967.30006698 770.70483984 969.74672569 769.04296875 972.234375 C760.22745138 985.42831357 749.99673876 997.0203967 739.22363281 1008.63378906 C737.31739206 1010.71695998 735.44482437 1012.82920847 733.56640625 1014.9375 C718.99889627 1031.12798368 703.86767751 1046.19819606 685.6875 1058.3125 C684.53969524 1059.10580326 683.39251056 1059.90000481 682.24609375 1060.6953125 C672.14918289 1067.47518766 661.34259717 1073.06001112 650.61181641 1078.75634766 C647.98838253 1080.15238769 645.37360597 1081.56298643 642.76171875 1082.98046875 C624.12975528 1093.03809968 605.47260142 1101.51592259 585.10546875 1107.4140625 C579.97169235 1108.90155514 574.93821713 1110.5830711 569.89794922 1112.35839844 C514.12964083 1131.92193981 514.12964083 1131.92193981 490.828125 1123.3671875 C485.33452484 1120.66048669 480.55927378 1116.98271522 475.6875 1113.3125 C475.15125 1113.869375 474.615 1114.42625 474.0625 1115 C457.24826592 1131.37175424 435.45310298 1135.75776864 412.67749023 1135.60131836 C384.07074338 1135.15203992 351.73036643 1126.35719878 329.6875 1107.3125 C329.0275 1106.3225 328.3675 1105.3325 327.6875 1104.3125 C324.92836427 1104.02571893 322.32561816 1103.90240566 319.5625 1103.875 C300.26342128 1103.16642363 284.70003982 1096.48223275 269.1953125 1085.05078125 C266.19786807 1082.97311338 263.05968084 1081.20556633 259.875 1079.4375 C245.12905854 1071.17784914 227.46776504 1060.50979982 220.6875 1044.3125 C220.6875 1043.6525 220.6875 1042.9925 220.6875 1042.3125 C220.18605469 1042.46976563 219.68460938 1042.62703125 219.16796875 1042.7890625 C197.81029673 1047.29603581 177.09015927 1037.22290466 159.58691406 1025.9609375 C156.59197801 1023.92882243 153.68186579 1021.80179579 150.796875 1019.6171875 C147.90241422 1017.47179572 144.95069043 1015.62035229 141.875 1013.75 C127.56406076 1004.20297073 114.41580267 990.76784894 110.01953125 973.72265625 C108.49199315 962.63452673 110.64874688 952.8803066 113.6875 942.3125 C112.55957031 942.9415625 111.43164062 943.570625 110.26953125 944.21875 C91.94443557 954.25870989 72.92053733 961.18679721 52.6875 966.3125 C51.89569336 966.52422852 51.10388672 966.73595703 50.28808594 966.95410156 C24.9838336 973.56568882 -3.25897605 972.17869228 -28.3125 965.3125 C-29.38290527 965.02310547 -30.45331055 964.73371094 -31.55615234 964.43554688 C-57.56470483 957.25183292 -81.1710573 946.70248006 -103.3125 931.3125 C-103.10753906 932.09753906 -102.90257812 932.88257813 -102.69140625 933.69140625 C-102.42199219 934.74199219 -102.15257812 935.79257813 -101.875 936.875 C-101.60816406 937.90753906 -101.34132813 938.94007813 -101.06640625 940.00390625 C-99.2921578 947.79037483 -99.06356541 955.41551506 -99.01733398 963.37109375 C-99.00586722 964.73806147 -98.98549988 966.10498631 -98.95581055 967.47167969 C-98.64675126 981.76092366 -101.06692014 994.65635185 -111.1953125 1005.2890625 C-112.53537154 1006.608101 -113.88589189 1007.91658657 -115.24609375 1009.21484375 C-118.11820594 1012.13039053 -120.52971934 1015.34118758 -122.96484375 1018.625 C-129.47691673 1026.07975243 -137.32274098 1031.61489708 -145.5625 1037 C-146.60229004 1037.68626465 -147.64208008 1038.3725293 -148.71337891 1039.07958984 C-158.78714667 1045.69398875 -169.00595594 1052.06823428 -179.3125 1058.3125 C-180.12895996 1058.81056152 -180.94541992 1059.30862305 -181.78662109 1059.82177734 C-210.90849641 1077.47843662 -250.16060539 1097.67558531 -285 1096 C-290.68807074 1095.70176524 -290.68807074 1095.70176524 -295.75 1098.0546875 C-297.51012164 1100.38842021 -298.91346748 1102.74897864 -300.3125 1105.3125 C-314.03164175 1123.46338698 -345.972853 1131.10950283 -367.1875 1134.5625 C-393.34993053 1137.61615908 -418.06345953 1135.45465272 -440.3125 1120.3125 C-442.83359463 1118.12413868 -445.13179904 1115.83873456 -447.3125 1113.3125 C-448.03953125 1113.89257812 -448.03953125 1113.89257812 -448.78125 1114.484375 C-461.28359182 1124.19773287 -473.66121742 1126.84564701 -489.3125 1125.3125 C-524.24448929 1120.36127454 -562.05320745 1109.2269182 -593.6875 1093.5625 C-594.75202393 1093.04300781 -595.81654785 1092.52351563 -596.91333008 1091.98828125 C-605.66300879 1087.69318729 -614.32040494 1083.23864927 -622.89648438 1078.60742188 C-625.47822845 1077.22367384 -628.07421258 1075.86923179 -630.671875 1074.515625 C-643.59362456 1067.71458462 -655.63725613 1060.08615949 -667.3125 1051.3125 C-668.38359009 1050.53289917 -668.38359009 1050.53289917 -669.47631836 1049.73754883 C-678.01459607 1043.26064358 -685.4108015 1035.51476336 -692.95336914 1027.93237305 C-695.36580707 1025.50923371 -697.78872509 1023.09694718 -700.21289062 1020.68554688 C-707.33474178 1013.56933083 -714.35325139 1006.52237094 -720.52270508 998.54931641 C-722.52423088 996.04788695 -724.69573153 993.78696049 -726.9375 991.5 C-734.07237395 983.74470223 -739.66647768 974.83341597 -745.47705078 966.07226562 C-747.16627971 963.53235556 -748.87327903 961.00585874 -750.58984375 958.484375 C-757.25776056 948.66125581 -763.50751989 938.6693852 -769.3125 928.3125 C-769.86228516 927.3318457 -770.41207031 926.35119141 -770.97851562 925.34082031 C-772.8130459 922.0476881 -774.62817716 918.74454276 -776.4375 915.4375 C-776.99937012 914.42300781 -777.56124023 913.40851562 -778.14013672 912.36328125 C-786.67163248 896.59451838 -792.7756085 879.83917974 -798.53222656 862.8972168 C-799.56206205 859.8762847 -800.61254825 856.86305358 -801.6640625 853.84960938 C-805.9250787 841.47261204 -809.21526054 829.23626521 -811.3125 816.3125 C-811.50424805 815.13405518 -811.69599609 813.95561035 -811.89355469 812.74145508 C-816.93334417 778.43232215 -816.73585327 740.22055679 -809.3125 706.3125 C-809.13799316 705.47299805 -808.96348633 704.63349609 -808.78369141 703.76855469 C-803.09322793 676.67982846 -794.77798 649.08606757 -782.3125 624.3125 C-783.18588013 624.23684814 -783.18588013 624.23684814 -784.0769043 624.15966797 C-798.78469012 622.73384372 -808.33564563 615.40656308 -817.703125 604.5390625 C-829.96262434 588.69252447 -830.10978923 569.16445333 -827.93017578 549.94042969 C-823.61981365 521.46017483 -814.52822686 491.45634216 -790.8125 473.41015625 C-787.85767084 471.44932293 -785.90667107 470.3125 -782.3125 470.3125 C-782.6425 469.6525 -782.9725 468.9925 -783.3125 468.3125 C-784.90907017 438.53460979 -777.39453374 406.95617899 -757.3125 384.3125 C-750.12863608 376.35748684 -738.18108245 368.59745556 -727.3125 367.3125 C-725.37598981 367.24716565 -723.43747139 367.22665697 -721.5 367.25 C-720.52417969 367.25902344 -719.54835938 367.26804687 -718.54296875 367.27734375 C-717.43888672 367.29474609 -717.43888672 367.29474609 -716.3125 367.3125 C-716.35890625 366.60609375 -716.4053125 365.8996875 -716.453125 365.171875 C-716.82806857 354.51276487 -714.72053139 344.64522391 -712.3125 334.3125 C-712.05855469 333.14460938 -711.80460937 331.97671875 -711.54296875 330.7734375 C-706.09277135 309.56330968 -687.43068435 286.86038907 -671.92578125 271.92578125 C-670.27548589 270.27548589 -668.79802485 268.54909209 -667.3125 266.75 C-664.84113715 263.80009739 -662.15013481 261.42519779 -659.18652344 258.984375 C-657.30033378 257.30164614 -655.70748409 255.54445526 -654.07421875 253.6171875 C-650.39919156 249.36570451 -646.5375117 245.34565526 -642.5625 241.375 C-641.8622168 240.67479736 -641.16193359 239.97459473 -640.44042969 239.25317383 C-635.81044542 234.67365406 -631.07400616 230.47386338 -625.953125 226.44921875 C-622.95596638 224.02400312 -620.13135877 221.4392661 -617.3125 218.8125 C-608.43390845 210.59393746 -599.0566813 203.33984775 -589.21508789 196.32739258 C-584.21511485 192.74601412 -579.38315348 189.02044255 -574.625 185.125 C-567.51451998 179.32576639 -560.01829557 174.27990833 -552.3125 169.3125 C-545.58533187 164.94846529 -539.06597212 160.4174072 -532.6875 155.5625 C-524.82664172 149.58786932 -516.68382082 144.11655239 -508.42626953 138.70898438 C-506.49770287 137.43485625 -504.58723607 136.1390891 -502.68359375 134.828125 C-492.22568072 127.65247322 -481.29014273 121.34115074 -470.29345703 115.03222656 C-467.55786287 113.45405087 -464.83725043 111.85351137 -462.12109375 110.2421875 C-443.77188537 99.42894133 -424.60473525 89.70618961 -404.54589844 82.49243164 C-396.32930673 79.47060775 -388.46318253 75.75147552 -380.5625 72 C-379.17115566 71.34022306 -377.77979826 70.68047368 -376.38842773 70.02075195 C-375.70352768 69.69598373 -375.01862762 69.37121552 -374.31297302 69.03660583 C-373.63219193 68.71386185 -372.95141083 68.39111786 -372.25 68.05859375 C-371.23311852 67.57635094 -371.23311852 67.57635094 -370.19569397 67.08436584 C-352.0274547 58.48602911 -333.51049017 50.86589187 -314.75732422 43.64453125 C-311.4377488 42.36093072 -308.12625733 41.05844044 -304.81640625 39.75 C-269.06007154 25.68314405 -232.58044207 15.54416536 -195.15164185 7.10340881 C-188.88424927 5.68420537 -182.63373523 4.20143852 -176.38671875 2.6953125 C-159.98197789 -1.24636578 -143.62030734 -5.10964105 -126.9375 -7.6875 C-125.75293213 -7.87086914 -124.56836426 -8.05423828 -123.34790039 -8.24316406 C-105.33692266 -10.85407041 -87.18157219 -12.05762097 -69.02514648 -13.12011719 C-65.7214893 -13.31417472 -62.41837597 -13.51612419 -59.11523438 -13.71875 C-56.971382 -13.84682089 -54.82750265 -13.97444137 -52.68359375 -14.1015625 C-51.71771835 -14.16090973 -50.75184296 -14.22025696 -49.75669861 -14.28140259 C-30.79588185 -15.37158376 -14.6200117 -13.52351083 0 0 Z " fill="#FEFEFE" transform="translate(979.3125,418.6875)"/>
<path d="M0 0 C5.49900668 6.67104697 4.73786833 15.42274307 4.64990234 23.54663086 C4.64342178 24.55223557 4.64342178 24.55223557 4.6368103 25.57815552 C4.4579123 49.56072137 2.02947002 73.22952647 -3.72509766 96.54663086 C-3.95600098 97.48732422 -4.1869043 98.42801758 -4.42480469 99.3972168 C-6.09940312 106.13934575 -7.89738968 112.84466726 -9.72509766 119.54663086 C-10.13912842 121.08867188 -10.13912842 121.08867188 -10.56152344 122.66186523 C-14.08177365 135.7617798 -17.8834484 148.66810246 -22.5703125 161.39916992 C-23.44531341 163.78405612 -24.31237133 166.17115732 -25.17285156 168.5612793 C-26.54453607 172.37084593 -27.92777176 176.17606923 -29.31756592 179.97906494 C-29.86979776 181.49360415 -30.41927513 183.0091513 -30.96563721 184.52581787 C-33.8973039 192.64701751 -37.04774841 200.55955045 -40.89306641 208.29663086 C-41.21665634 208.94919861 -41.54024628 209.60176636 -41.87364197 210.27410889 C-49.90102075 225.98185457 -66.63036109 236.29624773 -82.72509766 242.54663086 C-83.48048828 242.87663086 -84.23587891 243.20663086 -85.01416016 243.54663086 C-90.90306249 246.06763253 -96.94310156 247.82014756 -103.09643555 249.55493164 C-107.80419422 250.90611489 -112.25832726 252.53985664 -116.78759766 254.42163086 C-137.02070357 262.48543561 -160.33105699 265.21719107 -181.72509766 268.54663086 C-202.62430023 271.80759889 -223.41047502 276.63761224 -243.61132812 282.90649414 C-246.02796489 283.63835157 -248.45460168 284.3276173 -250.88525391 285.01147461 C-251.79202881 285.26662842 -252.69880371 285.52178223 -253.63305664 285.78466797 C-255.35720366 286.26818516 -257.08191256 286.74970677 -258.80737305 287.22851562 C-265.17559073 289.02513393 -271.44349863 291.08646103 -277.71289062 293.19897461 C-281.74562882 294.5577129 -285.78941698 295.88136427 -289.83447266 297.20288086 C-304.80832374 302.11238665 -319.72990977 307.1475901 -334.52038574 312.58789062 C-336.01017493 313.13574289 -337.50095436 313.68091124 -338.99279785 314.22314453 C-358.81492422 321.08521701 -358.81492422 321.08521701 -372.10009766 336.42163086 C-372.97916801 340.81698262 -373.48419085 345.06795426 -373.72509766 349.54663086 C-373.78407227 350.5235791 -373.78407227 350.5235791 -373.84423828 351.52026367 C-374.74906336 368.47423184 -372.48590303 386.22407452 -362.72509766 400.54663086 C-362.38478516 399.30010742 -362.04447266 398.05358398 -361.69384766 396.76928711 C-352.9670177 365.74566715 -338.53424849 344.23212136 -310.72509766 327.54663086 C-309.75572266 326.90725586 -308.78634766 326.26788086 -307.78759766 325.60913086 C-301.89979912 323.56642524 -295.42434791 323.46080383 -289.62744141 325.79272461 C-268.29243171 338.68561741 -261.06096218 372.66766248 -254.57568359 394.69702148 C-253.85510392 397.11108747 -253.10710547 399.51080659 -252.32666016 401.90600586 C-228.85873577 473.9540285 -228.85873577 473.9540285 -240.72509766 500.54663086 C-248.18668749 513.26624159 -265.21524304 515.29789651 -278.37207031 518.8996582 C-281.49659453 519.75875648 -284.61109093 520.65023874 -287.72509766 521.54663086 C-285.39025485 523.95930176 -283.07938035 526.25530433 -280.48291016 528.39038086 C-264.51283928 541.72364876 -252.29844 566.93628344 -249.72509766 587.54663086 C-249.50929493 591.44302753 -249.44870269 595.33238031 -249.41259766 599.23413086 C-249.3690918 600.77230469 -249.3690918 600.77230469 -249.32470703 602.34155273 C-249.21604038 615.573807 -254.54163806 626.49406134 -263.30712891 636.32006836 C-265.0298465 637.89886272 -266.80126284 639.21801565 -268.72509766 640.54663086 C-270.09988281 641.50375977 -270.09988281 641.50375977 -271.50244141 642.48022461 C-290.13996024 654.91262421 -310.44817419 664.47416119 -330.59155273 674.16503906 C-339.99494838 678.69702568 -349.30870227 683.35003543 -358.51420593 688.27371216 C-371.3815224 695.14490309 -385.54344135 700.45091806 -400.28759766 696.60913086 C-406.1629436 694.39142425 -410.3522302 689.90612563 -414.72509766 685.54663086 C-415.23814453 685.08015137 -415.75119141 684.61367187 -416.27978516 684.13305664 C-422.00238606 678.77632156 -426.18820671 672.44184003 -430.47509766 665.92163086 C-430.86972198 665.32438202 -431.26434631 664.72713318 -431.67092896 664.11178589 C-449.62187185 636.86063474 -460.32506609 607.11639146 -470.73126221 576.39259338 C-474.14343982 566.3401836 -477.75096253 556.35687722 -481.34912109 546.36987305 C-482.59373397 542.91447332 -483.83201529 539.4568261 -485.06976318 535.9989624 C-496.8495476 502.61682952 -496.8495476 502.61682952 -510.38134766 469.92626953 C-512.84144855 464.43338122 -514.8417051 458.83659508 -516.77978516 453.14428711 C-517.47992318 450.65091645 -517.47992318 450.65091645 -518.72509766 449.54663086 C-519.15177734 450.17827148 -519.57845703 450.80991211 -520.01806641 451.46069336 C-524.15396775 457.37886971 -528.58367265 462.8049768 -533.47509766 468.10913086 C-534.02963623 468.71644043 -534.5841748 469.32375 -535.15551758 469.94946289 C-535.68894775 470.51906738 -536.22237793 471.08867188 -536.77197266 471.67553711 C-537.48111816 472.43459351 -537.48111816 472.43459351 -538.20458984 473.20898438 C-542.13847251 476.66976522 -545.99989586 477.10315096 -551.08056641 476.98413086 C-555.84280615 476.19628618 -559.03504459 473.51252675 -562.72509766 470.54663086 C-563.56298828 469.90854492 -564.40087891 469.27045898 -565.26416016 468.61303711 C-569.81937636 465.0830886 -574.02457195 461.39659211 -578.02197266 457.24975586 C-579.80401313 455.46771538 -581.67313661 453.85763347 -583.60009766 452.23413086 C-587.63892663 448.76558141 -591.06418153 444.87694307 -594.57275391 440.88256836 C-596.37901616 438.92223292 -598.15029871 437.26705334 -600.22509766 435.60913086 C-604.54710155 432.03535543 -607.8820876 427.71976302 -611.33105469 423.32055664 C-612.90868637 421.31301342 -614.50286668 419.31908265 -616.09619141 417.32397461 C-627.10410426 403.4568442 -636.20508088 389.57527947 -643.72509766 373.54663086 C-644.08555176 372.78705078 -644.44600586 372.0274707 -644.81738281 371.24487305 C-653.54856505 352.7422626 -657.73105651 333.64308738 -650.59912109 313.62670898 C-644.43285072 298.95167446 -633.53638298 285.43472155 -622.84619141 273.85522461 C-620.8951142 271.73167649 -619.02541483 269.55987405 -617.16259766 267.35913086 C-614.24554767 263.99744969 -611.052123 261.17472831 -607.66650391 258.29663086 C-605.8263201 256.63787362 -604.25732844 254.9390991 -602.66259766 253.04663086 C-595.18105873 244.23772212 -586.75613204 235.95790951 -577.88134766 228.56225586 C-575.93761077 226.74528442 -574.16756863 224.87558064 -572.38134766 222.90600586 C-571.7704126 222.23375977 -571.15947754 221.56151367 -570.5300293 220.86889648 C-569.31261021 219.5179417 -568.10548155 218.15762016 -566.91040039 216.78686523 C-563.132038 212.58761247 -560.05441743 210.64711194 -554.72509766 208.54663086 C-551.78434218 206.71319911 -549.01075365 204.66855465 -546.22509766 202.60913086 C-545.44118652 202.03718994 -544.65727539 201.46524902 -543.84960938 200.87597656 C-538.09834788 196.64717626 -532.52708254 192.22288681 -526.98876953 187.72119141 C-521.47653763 183.27247686 -515.68431727 179.37379086 -509.72509766 175.54663086 C-502.40169804 170.78996632 -495.16171339 166.0016183 -488.28759766 160.60913086 C-476.38391772 151.28854765 -463.66135078 143.13261472 -450.96972656 134.93652344 C-446.39478343 131.97553853 -441.89005104 128.96566464 -437.46728516 125.78100586 C-433.68721771 123.10915842 -430.02413302 121.29579491 -425.72509766 119.54663086 C-422.223137 117.64345625 -418.79458331 115.61402005 -415.35009766 113.60913086 C-397.55095743 103.43697004 -379.31842173 95.00134221 -360.17431641 87.69067383 C-351.19988409 84.22722795 -342.57548382 80.26033917 -333.94116211 76.02929688 C-314.84170374 66.67541692 -295.26076009 58.62725035 -275.42431641 50.98217773 C-272.25538024 49.75241634 -269.09402805 48.50637386 -265.93597412 47.24911499 C-249.08085537 40.53922794 -232.17474727 34.56300145 -214.72509766 29.54663086 C-213.6390625 29.22823242 -212.55302734 28.90983398 -211.43408203 28.58178711 C-200.22595748 25.29653341 -189.12092994 22.20254902 -177.59594727 20.2722168 C-173.91509468 19.58224556 -170.36933175 18.70542153 -166.76025391 17.71069336 C-158.80022074 15.54585427 -150.8048186 13.55027397 -142.78759766 11.60913086 C-141.72333557 11.35108673 -141.72333557 11.35108673 -140.63757324 11.08782959 C-131.2763372 8.82355478 -121.90286093 6.6445639 -112.47509766 4.67163086 C-111.11396851 4.38557983 -111.11396851 4.38557983 -109.7253418 4.09375 C-98.14250133 1.72835344 -86.48982016 0.16758969 -74.72509766 -0.95336914 C-74.07010284 -1.01584839 -73.41510803 -1.07832764 -72.74026489 -1.1427002 C-59.40273767 -2.39154049 -46.04262463 -3.092591 -32.66259766 -3.70336914 C-31.67171143 -3.75033936 -30.6808252 -3.79730957 -29.65991211 -3.84570312 C-26.81603783 -3.97815754 -23.97192909 -4.10052207 -21.12744141 -4.21899414 C-19.85742531 -4.27805939 -19.85742531 -4.27805939 -18.56175232 -4.33831787 C-5.14566979 -4.85185051 -5.14566979 -4.85185051 0 0 Z " fill="#260742" transform="translate(953.72509765625,445.453369140625)"/>
<path d="M0 0 C4.32527664 1.2852716 8.66475182 2.48274707 13.0324707 3.6159668 C35.79838799 9.52783717 57.58610096 17.16174589 79.2019043 26.40795898 C83.93954345 28.42629275 88.69572173 30.40001042 93.45043945 32.37768555 C96.29849198 33.56374824 99.14645519 34.75002521 101.99441528 35.93630981 C103.85375265 36.71043657 105.7133414 37.48395988 107.57321167 38.25680542 C141.55687993 52.38805816 141.55687993 52.38805816 157.6496582 60.93237305 C158.60235596 61.43357666 159.55505371 61.93478027 160.53662109 62.45117188 C168.36110183 66.60013291 176.03759116 70.98067834 183.6652832 75.47924805 C186.5028438 77.14912896 189.3589137 78.76435562 192.2590332 80.32299805 C201.53440041 85.32035244 209.87174354 91.04594915 218.15991211 97.54760742 C220.03597099 99.01727402 221.92470463 100.46889527 223.81762695 101.91674805 C230.35510464 106.94598412 236.58251548 112.17019371 242.63012695 117.78393555 C244.80815473 119.79921721 247.02325107 121.75009741 249.2746582 123.68237305 C266.48923932 138.76695528 280.65593927 157.76911655 282.24243164 181.36694336 C283.66103946 211.1342596 272.8563877 235.54702735 254.0871582 258.05737305 C253.66208984 258.56896973 253.23702148 259.08056641 252.79907227 259.60766602 C236.44593781 279.00624877 212.15373679 295.82483067 189.0871582 306.05737305 C188.4271582 306.05737305 187.7671582 306.05737305 187.0871582 306.05737305 C187.0871582 306.71737305 187.0871582 307.37737305 187.0871582 308.05737305 C187.64918945 308.18112305 188.2112207 308.30487305 188.7902832 308.43237305 C211.0091104 313.88484598 230.6789752 324.42688919 248.0871582 339.05737305 C248.72073242 339.57879883 249.35430664 340.10022461 250.00708008 340.63745117 C271.61670904 358.43487602 287.85287275 383.79498201 291.8762207 412.0925293 C292.68024483 423.39353504 293.0713121 434.30167241 289.0871582 445.05737305 C288.69657227 446.24073242 288.30598633 447.4240918 287.90356445 448.64331055 C282.50941866 464.51649149 274.25259596 478.47332826 263.53881836 491.30688477 C261.47403965 493.79670369 259.46374864 496.32871079 257.44970703 498.85961914 C255.92417202 500.77656957 254.39343267 502.68922693 252.8605957 504.6003418 C252.38460938 505.19379395 251.90862305 505.78724609 251.41821289 506.39868164 C250.25862463 507.84370047 249.09870169 509.28845071 247.9387207 510.7331543 C245.10952151 514.26099248 242.28865367 517.79414254 239.50512695 521.3581543 C234.25000661 528.08541422 228.91754793 534.71827391 223.4230957 541.25268555 C221.24744537 543.86492123 219.12892242 546.51253584 217.0246582 549.18237305 C209.92387124 558.03365222 202.70944644 565.41492771 193.6965332 572.2644043 C190.76192549 574.5030235 187.96203164 576.85519724 185.1862793 579.28662109 C165.59843403 596.38337093 139.93096938 608.07037852 113.59887695 608.2253418 C112.55494781 608.23176193 112.55494781 608.23176193 111.4899292 608.23831177 C109.25143912 608.24825299 107.01316608 608.24837263 104.7746582 608.24487305 C104.00783722 608.24393646 103.24101624 608.24299988 102.45095825 608.24203491 C91.21433973 608.21221319 80.17580766 608.00819687 69.0871582 606.05737305 C67.64421387 605.80745605 67.64421387 605.80745605 66.17211914 605.55249023 C28.50317931 598.86836024 28.50317931 598.86836024 19.0871582 588.05737305 C17.78897409 584.16282071 17.23415237 581.06650046 18.0871582 577.05737305 C19.93685499 573.50158947 22.26814963 570.32454099 24.62231445 567.08666992 C37.1552158 549.89310811 37.1552158 549.89310811 47.1472168 531.18188477 C48.31757605 528.53656886 49.52696154 525.90986732 50.73168945 523.2800293 C66.69405456 488.08898362 80.04410871 445.11503051 66.0871582 407.05737305 C63.75026716 400.89238142 61.03868102 394.95029339 58.0871582 389.05737305 C57.49644531 387.87401367 57.49644531 387.87401367 56.89379883 386.66674805 C49.74712934 372.57792426 42.70759647 363.02599316 28.0871582 356.05737305 C25.17931955 362.18398028 22.9522611 368.2742616 21.1496582 374.80737305 C20.77006958 376.16439331 20.77006958 376.16439331 20.3828125 377.54882812 C18.62281591 383.92282515 16.96361405 390.32003862 15.3996582 396.74487305 C15.20960205 397.51347656 15.0195459 398.28208008 14.82373047 399.07397461 C11.4944114 413.14494957 9.6573394 427.59952493 7.46847534 441.88201904 C7.07588131 444.44344767 6.68126707 447.00456063 6.28662109 449.56567383 C5.08726578 457.37038434 3.91034991 465.17496861 2.85351562 473.00048828 C-0.79496229 499.98080641 -6.90863938 526.92918514 -15.21459961 552.85620117 C-15.88633901 554.97382439 -16.52228229 557.09971304 -17.1550293 559.22924805 C-20.33800814 569.2566716 -20.33800814 569.2566716 -24.2878418 572.43237305 C-29.93717767 574.96483396 -34.14070551 574.50963106 -39.8269043 572.36987305 C-41.73332226 571.60592146 -43.636798 570.83460145 -45.5378418 570.05737305 C-54.46723837 566.55391097 -63.38745718 563.68127327 -72.6628418 561.24487305 C-84.20054835 558.19001282 -95.52894913 554.70163127 -106.8503418 550.93237305 C-107.97841248 550.56032242 -107.97841248 550.56032242 -109.12927246 550.18075562 C-116.7365878 547.66566911 -124.29382429 545.03570045 -131.71362305 542.0065918 C-132.809729 541.5614624 -133.90583496 541.11633301 -135.03515625 540.65771484 C-141.36623416 537.13686851 -144.55717095 530.68548946 -146.9128418 524.05737305 C-148.44130225 514.05307725 -145.032937 505.70595346 -141.2878418 496.68237305 C-140.75864849 495.36280078 -140.23129613 494.0424887 -139.70581055 492.72143555 C-137.18639529 486.42796294 -134.54192432 480.19935563 -131.8190918 473.9909668 C-128.78960888 466.95359606 -126.35000304 459.79536912 -124.0378418 452.49487305 C-123.82629456 451.83262726 -123.61474731 451.17038147 -123.39678955 450.48806763 C-119.2003892 437.33860394 -115.4562172 424.07886788 -111.90258789 410.74145508 C-111.04820043 407.56121167 -110.17633534 404.38690295 -109.29367065 401.21446228 C-105.31495507 386.90686122 -101.84525856 372.79389475 -99.9128418 358.05737305 C-99.56791195 356.03494263 -99.21469705 354.01389426 -98.8503418 351.99487305 C-97.88772421 346.32258926 -97.26856537 340.62389554 -96.69775391 334.90087891 C-96.26152221 330.67216093 -95.67159833 326.50168918 -94.9519043 322.3112793 C-91.38870077 301.31878803 -90.58763528 280.37112377 -90.4753418 259.11987305 C-90.46339783 258.05638641 -90.45145386 256.99289978 -90.43914795 255.89718628 C-90.24488542 235.86246292 -92.64041777 216.53109371 -98.1628418 197.24487305 C-98.69195272 195.34338068 -99.21814505 193.441073 -99.7409668 191.5378418 C-99.966875 190.74273193 -100.1927832 189.94762207 -100.42553711 189.12841797 C-100.9128418 187.05737305 -100.9128418 187.05737305 -100.9128418 184.05737305 C-101.49549805 183.91041992 -102.0781543 183.7634668 -102.6784668 183.61206055 C-113.13145099 180.75228185 -124.27118321 176.88522547 -129.9128418 167.05737305 C-139.97587399 145.56564968 -141.14202185 123.10215398 -141.1628418 99.74487305 C-141.16418121 98.85251953 -141.16552063 97.96016602 -141.16690063 97.04077148 C-141.16136556 79.89655956 -140.10006504 63.06567439 -137.9128418 46.05737305 C-137.79537598 45.14052734 -137.67791016 44.22368164 -137.55688477 43.27905273 C-135.0984374 25.10729767 -129.29539021 8.30421586 -114.78393555 -3.7043457 C-109.24095699 -7.64095123 -103.36474997 -9.9067352 -96.9128418 -11.94262695 C-95.7165918 -12.33450195 -94.5203418 -12.72637695 -93.2878418 -13.13012695 C-63.05942145 -20.40733926 -28.76129977 -8.62872425 0 0 Z " fill="#260742" transform="translate(1280.912841796875,491.942626953125)"/>
<path d="M0 0 C2.15688128 0.02344699 4.31250692 0.02056195 6.46948242 0.01391602 C31.58910858 0.06443031 56.93299944 6.19724572 75.9909668 23.33618164 C77.82076098 24.79895315 79.65424892 26.25711332 81.4909668 27.71118164 C86.16996624 31.53885396 90.41763851 35.65556281 94.63549805 39.98071289 C96.80404828 42.14926312 99.03278832 44.16052032 101.3659668 46.14868164 C104.3039481 48.65857385 106.58359308 51.30755019 108.9909668 54.33618164 C110.08114544 55.26944063 111.18696414 56.18458105 112.3034668 57.08618164 C116.57437351 60.65589472 119.73217882 64.84986815 122.9909668 69.33618164 C123.82241211 70.4615332 123.82241211 70.4615332 124.6706543 71.60961914 C129.92198885 78.89372835 134.48825886 86.57736063 138.9909668 94.33618164 C139.39750488 95.03275879 139.80404297 95.72933594 140.22290039 96.44702148 C146.97197807 108.07380567 152.67667919 119.99467885 157.9909668 132.33618164 C158.5456665 133.6186377 158.5456665 133.6186377 159.11157227 134.92700195 C161.37980765 140.17592497 163.62724876 145.43349798 165.8659668 150.69506836 C167.36009831 154.20277555 168.86216969 157.70705056 170.36523438 161.2109375 C171.11862006 162.9678571 171.87105445 164.72518492 172.62255859 166.48291016 C174.44369984 170.74089498 176.27525021 174.99356029 178.13549805 179.23461914 C182.61312485 189.48557395 186.78837801 199.83374317 190.8034668 210.27368164 C191.0563446 210.93082153 191.30922241 211.58796143 191.56976318 212.26501465 C192.08434643 213.60225426 192.5989032 214.93950406 193.11343384 216.27676392 C200.73001389 236.06932799 208.56482152 255.69110356 217.34399414 275.00024414 C220.56496816 282.09898026 223.64984292 289.22705575 226.5534668 296.46118164 C230.24431878 305.64639896 234.20908383 314.69082742 238.25976562 323.72265625 C241.00523916 329.85058096 243.71825262 335.98972995 246.3659668 342.16040039 C246.78568504 343.13843628 246.78568504 343.13843628 247.21388245 344.13623047 C247.49295944 344.78664307 247.77203644 345.43705566 248.05957031 346.10717773 C253.03482629 357.70187223 258.16193062 369.14192507 263.9909668 380.33618164 C265.29285603 382.89358408 266.58056705 385.45795903 267.8659668 388.02368164 C268.19556396 388.67771973 268.52516113 389.33175781 268.86474609 390.00561523 C270.71505576 393.69912654 272.50082949 397.41420784 274.2253418 401.16821289 C283.14056606 420.50673691 293.77913548 438.88937763 305.9909668 456.33618164 C306.46244141 457.01197266 306.93391602 457.68776367 307.41967773 458.3840332 C311.80579097 464.65928564 316.2197152 470.91449841 320.72924805 477.10180664 C335.8522373 497.88814918 335.8522373 497.88814918 334.9909668 505.33618164 C333.8894043 507.93383789 333.8894043 507.93383789 332.3659668 510.39868164 C331.87870117 511.2146582 331.39143555 512.03063477 330.8894043 512.87133789 C326.22002607 518.93384337 320.81179682 521.61868911 313.8659668 524.39868164 C312.60345093 524.91519287 312.60345093 524.91519287 311.31542969 525.44213867 C296.74870126 531.33696542 283.83329016 534.69425958 268.0534668 534.71118164 C266.8552832 534.73567383 265.65709961 534.76016602 264.42260742 534.78540039 C253.09601714 534.82243556 242.59215898 532.02049547 233.9909668 524.33618164 C211.75933631 499.71440531 198.08415562 467.15686266 183.7175293 437.67602539 C171.67010115 413.03804733 153.33958114 378.87810509 126.2175293 369.02758789 C124.1543587 368.38691913 122.09356185 367.83062751 119.9909668 367.33618164 C111.67025018 396.54453515 127.7603348 435.2287199 141.57666016 460.56713867 C142.56417448 462.33177897 143.56005626 464.09176889 144.56518555 465.84643555 C145.93472904 468.23797743 147.26300751 470.64843074 148.5847168 473.06665039 C153.78745415 482.42667709 159.78461797 490.43448336 166.9909668 498.33618164 C176.54905285 508.88614455 176.54905285 508.88614455 179.5534668 512.64868164 C180.02913086 513.24293945 180.50479492 513.83719727 180.99487305 514.44946289 C182.31227897 516.94478469 182.37598149 518.55256968 181.9909668 521.33618164 C180.35048492 523.54317748 179.46525537 524.25831718 176.72460938 524.70825195 C169.50301033 524.58856796 162.7290831 523.62947629 155.6784668 522.08618164 C153.90971191 521.70333008 153.90971191 521.70333008 152.10522461 521.31274414 C141.31966861 518.85506548 130.78181793 515.67851347 120.2409668 512.33618164 C119.44902924 512.0854187 118.65709167 511.83465576 117.84115601 511.57629395 C103.0732059 506.87284434 88.49251022 501.85485212 74.5534668 495.02368164 C73.08526489 494.31211914 73.08526489 494.31211914 71.58740234 493.58618164 C63.68339838 489.73075903 55.8788814 485.71340825 48.15698242 481.50610352 C45.82552384 480.24682156 43.47944525 479.01772721 41.1315918 477.78930664 C29.33078035 471.54798858 18.58642834 464.44453536 7.9909668 456.33618164 C6.99967773 455.60141602 6.00838867 454.86665039 4.98706055 454.10961914 C-2.45056064 448.36790859 -8.65186356 441.50788322 -15.00512695 434.62524414 C-18.55087637 430.79443927 -22.2162367 427.11109577 -25.9465332 423.46118164 C-30.63567863 418.84671546 -34.88576448 414.03580897 -38.9699707 408.86743164 C-40.87452646 406.50315552 -42.87219614 404.30101165 -44.9465332 402.08618164 C-49.74745101 396.72155528 -53.5373686 390.74200715 -57.44262695 384.72094727 C-59.21899078 382.01653302 -61.0334052 379.33996724 -62.8527832 376.66430664 C-70.47071772 365.43117303 -77.61484108 354.16043248 -83.99780273 342.18334961 C-85.40561276 339.61176809 -86.96225477 337.13853052 -88.5090332 334.64868164 C-99.26835087 316.11456565 -105.60220824 295.4498335 -112.09490967 275.14381409 C-113.17502068 271.78753088 -114.32405734 268.48414526 -115.59863281 265.19628906 C-116.78841392 262.06090715 -117.59742127 259.046409 -118.1418457 255.72680664 C-118.30813477 254.72391602 -118.47442383 253.72102539 -118.64575195 252.68774414 C-118.80688477 251.66422852 -118.96801758 250.64071289 -119.1340332 249.58618164 C-119.30290039 248.57813477 -119.47176758 247.57008789 -119.64575195 246.53149414 C-121.87525588 232.80336757 -122.19542612 219.27317119 -122.19433594 205.39404297 C-122.19651118 202.30495175 -122.21468847 199.2162251 -122.23364258 196.12719727 C-122.27872074 180.43497077 -121.52028908 164.85576809 -118.2590332 149.46118164 C-118.08839355 148.64061279 -117.91775391 147.82004395 -117.74194336 146.97460938 C-110.61207037 113.82667823 -99.11148907 81.74348867 -80.38110352 53.41918945 C-79.16135096 51.56742277 -77.96637592 49.70315902 -76.7824707 47.82836914 C-65.6012567 30.41062143 -50.57498401 17.75947952 -32.4465332 8.08618164 C-31.65512939 7.66151611 -30.86372559 7.23685059 -30.04833984 6.79931641 C-27.72490422 5.58739273 -25.38443001 4.44254811 -23.0090332 3.33618164 C-22.34105713 3.02205322 -21.67308105 2.7079248 -20.98486328 2.38427734 C-14.21558593 -0.33614661 -7.17423799 -0.08309305 0 0 Z " fill="#260742" transform="translate(324.009033203125,982.663818359375)"/>
<path d="M0 0 C2.19607705 0.01079636 4.39134872 0.00000146 6.58740234 -0.01269531 C21.36447761 -0.03193521 33.03114771 3.9335248 45.81005859 11.32324219 C46.63151367 11.79785889 47.45296875 12.27247559 48.29931641 12.76147461 C55.62813696 17.13301392 61.38990095 22.27380436 67.43505859 28.26074219 C68.65377852 29.23232606 69.88143832 30.19294107 71.12255859 31.13574219 C76.30413901 35.55752355 79.76482283 41.59318337 83.43505859 47.26074219 C83.91168945 47.99083496 84.38832031 48.72092773 84.87939453 49.47314453 C97.94623041 69.55299245 107.46428443 89.68449493 114.99755859 112.38574219 C115.35515259 113.46024628 115.35515259 113.46024628 115.7199707 114.55645752 C120.68316087 129.53207328 124.5932019 144.49986798 127.18505859 160.07324219 C127.35908203 161.11134033 127.35908203 161.11134033 127.53662109 162.17041016 C129.52241164 175.2505945 129.62169079 188.56644374 129.62036133 201.76928711 C129.6225539 204.19304845 129.64082662 206.61635706 129.65966797 209.04003906 C129.69759095 219.59264315 128.91534229 229.81594323 127.43505859 240.26074219 C127.30929443 241.18685303 127.18353027 242.11296387 127.05395508 243.06713867 C126.74968586 245.22044587 126.41346928 247.36503447 126.06005859 249.51074219 C125.95951172 250.18363281 125.85896484 250.85652344 125.75537109 251.54980469 C123.69520817 264.14489166 118.779742 276.32899199 114.59130859 288.3425293 C113.69343674 290.92415275 112.80638727 293.50933526 111.91943359 296.09472656 C106.55344716 311.59183049 100.39300935 326.56511446 92.12255859 340.76074219 C91.56624756 341.72794189 91.00993652 342.6951416 90.43676758 343.69165039 C88.78183098 346.55541025 87.11160651 349.40959156 85.43505859 352.26074219 C84.96165039 353.07075684 84.48824219 353.88077148 84.00048828 354.71533203 C77.22697878 366.2527626 69.75588257 377.23430861 61.97119141 388.11083984 C60.66492578 389.93903042 59.37080284 391.77466305 58.08349609 393.61621094 C53.62007528 399.92012599 48.66954992 405.58925158 43.43505859 411.26074219 C42.26320439 412.58951855 41.09620964 413.92260276 39.93505859 415.26074219 C8.1774529 451.65378979 8.1774529 451.65378979 -11.83691406 464.17773438 C-13.39591991 465.15481122 -14.92588414 466.17785921 -16.45166016 467.20605469 C-22.39797365 471.17026368 -28.6422672 474.49872245 -34.9753418 477.79150391 C-39.08987637 479.93277346 -43.13566734 482.14813483 -47.13964844 484.48901367 C-54.84382925 488.97319021 -62.78908443 492.82931893 -70.87744141 496.57324219 C-71.96275146 497.07702393 -73.04806152 497.58080566 -74.16625977 498.09985352 C-83.33895625 502.29038643 -92.52027095 505.89559318 -102.31494141 508.32324219 C-106.00730445 509.23847686 -109.39638186 510.1876535 -112.88916016 511.70214844 C-117.38367247 513.60789808 -121.9168778 514.87987153 -126.62744141 516.13574219 C-128.05805908 516.51883545 -128.05805908 516.51883545 -129.51757812 516.90966797 C-163.51101397 525.9021985 -163.51101397 525.9021985 -172.56494141 524.26074219 C-174.56494141 522.26074219 -174.56494141 522.26074219 -175.02197266 519.05371094 C-174.42601374 514.10776132 -172.5770767 512.1071839 -169.25244141 508.57324219 C-168.70845703 507.96367676 -168.16447266 507.35411133 -167.60400391 506.72607422 C-165.04924499 503.88012613 -162.43135045 501.10713455 -159.74072266 498.38964844 C-152.01799358 490.44143822 -146.52211304 481.71857181 -141.12841797 472.05615234 C-140.08685215 470.19388991 -139.03147467 468.33928486 -137.96240234 466.49267578 C-130.35334571 453.30837231 -124.71371336 439.98194636 -119.93994141 425.57324219 C-119.68768799 424.81446777 -119.43543457 424.05569336 -119.17553711 423.27392578 C-115.07218317 410.81388954 -110.94962443 398.1370131 -111.25244141 384.88574219 C-111.24921875 384.15742187 -111.24599609 383.42910156 -111.24267578 382.67871094 C-111.29252435 377.59415737 -112.179491 373.15121654 -113.56494141 368.26074219 C-127.58410226 369.42900559 -136.87197251 379.80253623 -145.85400391 389.81152344 C-161.76251523 408.61974669 -173.75235245 429.81252568 -184.19213867 452.06274414 C-217.72245639 523.32741334 -217.72245639 523.32741334 -243.56494141 533.26074219 C-257.94784318 537.65753691 -277.61320967 535.1986182 -291.56494141 530.26074219 C-292.34724121 529.9980957 -293.12954102 529.73544922 -293.93554688 529.46484375 C-307.42185421 524.92345656 -318.62603536 520.76299186 -326.43994141 508.26074219 C-328.08445828 503.87536386 -328.60903103 500.59562615 -326.63916016 496.19042969 C-321.20311995 486.72947476 -314.36602113 477.97070325 -308.02246094 469.10498047 C-290.49093528 444.57213699 -275.52496314 419.16820442 -262.76708984 391.81152344 C-261.00742412 388.07777293 -259.17072685 384.38494872 -257.31494141 380.69824219 C-256.99130615 380.05218018 -256.6676709 379.40611816 -256.33422852 378.74047852 C-254.87941407 375.84315014 -253.40681682 372.95825915 -251.90478516 370.08496094 C-247.479265 361.51640064 -243.74659649 352.72245309 -240.03222656 343.8269043 C-236.53229154 335.47014545 -232.86833918 327.19961614 -229.12744141 318.94824219 C-224.18993259 308.04717048 -219.53067214 297.05495696 -215.0078125 285.97387695 C-211.75248727 278.03081938 -208.30792614 270.19821839 -204.75244141 262.38574219 C-197.86759085 247.17893427 -192.06018217 231.56940123 -186.13304138 215.97209167 C-181.2162787 203.06058474 -175.96163897 190.29145454 -170.36987305 177.65795898 C-167.50767654 171.18147382 -164.75625801 164.65890857 -162.00244141 158.13574219 C-161.52049316 156.99540527 -161.03854492 155.85506836 -160.54199219 154.68017578 C-158.66141387 150.22958165 -156.78160706 145.77870767 -154.91259766 141.32324219 C-147.97599841 124.916677 -140.95638008 108.43008001 -131.56494141 93.26074219 C-131.06623535 92.43864258 -130.5675293 91.61654297 -130.05371094 90.76953125 C-119.49192518 73.39577914 -107.76596815 59.33191044 -93.50244141 44.94824219 C-92.74184418 44.17906464 -92.74184418 44.17906464 -91.96588135 43.39434814 C-85.17176768 36.54640231 -78.1503257 30.24183986 -70.56494141 24.26074219 C-69.51872348 23.40606239 -68.47300437 22.5507708 -67.42822266 21.69433594 C-47.75486873 6.29910798 -24.76252032 -0.14484264 0 0 Z " fill="#260742" transform="translate(1655.56494140625,982.7392578125)"/>
<path d="M0 0 C16.9236629 1.91073613 30.55374278 18.92261172 40.5546875 31.44921875 C41.32039063 32.43535156 42.08609375 33.42148437 42.875 34.4375 C43.7722897 35.56992084 44.67077575 36.70139452 45.5703125 37.83203125 C48.36096833 41.34987791 51.12166643 44.89040347 53.875 48.4375 C54.66390625 49.45199219 55.4528125 50.46648438 56.265625 51.51171875 C58.32883558 54.17954568 60.38225976 56.85409302 62.42626953 59.53662109 C63.45950571 60.89233003 64.49453295 62.24667471 65.53076172 63.60009766 C75.44701388 76.57211332 84.8806759 89.80943793 93.875 103.4375 C94.43429199 104.27829102 94.99358398 105.11908203 95.56982422 105.98535156 C112.34084323 131.38331506 128.38878987 162.0354153 132.875 192.4375 C133.04555908 193.55463379 133.21611816 194.67176758 133.3918457 195.82275391 C134.1056173 201.61341828 134.03741641 207.41171201 134.04296875 213.23828125 C134.04629715 214.46927048 134.04962555 215.7002597 134.05305481 216.96855164 C134.05810512 219.57155994 134.06046372 222.17457469 134.06030273 224.77758789 C134.0624717 228.69884382 134.08059956 232.61981003 134.09960938 236.54101562 C134.13100637 250.30733856 133.81657744 263.79925162 131.875 277.4375 C131.673302 278.89651733 131.673302 278.89651733 131.4675293 280.38500977 C126.92697117 309.51005693 115.04229019 341.04508905 102.3125 367.625 C101.89758301 368.49374756 101.48266602 369.36249512 101.05517578 370.25756836 C96.45862921 379.63678037 90.9915607 388.44356026 85.3203125 397.20361328 C84.08364744 399.11501283 82.86580883 401.03625676 81.65625 402.96484375 C74.17004507 414.63902807 64.96346088 424.54566401 55.26959229 434.39337158 C54.31140243 435.3676965 53.35618796 436.34495809 52.40423584 437.32537842 C36.17286779 453.99015511 20.23590918 457.2619572 -2.28417969 458.09619141 C-3.50669434 458.14332275 -3.50669434 458.14332275 -4.75390625 458.19140625 C-5.47650635 458.21533447 -6.19910645 458.2392627 -6.94360352 458.26391602 C-9.14538292 458.38686899 -9.14538292 458.38686899 -11.33276367 458.9375 C-15.27878855 459.64410654 -19.17004153 459.63461531 -23.171875 459.68359375 C-25.04451747 459.71542952 -26.91715733 459.74741921 -28.78979492 459.77954102 C-29.7801474 459.79493927 -30.77049988 459.81033752 -31.79086304 459.82620239 C-52.31892672 460.15100003 -72.8168001 460.82979022 -93.32519531 461.77709961 C-110.08417566 462.5366757 -126.86554527 463.27866353 -143.5625 461.25 C-144.66940186 461.1169043 -145.77630371 460.98380859 -146.91674805 460.84667969 C-154.98526952 459.78254187 -161.83653352 458.16837935 -169.125 454.4375 C-170.18074219 453.94507813 -171.23648438 453.45265625 -172.32421875 452.9453125 C-181.06785957 448.62005586 -187.92940576 442.89631131 -195.125 436.4375 C-196.56154418 435.20721639 -197.99889433 433.97787242 -199.4375 432.75 C-236.77304112 399.80687549 -256.6527864 352.16606276 -260.00048828 302.92382812 C-260.69532938 289.04880506 -260.90130416 275.09564001 -258.125 261.4375 C-257.94759277 260.47263672 -257.94759277 260.47263672 -257.76660156 259.48828125 C-252.45021259 230.64720928 -241.10596555 196.19175683 -216.6875 178 C-205.05119547 170.18981068 -192.88829809 165.12628318 -179.27294922 161.94140625 C-177.30139856 161.47888288 -175.33948756 160.97576164 -173.37890625 160.46875 C-156.52898104 156.61733852 -138.49831932 157.63077093 -121.4375 159.5625 C-120.51251709 159.6548291 -119.58753418 159.7471582 -118.63452148 159.84228516 C-111.30421428 160.82020048 -106.3730263 163.72413901 -101.5078125 169.28637695 C-96.82073269 176.57766584 -96.66100486 186.21982508 -96.8125 194.625 C-96.82087891 195.68976563 -96.82925781 196.75453125 -96.83789062 197.8515625 C-96.9529771 205.88920218 -97.43670801 213.88620841 -97.98617554 221.9041748 C-98.85776844 234.67016551 -99.39210614 247.40811014 -99.47949219 260.20556641 C-99.49290576 261.95156631 -99.51313547 263.69753055 -99.54101562 265.44335938 C-99.82069525 284.35853409 -97.5965818 304.48355825 -83.89453125 318.8125 C-79.34805838 322.9876274 -75.88122623 324.66400377 -69.625 324.9375 C-64.68760138 324.70816728 -60.81383282 323.86731066 -57.125 320.4375 C-50.91437856 313.41798967 -47.44981725 305.09183379 -44.125 296.4375 C-43.83061035 295.69709473 -43.5362207 294.95668945 -43.23291016 294.19384766 C-32.94024125 268.11441366 -29.64310177 239.19690787 -40.98779297 212.90283203 C-43.30497054 207.87946167 -45.88604174 202.99897823 -48.5 198.125 C-49.02891846 197.13532227 -49.55783691 196.14564453 -50.1027832 195.12597656 C-57.16236825 182.27789616 -66.00970507 169.81004408 -77.71484375 160.7890625 C-79.99408798 158.6045237 -80.97846961 156.45750377 -81.42578125 153.34375 C-81.66249455 104.73861923 -58.96904204 49.13332163 -25.125 14.4375 C-16.91842019 6.54177549 -11.36389868 1.59094582 0 0 Z " fill="#260742" transform="translate(1023.125,560.5625)"/>
<path d="M0 0 C0.85490021 0.00182281 1.70980042 0.00364563 2.59060669 0.00552368 C21.52477061 0.07341819 38.93324911 1.83127155 56.8125 8.3125 C57.72 8.63089844 58.6275 8.94929688 59.5625 9.27734375 C66.65920272 11.92723435 73.23908831 15.57649302 79.8125 19.3125 C80.41787598 19.65442383 81.02325195 19.99634766 81.64697266 20.34863281 C93.57733415 27.13665075 104.78034615 34.65378586 114.2265625 44.71875 C115.92457804 46.53059773 115.92457804 46.53059773 118.8125 48.3125 C118.8125 48.9725 118.8125 49.6325 118.8125 50.3125 C119.8025 50.6425 120.7925 50.9725 121.8125 51.3125 C127.99765382 57.7968671 132.69123652 65.5222323 137.25 73.1875 C137.89888184 74.27522705 138.54776367 75.3629541 139.21630859 76.48364258 C144.8676196 86.11819136 149.65691855 95.951688 153.8125 106.3125 C154.07740234 106.96250977 154.34230469 107.61251953 154.61523438 108.28222656 C156.20727777 112.24144209 157.5772079 116.22876965 158.8125 120.3125 C159.13089844 121.34761719 159.44929688 122.38273437 159.77734375 123.44921875 C166.87576531 151.61392364 161.87625586 184.83134222 150.8125 211.3125 C150.44930664 212.18197266 150.08611328 213.05144531 149.71191406 213.94726562 C145.70904389 223.39116292 141.62380977 232.82019938 135.8125 241.3125 C134.90757812 242.64087891 134.90757812 242.64087891 133.984375 243.99609375 C129.99066381 249.66433345 125.67271725 254.8781553 120.96875 259.96875 C119.00477932 262.10350074 117.12336639 264.28602154 115.25 266.5 C111.74674616 270.50829958 107.89305023 273.90600158 103.8125 277.3125 C103.03519531 278.00085937 102.25789063 278.68921875 101.45703125 279.3984375 C72.42323715 304.43514345 27.89279293 318.95831155 -10.1875 316.3125 C-54.02659902 311.49899798 -95.17680717 289.54161864 -123.2421875 255.71875 C-125.67864221 252.66715079 -127.95732438 249.51837745 -130.1875 246.3125 C-131.115625 244.98412109 -131.115625 244.98412109 -132.0625 243.62890625 C-150.17049799 216.42648963 -159.32332565 186.25820875 -159.48266602 153.75927734 C-159.49412117 152.14232589 -159.51446915 150.52541029 -159.54418945 148.90869141 C-159.85216167 132.07172966 -156.81075742 117.70175548 -150 102.25 C-149.27925293 100.58312134 -149.27925293 100.58312134 -148.54394531 98.88256836 C-144.63849127 90.00366186 -140.26260357 81.57160391 -135.1875 73.3125 C-134.57132813 72.2915625 -133.95515625 71.270625 -133.3203125 70.21875 C-121.23080251 50.6606094 -104.30876349 34.47822253 -84.1875 23.3125 C-82.97174492 22.60964692 -81.75697866 21.90508191 -80.54296875 21.19921875 C-68.86662793 14.45206012 -57.26222074 8.23704461 -44.25 4.5 C-43.58371582 4.3050293 -42.91743164 4.11005859 -42.23095703 3.90917969 C-28.42074398 0.21647004 -14.19440303 -0.06296051 0 0 Z " fill="#260742" transform="translate(992.1875,1036.6875)"/>
<path d="M0 0 C1.03366699 -0.01844971 2.06733398 -0.03689941 3.13232422 -0.0559082 C10.97729146 0.00757054 19.16951241 1.08444112 25.3034668 6.38110352 C37.616776 19.46346048 37.30701742 36.54681126 37.25537109 53.47290039 C37.24999772 55.56338722 37.2553595 57.65366014 37.26171875 59.74414062 C37.26506308 66.49629979 37.07476161 73.15255542 36.37011719 79.86987305 C36.01413864 83.68955124 35.90625834 87.50834584 35.78417969 91.34155273 C34.87015018 120.02038263 34.87015018 120.02038263 25.9375 131.25 C17.73978546 137.80817163 8.34287159 139.90809604 -1.75 142 C-14.90721359 144.75813204 -26.5207117 148.13903914 -37.4375 156.1875 C-38.519104 156.97241821 -38.519104 156.97241821 -39.62255859 157.77319336 C-54.92876264 169.04344166 -65.95897172 181.92922486 -70.48461914 200.90014648 C-71.4274209 207.17900572 -71.21854896 213.60155628 -71.1875 219.9375 C-71.18476578 221.08042007 -71.18476578 221.08042007 -71.18197632 222.24642944 C-71.10354853 241.64057377 -69.77890805 261.57420116 -55.875 276.5 C-55.36839844 277.05945312 -54.86179687 277.61890625 -54.33984375 278.1953125 C-51.67001922 280.80106125 -50.04811426 281.48785163 -46.3125 281.75 C-42.42826775 280.33755191 -40.90968652 279.18114014 -38.75390625 275.73046875 C-36.53903984 270.10963 -37.12934529 264.38034665 -39.3125 258.875 C-40.66950789 256.63812826 -40.66950789 256.63812826 -41.875 255.5 C-43.60385597 255.44698568 -45.33314003 255.40767347 -47.0625 255.375 C-51.05621846 255.01851025 -53.4875325 254.68198576 -56.25 251.6875 C-59.1701439 247.62286166 -60.93849536 243.02614631 -62.69921875 238.3671875 C-63.7912972 235.46763465 -63.7912972 235.46763465 -65.5 232.9296875 C-68.59379544 227.46281032 -67.24865764 219.76785123 -65.75390625 213.8515625 C-61.10708435 201.41873236 -51.10634863 192.82108696 -40.3125 185.75 C-39.40846436 185.15364746 -38.50442871 184.55729492 -37.57299805 183.94287109 C7.0331955 155.08791683 7.0331955 155.08791683 27.875 155.0625 C28.94234375 155.04316406 30.0096875 155.02382812 31.109375 155.00390625 C35.72453532 155.76313599 38.00179404 158.18642015 40.96875 161.65625 C45.39194899 167.91549386 48.57548626 174.27160337 51.125 181.5 C51.49367188 182.51964844 51.86234375 183.53929687 52.2421875 184.58984375 C53.70947016 189.90392397 53.45362512 195.40535803 53.4375 200.875 C53.45361328 201.96039062 53.46972656 203.04578125 53.48632812 204.1640625 C53.49143473 212.62059301 52.33074612 219.86947783 47.4375 226.9375 C45.5586997 229.48822408 45.5586997 229.48822408 45.125 232.5 C45.98222656 232.93570312 46.83945312 233.37140625 47.72265625 233.8203125 C48.86605469 234.41585938 50.00945312 235.01140625 51.1875 235.625 C52.31285156 236.20507812 53.43820312 236.78515625 54.59765625 237.3828125 C61.78806509 241.47161363 66.66025154 247.0014517 71.3125 253.75 C71.83569824 254.50506836 72.35889648 255.26013672 72.89794922 256.03808594 C81.42192756 268.59888667 83.72525499 281.40127842 83.125 296.5 C83.15335938 297.28117187 83.18171875 298.06234375 83.2109375 298.8671875 C83.15708003 304.05545696 81.69994247 306.36915663 78 310 C77.17757812 310.74378906 76.35515625 311.48757813 75.5078125 312.25390625 C73.26953089 314.36376187 71.63132392 316.4265746 69.875 318.9375 C61.06244837 330.48154387 46.85147596 337.56766161 34.65087891 344.95556641 C32.37865277 346.34490553 30.12802972 347.76071732 27.88671875 349.19921875 C3.75967171 364.6810151 -22.78475098 377.32951552 -50.625 384.4375 C-51.44661621 384.64914795 -52.26823242 384.8607959 -53.11474609 385.07885742 C-60.89945242 386.96287506 -67.59050428 387.29903336 -74.875 383.5 C-83.27883608 378.29608612 -90.71025765 372.31705988 -97.875 365.5 C-98.52597656 364.94699219 -99.17695312 364.39398437 -99.84765625 363.82421875 C-107.62654992 356.87592564 -112.5764345 347.35831112 -117.875 338.5 C-118.27332031 337.84531738 -118.67164063 337.19063477 -119.08203125 336.51611328 C-124.57155956 327.45499699 -129.13783962 317.96259827 -133.625 308.375 C-134.16825928 307.21943604 -134.71151855 306.06387207 -135.27124023 304.87329102 C-140.95829597 292.54186578 -145.26728072 280.33405689 -147.875 267 C-148.12354736 265.76531982 -148.37209473 264.53063965 -148.62817383 263.25854492 C-151.15834899 250.47547773 -153.27978752 237.6302526 -155.33886719 224.76367188 C-155.81217692 221.88243121 -156.31868346 219.01133152 -156.8515625 216.140625 C-158.56634168 206.84911561 -159.24627229 197.95910028 -158.875 188.5 C-158.81998815 186.6367283 -158.76532644 184.77344624 -158.7109375 182.91015625 C-158.40618398 173.66043433 -157.98466807 164.59332286 -156.33984375 155.46875 C-155.81557854 152.12050162 -155.61771434 148.82111617 -155.4375 145.4375 C-155.08949059 139.83206269 -154.11228048 134.75134943 -152.6171875 129.34765625 C-151.91280657 126.64505782 -151.46574909 124.01102186 -151.0625 121.25 C-146.09791026 93.0088092 -125.94743887 68.82439767 -105.875 49.5 C-105.00875 48.63375 -104.1425 47.7675 -103.25 46.875 C-102.46625 46.09125 -101.6825 45.3075 -100.875 44.5 C-100.43671875 44.00371094 -99.9984375 43.50742188 -99.546875 42.99609375 C-88.95770136 31.47100829 -72.85328611 23.1835538 -58.90234375 16.48828125 C-57.33721191 15.72531718 -55.79107632 14.92330737 -54.25390625 14.10546875 C-46.38808061 9.97930523 -38.36884623 7.01054817 -29.875 4.5 C-29.24029785 4.30100098 -28.6055957 4.10200195 -27.95166016 3.89697266 C-18.66447696 1.03125351 -9.71523991 0.10109585 0 0 Z " fill="#260842" transform="translate(760.875,1091.5)"/>
<path d="M0 0 C1.01489502 0.00902344 2.02979004 0.01804687 3.07543945 0.02734375 C41.62473035 0.90270414 79.51116355 26.17565593 106.96484375 51.53125 C109.16721787 53.58240227 109.16721787 53.58240227 112.125 55.8125 C116.68127582 59.88406563 120.30057756 64.63823682 124.0625 69.4375 C125.16464844 70.79875 125.16464844 70.79875 126.2890625 72.1875 C145.52588031 96.65836364 156.80961141 126.14407314 154.0625 157.4375 C153.03132519 161.96270015 151.47125083 165.49255604 149.0625 169.4375 C148.5778125 170.32695313 148.093125 171.21640625 147.59375 172.1328125 C142.88996733 180.22608563 136.58862374 186.80863943 130.0625 193.4375 C129.42957031 194.10652344 128.79664063 194.77554687 128.14453125 195.46484375 C120.33648106 203.05848524 108.49189947 209.42197076 98.0625 212.4375 C98.56064209 213.22060547 98.56064209 213.22060547 99.06884766 214.01953125 C113.22438938 236.44842983 120.59779704 257.81873353 121.0625 284.4375 C121.10117188 286.00443604 121.10117188 286.00443604 121.140625 287.60302734 C121.45323303 301.24250651 121.46993992 314.17056958 118.0625 327.4375 C117.8459375 328.38753906 117.629375 329.33757812 117.40625 330.31640625 C116.73291573 333.06986244 115.93622392 335.7410072 115.0625 338.4375 C114.7221875 339.50484375 114.381875 340.5721875 114.03125 341.671875 C108.21667203 357.91014761 98.18477925 373.21503663 86.0625 385.4375 C84.53284484 387.26185936 83.0296155 389.1022654 81.546875 390.96484375 C77.796755 394.68535753 74.2854273 395.9188695 69.0625 396.0625 C61.14173042 395.84890621 55.55580936 392.69798337 49.0625 388.4375 C48.46679199 388.04675293 47.87108398 387.65600586 47.25732422 387.25341797 C44.73771534 385.58804869 42.22701622 383.91089626 39.73242188 382.20825195 C35.49450361 379.32775771 31.17094166 376.7282047 26.6875 374.25 C21.05746895 371.1002431 15.92716468 367.67931578 11.0625 363.4375 C10.20205078 362.84388672 10.20205078 362.84388672 9.32421875 362.23828125 C7.19463745 359.19884788 7.62551534 355.96190891 8.0625 352.4375 C8.83274536 349.0803405 9.86079812 345.83266896 10.9375 342.5625 C16.39187192 325.67743477 17.4462719 309.07273249 17.0625 291.4375 C17.04574219 290.41011719 17.02898437 289.38273437 17.01171875 288.32421875 C16.59712244 279.57031384 13.89044754 271.66046184 11.0625 263.4375 C10.4025 263.4375 9.7425 263.4375 9.0625 263.4375 C7.73602071 265.19484546 7.73602071 265.19484546 6.4453125 267.51171875 C5.66716187 268.83949341 5.66716187 268.83949341 4.87329102 270.1940918 C4.31697998 271.1612915 3.76066895 272.12849121 3.1875 273.125 C2.61249756 274.11218018 2.03749512 275.09936035 1.44506836 276.11645508 C-0.35786362 279.21850424 -2.1490198 282.32709965 -3.9375 285.4375 C-4.7730542 286.88576172 -4.7730542 286.88576172 -5.62548828 288.36328125 C-10.24071055 296.36761276 -14.84985114 304.37485739 -19.25 312.5 C-19.69085937 313.30953125 -20.13171875 314.1190625 -20.5859375 314.953125 C-21.59823044 316.81387157 -22.60204622 318.67923424 -23.6015625 320.546875 C-30.27507218 332.60035063 -30.27507218 332.60035063 -35.9375 335.4375 C-45.37647278 337.9022221 -55.10010853 331.58659673 -63 327.125 C-67.92165256 324.16816842 -72.54639968 320.91559244 -77.140625 317.4765625 C-80.08998182 315.32633309 -83.11955225 313.3516131 -86.1875 311.375 C-91.95256077 307.56407022 -98.51540673 303.21936115 -100.9375 296.4375 C-101.46813175 290.39454074 -100.49641343 286.30878833 -97.625 280.9375 C-97.26889648 280.24664307 -96.91279297 279.55578613 -96.54589844 278.84399414 C-93.93255501 273.92472663 -90.92662082 269.39873988 -87.6875 264.875 C-72.83165625 244.00570587 -63.65202286 219.79914372 -55.5 195.6875 C-55.18192383 194.74849854 -54.86384766 193.80949707 -54.53613281 192.84204102 C-40.51638637 150.13010627 -38.40392817 102.3822791 -38.95922852 57.83813477 C-38.97035675 56.69807983 -38.98148499 55.5580249 -38.99295044 54.38342285 C-39.01514895 52.24251762 -39.04606835 50.10167672 -39.08761597 47.96105957 C-39.23794128 32.81465052 -34.95290802 18.77184934 -24.28125 7.72265625 C-17.06991877 1.01939608 -9.52837461 -0.1019333 0 0 Z " fill="#260842" transform="translate(1226.9375,1089.5625)"/>
<path d="M0 0 C18.5597314 3.67966849 40.73034661 28.08407624 51 43 C72.87474828 77.32448581 72.87474828 77.32448581 70 93 C63.37217918 115.26268018 45.90558614 131.03264976 27.12255859 143.56835938 C25.15092994 144.89819954 23.2229297 146.27186239 21.30078125 147.671875 C10.97546011 155.06956393 -0.30760938 160.1299368 -12 165 C-13.77310547 165.75023437 -13.77310547 165.75023437 -15.58203125 166.515625 C-24.64353308 169.96069397 -34.35480215 170.6644851 -43.5625 167.3125 C-47.52111174 165.46213914 -50.16320583 163.37348495 -53 160 C-53.54140625 159.42378906 -54.0828125 158.84757813 -54.640625 158.25390625 C-59.2639413 153.25871451 -62.74597297 147.96273634 -66 142 C-66.48984375 141.19175781 -66.9796875 140.38351562 -67.484375 139.55078125 C-71.93506618 131.38701344 -72.806099 122.08661085 -71 113 C-69.42519004 109.38886766 -67.56690991 106.46876811 -65.28125 103.265625 C-62.78020103 99.68535627 -60.88991057 96.048537 -59 92.125 C-56.42882882 86.86064023 -53.78444418 81.65489263 -51 76.5 C-47.53351185 70.06211539 -44.23128612 63.55296515 -40.98828125 57 C-39.71454398 54.42644211 -38.4217176 51.86456405 -37.10546875 49.3125 C-33.97156997 43.20039421 -31.00060095 37.06754199 -28.296875 30.75 C-27.58688354 29.0956897 -27.58688354 29.0956897 -26.86254883 27.40795898 C-25.93607512 25.23295997 -25.0211799 23.05297968 -24.11987305 20.86743164 C-19.33973974 9.63131491 -13.59259077 -1.76639056 0 0 Z " fill="#270843" transform="translate(1609,677)"/>
<path d="M0 0 C5.29611117 2.87115184 9.84851011 6.54079308 14.484375 10.34765625 C16.25982181 11.78338203 18.06608418 13.16899433 19.88671875 14.546875 C25.69818082 18.96364741 31.02841585 23.2187928 35.64453125 28.92578125 C37.27936659 30.82761231 39.01263099 32.33138425 40.94921875 33.921875 C64.27192751 53.90002705 83.12779198 85.32629546 94.19921875 113.734375 C94.56273437 114.59804688 94.92625 115.46171875 95.30078125 116.3515625 C96.58180027 119.74904773 96.71331432 122.135706 96.19921875 125.734375 C93.62280822 129.09802208 92.0406152 130.42380593 87.87158203 131.12695312 C77.76839094 131.40915506 68.82414027 128.3585244 59.32421875 125.296875 C57.56609848 124.74066656 55.80796032 124.18451464 54.04980469 123.62841797 C22.72283698 113.63100639 -22.67930578 99.02187546 -39.42578125 68.296875 C-46.92369695 53.01468376 -42.7955284 36.50729653 -37.64746094 21.07763672 C-35.90260284 16.24858596 -33.74830851 11.93190073 -30.80078125 7.734375 C-30.32898438 7.05375 -29.8571875 6.373125 -29.37109375 5.671875 C-21.36630475 -4.71271614 -11.36396681 -5.07600023 0 0 Z " fill="#270943" transform="translate(275.80078125,825.265625)"/>
<path d="M0 0 C13.57694176 8.73440017 17.34422459 25.34649874 20.78515625 40.1484375 C23.43409829 53.76433706 21.27021672 64.04514722 14.09765625 75.8359375 C7.28151684 85.38886016 -2.10104352 91.31745034 -12.13476562 96.97167969 C-14.27198843 98.18076583 -16.39188067 99.41697472 -18.51171875 100.65625 C-28.42150302 106.38058971 -38.52963256 111.06474297 -49.15087891 115.30957031 C-51.88793828 116.42200656 -54.577363 117.63677364 -57.27734375 118.8359375 C-62.75410047 121.11791947 -68.35052763 122.68148216 -74.0769043 124.19287109 C-79.00350841 125.49901559 -83.8187888 126.99670949 -88.64379883 128.63745117 C-106.67180139 134.70676474 -106.67180139 134.70676474 -115.46484375 130.6484375 C-117.96596285 127.07541021 -117.91966649 124.28841576 -117.21484375 120.1484375 C-114.74351942 109.00155503 -108.72202337 99.02748977 -103.21484375 89.1484375 C-102.65555176 88.13595947 -102.65555176 88.13595947 -102.08496094 87.10302734 C-96.50837291 77.09737101 -89.86359874 68.1114894 -82.765625 59.13720703 C-81.38866784 57.37135485 -80.05835015 55.58362828 -78.74609375 53.76953125 C-72.76229479 45.61504242 -65.82464062 38.4395282 -58.71484375 31.2734375 C-58.23001526 30.78075378 -57.74518677 30.28807007 -57.2456665 29.78045654 C-51.45103518 23.91285669 -45.50880186 18.61621924 -38.71118164 13.91625977 C-36.07661631 12.05054949 -33.61950066 10.04155873 -31.15234375 7.9609375 C-22.52802728 0.96229091 -11.00829227 -5.46653238 0 0 Z " fill="#270843" transform="translate(1732.21484375,823.8515625)"/>
<path d="M0 0 C0.66 0 1.32 0 2 0 C2.23001709 0.90951416 2.46003418 1.81902832 2.69702148 2.75610352 C5.08278597 11.97031442 7.85719539 20.96987709 11.0625 29.9375 C11.29954651 30.60331085 11.53659302 31.2691217 11.78082275 31.95510864 C21.77171423 59.87644498 35.33652864 85.80567453 51.75 110.4753418 C76.38125322 147.59265112 76.38125322 147.59265112 78 163 C71.43169718 166.28415141 62.45351782 163.23048028 55.6484375 161.75390625 C52.08822763 161.01823119 48.62324784 160.31759333 45 160 C42.78710721 161.76548801 42.78710721 161.76548801 42.90039062 164.00268555 C43.59424581 170.63734476 45.25329924 176.54609969 47.5 182.8125 C48.13805946 184.63058508 48.77356492 186.44956894 49.40625 188.26953125 C49.82874023 189.45446167 49.82874023 189.45446167 50.25976562 190.66333008 C51.80010915 195.52567435 52.0999701 199.90152473 52 205 C40.74497147 201.82550477 32.03366132 195.33521161 25.92724609 185.22363281 C23.74473866 181.24295887 21.86783636 177.13698504 20 173 C18.37135206 169.25398099 18.37135206 169.25398099 16 166 C13.66702567 165.95907063 11.33294775 165.95758277 9 166 C6.28029284 171.25184831 3.98904449 176.43067543 2 182 C-0.79879778 178.6692036 -2.24606103 175.25797161 -3.8125 171.21484375 C-4.06749268 170.55851456 -4.32248535 169.90218536 -4.58520508 169.22596741 C-5.122705 167.83778585 -5.6570661 166.44838537 -6.18847656 165.05786133 C-6.98931487 162.96541827 -7.80241557 160.87806626 -8.6171875 158.79101562 C-22.94849604 121.80394118 -23.67555591 79.29601021 -14 41 C-13.8136499 40.22938232 -13.6272998 39.45876465 -13.43530273 38.66479492 C-10.16493492 25.3196098 -5.19460998 12.69869023 0 0 Z " fill="#FDFDFD" transform="translate(327,1085)"/>
<path d="M0 0 C10.91467631 13.43012205 15.14849661 35.22454063 18 52 C18.16081055 52.93505371 18.32162109 53.87010742 18.48730469 54.83349609 C22.459829 79.13142055 23.21670011 105.59561959 18.42675781 129.82226562 C18.02990431 131.84739908 17.69591538 133.8845738 17.3671875 135.921875 C14.37393928 151.61279726 7.20076719 166.35959744 1 181 C0.34 181 -0.32 181 -1 181 C-1.33773438 180.08476563 -1.67546875 179.16953125 -2.0234375 178.2265625 C-2.46945312 177.03804687 -2.91546875 175.84953125 -3.375 174.625 C-3.81585937 173.44164062 -4.25671875 172.25828125 -4.7109375 171.0390625 C-5.7950342 167.95506554 -5.7950342 167.95506554 -8 166 C-10.91440699 165.33278464 -10.91440699 165.33278464 -14 166 C-17.03943684 169.9810663 -19.14100792 174.22488107 -21.25 178.75 C-27.01071671 190.49145003 -34.15658214 198.19202428 -46 204 C-48.89453125 204.71484375 -48.89453125 204.71484375 -51 205 C-49.68007868 194.99638581 -47.88461071 185.87699514 -44.06542969 176.515625 C-41.99413493 171.33607215 -41.02675672 166.56539679 -41 161 C-45.94174956 160.0310295 -48.42810492 160.13663665 -53 162 C-60.65287566 163.49730176 -68.21043394 164.26860573 -76 164 C-75.61255536 158.03761021 -74.60213764 153.02256395 -71.9375 147.625 C-71.43488647 146.58170532 -71.43488647 146.58170532 -70.92211914 145.51733398 C-67.27194057 138.17557744 -63.10834981 131.11656279 -58.9375 124.0625 C-58.42943314 123.20183929 -58.42943314 123.20183929 -57.91110229 122.3237915 C-54.04232854 115.79474675 -50.0009303 109.47446952 -45.59692383 103.29516602 C-43.15660271 99.78783399 -40.99622903 96.14420279 -38.875 92.4375 C-38.41617432 91.63578369 -37.95734863 90.83406738 -37.48461914 90.00805664 C-35.97565489 87.3463236 -34.48428315 84.67557229 -33 82 C-32.47035645 81.04609375 -31.94071289 80.0921875 -31.39501953 79.109375 C-22.83282835 63.53897557 -15.98147807 47.7202804 -10 31 C-9.47768799 29.56092285 -9.47768799 29.56092285 -8.94482422 28.09277344 C-5.58651139 18.8334947 -2.30897934 9.58776183 0 0 Z " fill="#FDFDFD" transform="translate(1658,1085)"/>
<path d="M0 0 C12.63300214 9.72343275 18.19395523 35.08751464 20.12792969 49.71533203 C20.56910044 54.00325109 20.72878645 58.28137355 20.796875 62.58984375 C20.81919189 63.43119873 20.84150879 64.27255371 20.86450195 65.1394043 C20.83857909 72.10424782 18.40087581 75.55691972 13.921875 80.83984375 C9.5992872 84.09775475 4.66670569 83.9747067 -0.54150391 83.34179688 C-18.0102124 80.2048248 -34.38173496 71.44463409 -49.76708984 62.96508789 C-54.90302128 60.20585486 -60.20612201 58.0629292 -65.640625 55.96484375 C-72.05826183 53.48633352 -78.25553729 50.83093162 -84.328125 47.58984375 C-84.95783203 47.25597656 -85.58753906 46.92210937 -86.23632812 46.578125 C-90.50646174 44.23317027 -90.50646174 44.23317027 -91.640625 41.96484375 C-92.015625 39.15234375 -92.015625 39.15234375 -91.640625 35.96484375 C-88.083816 31.928465 -83.97382754 28.79174479 -79.640625 25.65234375 C-78.65267944 24.93449707 -78.65267944 24.93449707 -77.64477539 24.20214844 C-71.49801928 19.78469843 -65.21864961 15.7202978 -58.640625 11.96484375 C-57.56683594 11.34738281 -56.49304687 10.72992187 -55.38671875 10.09375 C-41.00237413 2.3432051 -16.23791519 -6.36545492 0 0 Z " fill="#270943" transform="translate(1778.640625,923.03515625)"/>
<path d="M0 0 C19.50206236 6.27012415 39.46578383 18.46578383 54 33 C54.4375 35.875 54.4375 35.875 54 39 C49.74610302 43.22763835 44.30433855 45.44316151 38.9375 47.9375 C38.05900391 48.35451172 37.18050781 48.77152344 36.27539062 49.20117188 C31.62949402 51.3872774 26.95657381 53.44336206 22.19921875 55.375 C15.24233032 58.24177875 8.56894396 61.63952217 1.875 65.0625 C-5.96178516 69.06934864 -13.74303006 72.93022265 -22 76 C-23.08667969 76.41765625 -24.17335937 76.8353125 -25.29296875 77.265625 C-33.28462828 79.98343634 -41.59942431 81.59492062 -50 80 C-54.37613172 76.5624988 -57.51636445 72.50898184 -58.29248047 66.87792969 C-58.44292125 64.36780709 -58.46671923 61.88947707 -58.4375 59.375 C-58.42992676 58.45565674 -58.42235352 57.53631348 -58.41455078 56.58911133 C-57.98976765 38.43660863 -53.36772072 18.19353667 -43 3 C-42.58105469 2.3090625 -42.16210938 1.618125 -41.73046875 0.90625 C-33.3773925 -10.20179862 -11.23294741 -3.24280146 0 0 Z " fill="#270942" transform="translate(246,926)"/>
<path d="M0 0 C5.24657851 -0.08150634 9.68793406 0.46043217 14.6875 2 C15.77792603 2.33004028 15.77792603 2.33004028 16.89038086 2.66674805 C38.09455035 9.29010318 66.71463979 18.42280129 78 39 C80.98072643 46.51661447 80.55133888 53.08852921 78.2421875 60.62890625 C74.76394155 67.26819962 69.59991158 71.41825541 63.1875 75.0625 C62.454104 75.48660156 61.72070801 75.91070313 60.96508789 76.34765625 C41.97296814 86.95881823 22.40506991 89.24447415 1 89 C0.22114565 83.50348675 -0.14089341 78.20287302 -0.11352539 72.65625 C-0.11367142 71.86504257 -0.11381744 71.07383514 -0.1139679 70.25865173 C-0.11327742 67.6724055 -0.10552601 65.08623347 -0.09765625 62.5 C-0.09578899 60.69539428 -0.09436654 58.89078805 -0.09336853 57.08618164 C-0.0895676 52.35816017 -0.07975824 47.63016988 -0.06866455 42.90216064 C-0.05839809 38.06889264 -0.05385973 33.23561954 -0.04882812 28.40234375 C-0.0381336 18.93488221 -0.02108658 9.46744371 0 0 Z " fill="#FEFEFE" transform="translate(1311,606)"/>
<path d="M0 0 C2.18109518 2.18109518 3.21035991 4.38866304 4.51245117 7.15478516 C10.270717 19.37170416 17.991836 32.38411812 28.5 41.125 C32.4242904 44.46819355 36.21888609 47.93452992 40 51.4375 C40.58845703 51.98229004 41.17691406 52.52708008 41.78320312 53.08837891 C43.18958944 54.3914033 44.59490915 55.69557877 46 57 C45.24589844 57.60070313 44.49179688 58.20140625 43.71484375 58.8203125 C40.0337408 61.77578796 36.48295538 64.812303 33 68 C32.23888916 68.69198486 32.23888916 68.69198486 31.46240234 69.39794922 C18.28233972 81.52175646 8.31512313 95.63722458 1 112 C-2.02197387 110.48901307 -2.43088592 108.11604201 -3.8125 105.0625 C-6.79697994 98.79558733 -10.43853952 93.18431531 -14.5 87.5625 C-15.03343018 86.81814697 -15.56686035 86.07379395 -16.11645508 85.30688477 C-21.02408638 78.63600577 -26.5072522 73.12585352 -33 68 C-33.763125 67.195625 -34.52625 66.39125 -35.3125 65.5625 C-38.57795568 62.44892598 -42.11774794 60.26384425 -46 58 C-44.84960919 56.84960919 -43.69888266 55.69955293 -42.546875 54.55078125 C-41.48959702 53.49083338 -40.43774005 52.42545767 -39.390625 51.35546875 C-36.35853103 48.27469437 -33.27371293 45.32413147 -30 42.5 C-28.66587687 41.33423658 -27.3325092 40.16760786 -26 39 C-25.44699219 38.52691406 -24.89398437 38.05382813 -24.32421875 37.56640625 C-14.50072739 28.54004784 -7.48856109 16.00981312 -2 4 C-1.33871868 2.66398756 -0.67411186 1.32958468 0 0 Z " fill="#FDFDFD" transform="translate(993,1143)"/>
<path d="M0 0 C12.16536057 3.11932322 20.85075859 12.67420216 27.3125 23 C31.31066078 30.09422957 34.72007521 36.71913505 34 45 C11.19396552 53.9137931 11.19396552 53.9137931 0 53 C-0.83377591 50.08905187 -1.12630387 47.50266438 -1.12939453 44.47851562 C-1.13254669 43.59079468 -1.13569885 42.70307373 -1.13894653 41.78845215 C-1.1369223 40.83732544 -1.13489807 39.88619873 -1.1328125 38.90625 C-1.13376923 37.92257446 -1.13472595 36.93889893 -1.13571167 35.92541504 C-1.13639156 33.84757422 -1.13455056 31.76973126 -1.13037109 29.69189453 C-1.12502019 26.51199573 -1.13032255 23.33223816 -1.13671875 20.15234375 C-1.13605793 18.13281219 -1.1347767 16.11328071 -1.1328125 14.09375 C-1.13483673 13.14262329 -1.13686096 12.19149658 -1.13894653 11.21154785 C-1.13579437 10.3238269 -1.13264221 9.43610596 -1.12939453 8.52148438 C-1.12859894 7.74301147 -1.12780334 6.96453857 -1.12698364 6.16247559 C-0.99952084 3.99184018 -0.59751454 2.08609271 0 0 Z " fill="#FCFCFD" transform="translate(1259,1175)"/>
<path d="M0 0 C0.66 0.33 1.32 0.66 2 1 C-3.28 6.28 -8.56 11.56 -14 17 C-14.66 16.67 -15.32 16.34 -16 16 C-14.27538679 14.07906479 -12.54557391 12.163278 -10.8125 10.25 C-10.32974609 9.71117187 -9.84699219 9.17234375 -9.34960938 8.6171875 C-6.43837795 5.41287909 -3.47293499 2.6158121 0 0 Z " fill="#472D5F" transform="translate(807,738)"/>
<path d="M0 0 C0.66 0.33 1.32 0.66 2 1 C-3.94 6.94 -9.88 12.88 -16 19 C-16.66 18.67 -17.32 18.34 -18 18 C-13.51609924 12.74095682 -8.9532985 7.86702244 -3.6640625 3.41015625 C-1.8974177 1.95229227 -1.8974177 1.95229227 0 0 Z " fill="#402458" transform="translate(667,1129)"/>
<path d="M0 0 C0.66 0.33 1.32 0.66 2 1 C-2.95 5.95 -7.9 10.9 -13 16 C-13.66 15.67 -14.32 15.34 -15 15 C-13.44221619 13.2456027 -11.87905295 11.49653989 -10.3125 9.75 C-9.44238281 8.77546875 -8.57226562 7.8009375 -7.67578125 6.796875 C-5.25206689 4.26347429 -2.7912151 2.11227089 0 0 Z " fill="#442A5C" transform="translate(1169,486)"/>
<path d="M0 0 C0.66 0.33 1.32 0.66 2 1 C-1.63 4.63 -5.26 8.26 -9 12 C-9 8.47601214 -8.44884893 7.98495633 -6.1875 5.4375 C-5.40439453 4.53837891 -5.40439453 4.53837891 -4.60546875 3.62109375 C-3 2 -3 2 0 0 Z " fill="#422858" transform="translate(254,824)"/>
<path d="M0 0 C0.66 0.33 1.32 0.66 2 1 C1.50628906 1.44730469 1.01257812 1.89460937 0.50390625 2.35546875 C-4.41263727 6.77954779 -4.41263727 6.77954779 -6 13 C-6.33 13 -6.66 13 -7 13 C-7.3125 10.3125 -7.3125 10.3125 -7 7 C-4.625 4.25 -4.625 4.25 -2 2 C-1.34 1.34 -0.68 0.68 0 0 Z " fill="#462B5D" transform="translate(1694,952)"/>
<path d="M0 0 C1.134375 0.020625 2.26875 0.04125 3.4375 0.0625 C3.4375 0.3925 3.4375 0.7225 3.4375 1.0625 C2.07625 1.4646875 2.07625 1.4646875 0.6875 1.875 C-2.27721963 2.95826294 -4.1794754 4.04609457 -6.5625 6.0625 C-4.25951087 0.07472826 -4.25951087 0.07472826 0 0 Z " fill="#573F6D" transform="translate(339.5625,1249.9375)"/>
</svg>
