<svg version="1.1" id="Layer_1" xmlns="http://www.w3.org/2000/svg" xmlns:xlink="http://www.w3.org/1999/xlink" x="0px" y="0px"
	 width="100%" viewBox="0 0 2000 2000" enable-background="new 0 0 2000 2000" xml:space="preserve">
<path fill="#FFFFFF" opacity="1.000000" stroke="none" 
	d="
M1156.000000,2001.000000 
	C770.666687,2001.000000 385.833344,2001.000000 1.000000,2001.000000 
	C1.000000,1334.333374 1.000000,667.666687 1.000000,1.000000 
	C667.666687,1.000000 1334.333374,1.000000 2001.000000,1.000000 
	C2001.000000,667.666687 2001.000000,1334.333374 2001.000000,2001.000000 
	C1719.500000,2001.000000 1438.000000,2001.000000 1156.000000,2001.000000 
M146.995850,858.500000 
	C146.995850,1092.260742 146.995850,1326.021484 146.995850,1559.719849 
	C711.971497,1559.719849 1276.374756,1559.719849 1841.215088,1559.719849 
	C1841.215088,1173.027832 1841.215088,786.620056 1841.215088,400.283020 
	C1276.022705,400.283020 711.619446,400.283020 146.995850,400.283020 
	C146.995850,552.880066 146.995850,705.190002 146.995850,858.500000 
z"/>
<path fill="#020202" opacity="1.000000" stroke="none" 
	d="
M146.995850,858.000000 
	C146.995850,705.190002 146.995850,552.880066 146.995850,400.283020 
	C711.619446,400.283020 1276.022705,400.283020 1841.215088,400.283020 
	C1841.215088,786.620056 1841.215088,1173.027832 1841.215088,1559.719849 
	C1276.374756,1559.719849 711.971497,1559.719849 146.995850,1559.719849 
	C146.995850,1326.021484 146.995850,1092.260742 146.995850,858.000000 
M1166.373047,449.842255 
	C1145.233032,457.900940 1130.101074,472.735321 1120.138916,492.604218 
	C1110.716187,511.397491 1108.668579,532.091309 1107.017578,552.720520 
	C1106.123169,563.894714 1105.479980,575.088867 1104.666382,587.117920 
	C1092.007324,570.210571 1078.920898,554.692017 1063.235718,541.520569 
	C1045.021240,526.225220 1024.586548,522.991455 1002.345276,530.146179 
	C997.662170,531.652649 993.489441,534.745667 989.329285,536.974915 
	C990.737976,523.559082 992.519775,510.092926 993.478027,496.568359 
	C994.648438,480.049164 996.664734,463.533813 993.103943,446.948334 
	C988.031189,423.320801 965.585144,404.781799 942.659058,406.075500 
	C928.914734,406.851044 915.188904,407.956879 901.444336,408.726807 
	C875.626099,410.173004 849.978149,412.770416 824.790344,418.957153 
	C793.807983,426.567139 762.545166,433.178772 731.886108,441.915222 
	C708.689819,448.525146 685.942627,457.026764 663.544556,466.049286 
	C628.639160,480.110168 594.065308,495.021362 559.602295,510.144928 
	C529.115051,523.523865 500.578094,540.588074 473.142822,559.336426 
	C447.408630,576.922363 422.320038,595.451843 396.911041,613.515015 
	C372.363190,630.965942 349.789520,650.735474 328.944550,672.403992 
	C315.724518,686.146362 302.735474,700.198120 290.719818,714.986206 
	C279.660736,728.597046 270.347931,743.556091 267.537781,761.463135 
	C266.186584,770.073364 265.200470,778.740906 264.000580,787.746216 
	C246.698730,786.735901 233.215530,794.876221 221.875504,807.480469 
	C214.131790,816.087585 209.002121,826.222656 205.536987,837.144226 
	C200.114120,854.236328 196.324860,871.605835 198.647217,889.902466 
	C188.214355,894.494873 179.818283,901.835571 173.958435,911.440491 
	C158.869827,936.172485 153.013748,963.350586 152.681396,992.207642 
	C152.401443,1016.514893 174.371414,1042.397217 198.658310,1043.201294 
	C192.182953,1061.342651 184.935455,1079.528442 179.229614,1098.185669 
	C172.556381,1120.005859 168.639893,1142.364380 167.547150,1165.363037 
	C166.223801,1193.214966 166.167572,1221.002808 172.944412,1248.021606 
	C180.339798,1277.506470 190.182083,1306.286255 204.516190,1333.391846 
	C217.025330,1357.046753 231.119629,1379.687744 247.393127,1400.816650 
	C258.504883,1415.243652 271.172546,1428.511841 283.612488,1441.862061 
	C291.658417,1450.496826 299.903076,1459.175415 309.182129,1466.389526 
	C337.111267,1488.103638 368.301208,1504.521362 400.850372,1517.896851 
	C425.610077,1528.071411 451.394440,1535.744629 477.761414,1541.020142 
	C483.099854,1542.088257 488.436737,1543.353516 493.837585,1543.883911 
	C508.487823,1545.322266 522.019958,1542.958252 531.928528,1530.594971 
	C548.523438,1547.427246 568.333252,1554.116699 591.051941,1554.246216 
	C611.254578,1554.361328 630.244690,1549.645508 648.971130,1542.635010 
	C663.932556,1537.033936 676.699585,1528.854980 685.964478,1515.564697 
	C686.716248,1514.486328 689.270325,1514.345947 690.993408,1514.325562 
	C695.451233,1514.273071 700.169800,1515.542480 704.326782,1514.485107 
	C719.757751,1510.560059 735.202393,1506.495117 750.274109,1501.395630 
	C773.316467,1493.599121 794.109619,1481.181396 814.479919,1468.071899 
	C831.264465,1457.270020 849.039917,1447.762817 861.381653,1431.280396 
	C866.211914,1424.829590 872.414429,1419.104492 875.911438,1412.021729 
	C882.638123,1398.397583 880.575195,1383.422974 879.363159,1368.900391 
	C878.783569,1361.955811 876.668823,1355.139404 875.197327,1348.013062 
	C946.295654,1397.266602 1019.626404,1403.597778 1096.391846,1359.171875 
	C1095.669800,1361.534180 1095.370361,1362.753662 1094.929810,1363.920044 
	C1087.105225,1384.633057 1090.830688,1402.876953 1106.710327,1418.427490 
	C1120.749023,1432.174927 1137.302490,1442.438721 1154.240601,1452.087158 
	C1166.213379,1458.907104 1178.926147,1463.328125 1193.026978,1462.016113 
	C1195.936890,1461.745239 1198.825317,1461.244019 1201.633667,1460.861084 
	C1204.700195,1470.092407 1209.926636,1477.225098 1217.607666,1482.356934 
	C1229.517944,1490.314819 1241.805542,1497.725220 1253.512939,1505.965088 
	C1269.159302,1516.977661 1285.935669,1523.566040 1305.394897,1522.071289 
	C1306.697754,1521.971191 1308.234009,1523.235718 1309.463135,1524.136719 
	C1315.169312,1528.318970 1320.343628,1533.503052 1326.553955,1536.669800 
	C1344.884033,1546.016968 1364.344360,1552.316406 1384.977051,1553.817627 
	C1399.725830,1554.890869 1414.451660,1554.505127 1428.639282,1549.119751 
	C1439.431641,1545.023071 1448.881592,1539.082275 1456.616455,1530.037720 
	C1467.419434,1543.863770 1481.985840,1545.821045 1497.398071,1543.586792 
	C1526.513184,1539.365723 1554.522095,1530.421143 1581.880737,1520.147949 
	C1601.014038,1512.963501 1618.884766,1502.404663 1637.286499,1493.286743 
	C1659.849243,1482.106934 1679.899414,1467.537964 1697.495483,1449.444092 
	C1715.445801,1430.985718 1733.489014,1412.697754 1748.261963,1391.424316 
	C1772.194824,1356.960449 1792.860229,1321.032593 1805.989014,1280.773315 
	C1813.575562,1257.508911 1820.072266,1234.262939 1820.877808,1209.853638 
	C1821.484863,1191.457397 1820.716064,1172.999023 1820.100830,1154.583618 
	C1819.411987,1133.967407 1814.440308,1114.067017 1808.154175,1094.573853 
	C1802.568970,1077.253662 1796.006104,1060.248779 1789.937012,1043.279053 
	C1817.516357,1041.063599 1837.366333,1014.219360 1836.131958,988.694519 
	C1835.164673,968.687927 1831.672607,949.388489 1824.410278,930.750793 
	C1817.837524,913.882996 1808.682983,899.165405 1791.674683,890.802185 
	C1790.766479,890.355591 1790.098999,888.381714 1790.159546,887.160645 
	C1790.890747,872.463745 1789.197510,858.168640 1785.157471,843.937012 
	C1780.057495,825.971313 1771.670410,810.388062 1757.082031,798.384888 
	C1743.711304,787.383728 1728.234009,786.396545 1711.517700,788.644470 
	C1715.847412,778.430908 1716.752441,767.783386 1714.605713,757.654663 
	C1708.870972,730.596436 1697.024536,706.205872 1677.699829,686.175720 
	C1667.233276,675.327026 1655.962769,665.074097 1644.054810,655.842773 
	C1630.078247,645.007751 1614.098999,639.153625 1595.809082,642.714600 
	C1594.692993,642.931946 1592.435425,641.150330 1591.884399,639.814087 
	C1585.617920,624.617615 1576.119263,611.697937 1564.768555,599.960999 
	C1534.088501,568.237122 1497.966064,544.047607 1458.930298,524.075806 
	C1442.272461,515.553162 1425.088745,508.009918 1407.900635,500.584625 
	C1386.751831,491.448303 1365.799927,481.506287 1343.946655,474.435425 
	C1313.810913,464.684601 1283.016113,456.882599 1252.291504,449.081085 
	C1238.900391,445.680878 1225.053955,443.624207 1211.285278,442.281982 
	C1196.105713,440.802155 1181.444580,444.873169 1166.373047,449.842255 
M999.004272,498.706482 
	C998.357727,507.744812 997.711182,516.783142 997.001709,526.701111 
	C1006.683472,520.412231 1016.691162,520.937073 1026.650635,520.974548 
	C1039.963379,521.024719 1052.016235,525.492371 1061.922974,533.770020 
	C1073.380737,543.343628 1083.613281,554.387756 1094.316040,564.856567 
	C1096.190796,566.690430 1097.761719,568.835083 1099.518188,570.889099 
	C1100.051025,566.488647 1100.517822,562.590576 1100.995728,558.693909 
	C1102.659790,545.127380 1103.887695,531.489014 1106.104614,518.013306 
	C1108.943726,500.755981 1115.810669,485.116638 1127.008789,471.476868 
	C1146.795776,447.375610 1173.648804,437.926819 1203.408447,436.327698 
	C1217.722290,435.558594 1232.086548,438.621857 1246.346313,441.727631 
	C1275.735596,448.128662 1304.793213,455.721558 1333.331299,465.014160 
	C1352.933228,471.396973 1371.878418,479.828430 1391.022949,487.576782 
	C1416.752197,497.990204 1442.648926,508.038788 1466.811523,521.943054 
	C1478.368652,528.593628 1490.796143,533.938416 1501.653809,541.551208 
	C1519.574463,554.115967 1537.362183,567.118164 1553.688232,581.641968 
	C1571.210571,597.230103 1588.330688,613.748291 1596.361938,637.147705 
	C1597.523926,636.688293 1598.359863,636.205505 1599.253296,636.045715 
	C1600.222900,635.872314 1601.249512,636.052979 1602.245483,635.987976 
	C1618.027588,634.958252 1631.848999,640.591858 1644.500488,649.198242 
	C1651.083740,653.676636 1656.716309,659.526917 1663.017456,664.451660 
	C1674.179443,673.175659 1683.763306,683.307922 1692.332764,694.597046 
	C1700.900513,705.883667 1707.034302,718.432617 1712.580811,731.270752 
	C1718.415405,744.775452 1722.473999,758.810974 1720.995361,773.841431 
	C1720.735840,776.480713 1720.363892,779.108887 1720.120605,781.110962 
	C1727.285767,782.095032 1734.099487,782.247803 1740.449707,784.041626 
	C1764.955811,790.964417 1778.545654,808.992615 1786.958618,831.699890 
	C1793.154663,848.423828 1797.250122,865.595520 1796.087891,883.674500 
	C1795.999634,885.048523 1796.689209,887.207031 1797.714966,887.805847 
	C1809.557861,894.718933 1818.034790,904.714905 1824.800049,917.034241 
	C1824.800049,746.114990 1824.800049,575.760559 1824.800049,405.381866 
	C1538.897095,405.381866 1253.190308,405.381866 966.781006,405.381866 
	C989.835632,417.774414 999.071228,436.487152 1000.816956,459.768433 
	C1001.591919,470.103180 1000.382446,480.591888 999.968750,491.006531 
	C999.878906,493.268036 999.339355,495.511658 999.004272,498.706482 
M246.682968,783.993103 
	C250.735306,783.121277 254.787643,782.249512 257.648468,781.634033 
	C260.410828,769.330200 262.126617,757.217712 266.009949,745.845398 
	C268.965393,737.190430 274.460114,729.348633 279.198578,721.366760 
	C291.910339,699.953979 310.394989,683.409180 327.227753,665.534119 
	C335.416260,656.838562 345.594208,650.026489 353.868988,641.400146 
	C369.040070,625.584351 387.148987,613.471130 404.462067,600.471375 
	C428.333099,582.547485 453.157745,565.871643 477.882263,549.116272 
	C488.774384,541.734863 500.332245,535.311157 511.758301,528.749451 
	C522.888733,522.357544 533.959839,515.755188 545.556152,510.307678 
	C561.773560,502.689392 578.479065,496.114685 594.929016,488.985596 
	C611.696167,481.719025 628.223389,473.862274 645.186523,467.093048 
	C668.836243,457.655457 692.520081,448.151337 716.705261,440.256287 
	C736.058167,433.938751 756.172363,429.945801 775.963623,424.980865 
	C793.119873,420.677002 810.222656,416.119873 827.489136,412.309265 
	C840.693054,409.395294 854.115601,407.472321 866.543518,405.267700 
	C632.083496,405.267700 396.677155,405.267700 161.260956,405.267700 
	C161.260956,577.833801 161.260956,750.136230 161.260956,923.119751 
	C167.268921,908.231750 176.575958,896.937500 189.152954,888.199707 
	C190.546646,887.231384 191.692841,885.080200 191.889114,883.356384 
	C192.796234,875.389160 192.907547,867.314819 194.118317,859.403503 
	C195.184311,852.437988 196.953003,845.518921 199.076859,838.789368 
	C203.221359,825.657227 208.911850,813.317871 218.423080,802.971741 
	C226.177231,794.536987 235.191055,788.138672 246.682968,783.993103 
M1224.500000,1554.995972 
	C1268.471191,1554.995972 1312.442383,1554.995972 1357.870483,1554.995972 
	C1350.429810,1552.314575 1344.404663,1550.268066 1338.473022,1547.979370 
	C1326.999268,1543.551758 1315.754517,1538.741455 1306.943481,1529.630981 
	C1305.818115,1528.467407 1303.421265,1528.020630 1301.643066,1528.083374 
	C1288.680664,1528.540405 1276.424438,1525.638794 1265.182129,1519.486450 
	C1255.180176,1514.012817 1245.721924,1507.545532 1236.022705,1501.518311 
	C1221.305298,1492.372559 1205.762085,1484.153198 1198.671265,1468.797852 
	C1189.978271,1467.843018 1182.095459,1467.742920 1174.595581,1465.997192 
	C1157.892822,1462.109985 1143.476196,1453.437500 1129.692139,1443.384155 
	C1119.406616,1435.882568 1108.537964,1429.251465 1099.988770,1419.554810 
	C1087.686523,1405.601074 1081.739868,1390.039429 1086.842529,1371.328979 
	C1053.989014,1386.183960 1020.381226,1397.848022 983.742920,1394.873779 
	C947.942078,1391.967285 915.049072,1379.588135 885.283020,1361.870850 
	C885.519043,1373.038208 885.920654,1384.514526 885.908081,1395.990479 
	C885.904236,1399.475098 884.834412,1402.974487 884.119568,1406.439575 
	C881.141907,1420.874512 870.376770,1430.140869 861.123840,1440.241455 
	C842.072266,1461.038208 816.929688,1473.548584 793.224121,1487.615967 
	C768.622314,1502.215210 741.789795,1512.460449 713.669312,1518.576416 
	C706.729309,1520.085693 699.466431,1520.504883 692.346069,1520.553345 
	C690.162720,1520.568359 689.199829,1520.216919 687.835144,1522.278198 
	C682.324341,1530.601562 674.744873,1536.804565 665.770752,1540.931274 
	C654.624390,1546.056763 643.172424,1550.518188 632.497009,1554.995972 
	C828.951294,1554.995972 1026.225708,1554.995972 1224.500000,1554.995972 
M161.004150,1550.378662 
	C161.004150,1551.820679 161.004150,1553.262573 161.004150,1554.769653 
	C293.486969,1554.769653 425.474152,1554.769653 556.530457,1554.769653 
	C548.554932,1549.893311 540.005676,1544.666016 531.338867,1539.367065 
	C518.035767,1551.033813 501.919006,1552.024902 485.272888,1548.537842 
	C471.294952,1545.609497 457.467133,1541.859863 443.721741,1537.950317 
	C422.293945,1531.855835 400.827057,1525.726562 380.924652,1515.402954 
	C364.937164,1507.109741 348.803345,1499.024780 333.313812,1489.867432 
	C319.221741,1481.536377 305.535522,1472.339844 294.028107,1460.470703 
	C281.703583,1447.758789 269.162109,1435.207642 257.595520,1421.825439 
	C247.427505,1410.061401 238.089142,1397.519409 229.104965,1384.811523 
	C221.497375,1374.050781 214.280899,1362.905151 208.046234,1351.309082 
	C199.770721,1335.916870 192.214935,1320.099854 185.133057,1304.118286 
	C180.864059,1294.484741 178.191406,1284.152710 174.605682,1274.205200 
	C169.621262,1260.377441 165.443253,1246.374634 163.977859,1231.669189 
	C163.209061,1223.953857 162.256607,1216.256958 161.387085,1208.551758 
	C161.259445,1208.550293 161.131790,1208.548828 161.004150,1208.547363 
	C161.004150,1322.164429 161.004150,1435.781616 161.004150,1550.378662 
M1725.556152,1428.969116 
	C1718.722534,1435.801514 1711.889771,1442.634766 1705.054688,1449.465698 
	C1698.429810,1456.086670 1692.271118,1463.272583 1685.082764,1469.211670 
	C1668.245483,1483.122559 1649.193359,1493.704102 1630.013184,1503.992310 
	C1606.193970,1516.768799 1581.680176,1527.923584 1555.489380,1534.976685 
	C1538.440918,1539.567749 1521.408691,1544.268921 1504.215698,1548.259888 
	C1487.246338,1552.198975 1470.869385,1551.315796 1457.639771,1539.355835 
	C1448.406494,1544.771606 1439.595825,1549.939453 1431.520752,1554.675781 
	C1562.071655,1554.675781 1693.457520,1554.675781 1824.676636,1554.675781 
	C1824.676636,1447.476318 1824.676636,1340.597534 1824.676636,1233.718628 
	C1824.043701,1235.646362 1824.240356,1237.683228 1823.731567,1239.525269 
	C1820.573364,1250.960449 1817.805908,1262.545410 1813.869629,1273.714355 
	C1807.327515,1292.277344 1801.226318,1311.158447 1792.665649,1328.802368 
	C1783.855469,1346.960327 1772.610596,1363.977051 1761.875854,1381.145874 
	C1755.632812,1391.130859 1748.482422,1400.571655 1741.392212,1409.995239 
	C1736.588623,1416.379272 1731.179688,1422.307983 1725.556152,1428.969116 
M186.027908,1059.731567 
	C187.721786,1056.103638 189.415665,1052.475586 191.264542,1048.515747 
	C179.831314,1044.229858 168.725876,1039.682861 161.262222,1028.751587 
	C161.262222,1076.197754 161.262222,1122.859131 161.262222,1169.520386 
	C161.604904,1131.377075 173.202072,1095.819946 186.027908,1059.731567 
M1804.938965,1045.585938 
	C1802.367676,1046.481445 1799.796387,1047.376831 1797.374146,1048.220459 
	C1809.511597,1077.372437 1819.296753,1106.690063 1824.642578,1137.340088 
	C1824.642578,1102.340942 1824.642578,1067.341675 1824.642578,1033.668579 
	C1818.473633,1037.339355 1811.996216,1041.193604 1804.938965,1045.585938 
z"/>
<path fill="#FEFEFE" opacity="1.000000" stroke="none" 
	d="
M1166.703735,449.625427 
	C1181.444580,444.873169 1196.105713,440.802155 1211.285278,442.281982 
	C1225.053955,443.624207 1238.900391,445.680878 1252.291504,449.081085 
	C1283.016113,456.882599 1313.810913,464.684601 1343.946655,474.435425 
	C1365.799927,481.506287 1386.751831,491.448303 1407.900635,500.584625 
	C1425.088745,508.009918 1442.272461,515.553162 1458.930298,524.075806 
	C1497.966064,544.047607 1534.088501,568.237122 1564.768555,599.960999 
	C1576.119263,611.697937 1585.617920,624.617615 1591.884399,639.814087 
	C1592.435425,641.150330 1594.692993,642.931946 1595.809082,642.714600 
	C1614.098999,639.153625 1630.078247,645.007751 1644.054810,655.842773 
	C1655.962769,665.074097 1667.233276,675.327026 1677.699829,686.175720 
	C1697.024536,706.205872 1708.870972,730.596436 1714.605713,757.654663 
	C1716.752441,767.783386 1715.847412,778.430908 1711.517700,788.644470 
	C1728.234009,786.396545 1743.711304,787.383728 1757.082031,798.384888 
	C1771.670410,810.388062 1780.057495,825.971313 1785.157471,843.937012 
	C1789.197510,858.168640 1790.890747,872.463745 1790.159546,887.160645 
	C1790.098999,888.381714 1790.766479,890.355591 1791.674683,890.802185 
	C1808.682983,899.165405 1817.837524,913.882996 1824.410278,930.750793 
	C1831.672607,949.388489 1835.164673,968.687927 1836.131958,988.694519 
	C1837.366333,1014.219360 1817.516357,1041.063599 1789.937012,1043.279053 
	C1796.006104,1060.248779 1802.568970,1077.253662 1808.154175,1094.573853 
	C1814.440308,1114.067017 1819.411987,1133.967407 1820.100830,1154.583618 
	C1820.716064,1172.999023 1821.484863,1191.457397 1820.877808,1209.853638 
	C1820.072266,1234.262939 1813.575562,1257.508911 1805.989014,1280.773315 
	C1792.860229,1321.032593 1772.194824,1356.960449 1748.261963,1391.424316 
	C1733.489014,1412.697754 1715.445801,1430.985718 1697.495483,1449.444092 
	C1679.899414,1467.537964 1659.849243,1482.106934 1637.286499,1493.286743 
	C1618.884766,1502.404663 1601.014038,1512.963501 1581.880737,1520.147949 
	C1554.522095,1530.421143 1526.513184,1539.365723 1497.398071,1543.586792 
	C1481.985840,1545.821045 1467.419434,1543.863770 1456.616455,1530.037720 
	C1448.881592,1539.082275 1439.431641,1545.023071 1428.639282,1549.119751 
	C1414.451660,1554.505127 1399.725830,1554.890869 1384.977051,1553.817627 
	C1364.344360,1552.316406 1344.884033,1546.016968 1326.553955,1536.669800 
	C1320.343628,1533.503052 1315.169312,1528.318970 1309.463135,1524.136719 
	C1308.234009,1523.235718 1306.697754,1521.971191 1305.394897,1522.071289 
	C1285.935669,1523.566040 1269.159302,1516.977661 1253.512939,1505.965088 
	C1241.805542,1497.725220 1229.517944,1490.314819 1217.607666,1482.356934 
	C1209.926636,1477.225098 1204.700195,1470.092407 1201.633667,1460.861084 
	C1198.825317,1461.244019 1195.936890,1461.745239 1193.026978,1462.016113 
	C1178.926147,1463.328125 1166.213379,1458.907104 1154.240601,1452.087158 
	C1137.302490,1442.438721 1120.749023,1432.174927 1106.710327,1418.427490 
	C1090.830688,1402.876953 1087.105225,1384.633057 1094.929810,1363.920044 
	C1095.370361,1362.753662 1095.669800,1361.534180 1096.391846,1359.171875 
	C1019.626404,1403.597778 946.295654,1397.266602 875.197327,1348.013062 
	C876.668823,1355.139404 878.783569,1361.955811 879.363159,1368.900391 
	C880.575195,1383.422974 882.638123,1398.397583 875.911438,1412.021729 
	C872.414429,1419.104492 866.211914,1424.829590 861.381653,1431.280396 
	C849.039917,1447.762817 831.264465,1457.270020 814.479919,1468.071899 
	C794.109619,1481.181396 773.316467,1493.599121 750.274109,1501.395630 
	C735.202393,1506.495117 719.757751,1510.560059 704.326782,1514.485107 
	C700.169800,1515.542480 695.451233,1514.273071 690.993408,1514.325562 
	C689.270325,1514.345947 686.716248,1514.486328 685.964478,1515.564697 
	C676.699585,1528.854980 663.932556,1537.033936 648.971130,1542.635010 
	C630.244690,1549.645508 611.254578,1554.361328 591.051941,1554.246216 
	C568.333252,1554.116699 548.523438,1547.427246 531.928528,1530.594971 
	C522.019958,1542.958252 508.487823,1545.322266 493.837585,1543.883911 
	C488.436737,1543.353516 483.099854,1542.088257 477.761414,1541.020142 
	C451.394440,1535.744629 425.610077,1528.071411 400.850372,1517.896851 
	C368.301208,1504.521362 337.111267,1488.103638 309.182129,1466.389526 
	C299.903076,1459.175415 291.658417,1450.496826 283.612488,1441.862061 
	C271.172546,1428.511841 258.504883,1415.243652 247.393127,1400.816650 
	C231.119629,1379.687744 217.025330,1357.046753 204.516190,1333.391846 
	C190.182083,1306.286255 180.339798,1277.506470 172.944412,1248.021606 
	C166.167572,1221.002808 166.223801,1193.214966 167.547150,1165.363037 
	C168.639893,1142.364380 172.556381,1120.005859 179.229614,1098.185669 
	C184.935455,1079.528442 192.182953,1061.342651 198.658310,1043.201294 
	C174.371414,1042.397217 152.401443,1016.514893 152.681396,992.207642 
	C153.013748,963.350586 158.869827,936.172485 173.958435,911.440491 
	C179.818283,901.835571 188.214355,894.494873 198.647217,889.902466 
	C196.324860,871.605835 200.114120,854.236328 205.536987,837.144226 
	C209.002121,826.222656 214.131790,816.087585 221.875504,807.480469 
	C233.215530,794.876221 246.698730,786.735901 264.000580,787.746216 
	C265.200470,778.740906 266.186584,770.073364 267.537781,761.463135 
	C270.347931,743.556091 279.660736,728.597046 290.719818,714.986206 
	C302.735474,700.198120 315.724518,686.146362 328.944550,672.403992 
	C349.789520,650.735474 372.363190,630.965942 396.911041,613.515015 
	C422.320038,595.451843 447.408630,576.922363 473.142822,559.336426 
	C500.578094,540.588074 529.115051,523.523865 559.602295,510.144928 
	C594.065308,495.021362 628.639160,480.110168 663.544556,466.049286 
	C685.942627,457.026764 708.689819,448.525146 731.886108,441.915222 
	C762.545166,433.178772 793.807983,426.567139 824.790344,418.957153 
	C849.978149,412.770416 875.626099,410.173004 901.444336,408.726807 
	C915.188904,407.956879 928.914734,406.851044 942.659058,406.075500 
	C965.585144,404.781799 988.031189,423.320801 993.103943,446.948334 
	C996.664734,463.533813 994.648438,480.049164 993.478027,496.568359 
	C992.519775,510.092926 990.737976,523.559082 989.329285,536.974915 
	C993.489441,534.745667 997.662170,531.652649 1002.345276,530.146179 
	C1024.586548,522.991455 1045.021240,526.225220 1063.235718,541.520569 
	C1078.920898,554.692017 1092.007324,570.210571 1104.666382,587.117920 
	C1105.479980,575.088867 1106.123169,563.894714 1107.017578,552.720520 
	C1108.668579,532.091309 1110.716187,511.397491 1120.138916,492.604218 
	C1130.101074,472.735321 1145.233032,457.900940 1166.703735,449.625427 
M921.718201,635.192017 
	C923.198547,631.133545 924.692566,627.080017 926.157043,623.015747 
	C943.634521,574.511108 958.266479,525.359558 958.995178,473.214417 
	C959.096191,465.986755 958.304504,458.590149 956.718018,451.543732 
	C955.390869,445.648987 949.193542,441.907837 944.523743,442.196411 
	C933.251282,442.892883 921.955139,443.249634 910.695679,444.101379 
	C894.432556,445.331635 877.874023,445.328278 862.007385,448.597595 
	C823.311523,456.570831 784.904846,465.970215 746.450317,475.084625 
	C712.673401,483.090363 681.086060,497.352112 649.073486,510.271606 
	C632.150391,517.101257 616.227966,526.506714 599.135620,532.798340 
	C571.715759,542.891541 546.224548,556.740479 520.789978,570.680908 
	C507.567291,577.928162 495.332916,587.057129 482.985809,595.807007 
	C457.736969,613.699890 432.748352,631.959534 407.568115,649.949890 
	C402.496948,653.573120 396.268707,655.874146 391.911316,660.148193 
	C371.468445,680.200256 351.018250,700.287231 331.525452,721.249634 
	C319.583649,734.091675 308.666504,748.065918 303.558441,765.511841 
	C299.529755,779.271301 299.681610,792.942871 305.220337,806.083130 
	C312.912292,824.331726 321.981659,841.773193 334.322510,857.586060 
	C351.953156,880.176575 371.791809,900.421753 394.196136,918.165039 
	C404.399109,926.245422 411.032867,925.345276 419.571991,915.626343 
	C425.347351,909.053040 431.022461,902.391602 436.732544,895.781006 
	C439.343658,902.693665 441.996246,909.677368 444.621063,916.671509 
	C458.449188,953.518555 473.039856,990.103027 485.859406,1027.297852 
	C496.857483,1059.207764 508.737305,1090.482056 528.935730,1117.850708 
	C534.038818,1124.765381 539.988770,1131.153320 546.163452,1137.151367 
	C552.503601,1143.310059 561.008423,1145.605347 569.317932,1143.744263 
	C578.585693,1141.668579 587.585022,1137.970947 596.341675,1134.154297 
	C605.315063,1130.243164 613.769653,1125.160645 622.598694,1120.895874 
	C643.867554,1110.622192 665.462341,1100.898682 684.777039,1087.119141 
	C698.023010,1077.669189 704.705994,1064.671509 705.161926,1048.012329 
	C705.666199,1029.585205 698.869019,1013.558289 691.026611,997.668335 
	C686.332520,988.157410 680.511047,979.534607 671.658997,973.291260 
	C669.678589,971.894470 667.969666,970.112732 665.553955,967.999146 
	C668.290894,967.137451 670.309448,966.475220 672.343933,965.866089 
	C681.094421,963.246277 689.836365,960.596802 698.606445,958.043823 
	C709.250244,954.945435 715.151367,948.012390 715.997620,936.889160 
	C717.570862,916.210815 714.117981,895.989502 709.333191,876.092224 
	C705.222717,858.998657 699.871826,842.177856 694.488403,825.423218 
	C689.407288,809.609253 684.065552,793.845276 673.433105,780.536438 
	C664.970764,769.943970 657.907349,767.736450 645.652832,773.883728 
	C626.673340,783.404480 611.582947,797.076904 603.311218,817.135315 
	C599.242554,827.001404 595.699768,837.084351 591.718262,847.599365 
	C589.583008,843.576660 586.855042,839.724731 585.387451,835.440979 
	C580.125549,820.082214 578.950684,804.262329 581.089722,788.170776 
	C582.021423,781.161499 585.152039,775.526428 591.177979,771.757690 
	C594.830750,769.473328 598.496094,766.964233 602.504639,765.533447 
	C628.624084,756.210693 654.625061,746.469910 681.085205,738.213013 
	C705.633850,730.552551 730.448303,723.314392 755.609375,718.148438 
	C791.744385,710.729370 828.101440,704.851379 862.998657,692.077393 
	C890.706909,681.934875 912.770386,666.900879 921.018433,636.818298 
	C921.105957,636.499084 921.254822,636.196594 921.718201,635.192017 
M1159.556274,1037.933716 
	C1162.365967,1038.951538 1165.145020,1040.065674 1167.990112,1040.972046 
	C1193.292847,1049.032837 1218.627197,1056.994873 1243.908447,1065.121826 
	C1254.013184,1068.370117 1259.860596,1065.724487 1263.153931,1055.602905 
	C1275.177124,1018.651611 1283.362183,980.851318 1287.819580,942.253662 
	C1291.339722,911.771790 1297.842773,881.943359 1307.158447,852.720886 
	C1307.672363,851.108398 1308.590454,849.624817 1309.950195,846.749329 
	C1316.740845,852.322937 1324.228027,856.335022 1328.675049,862.529724 
	C1340.659424,879.223938 1349.971436,897.538025 1353.041260,918.197266 
	C1356.334473,940.359192 1352.925171,962.158203 1346.341309,983.235779 
	C1337.003662,1013.129028 1322.705322,1040.657104 1303.408936,1065.467285 
	C1297.903564,1072.545654 1298.555786,1079.581421 1305.600586,1084.988525 
	C1308.304321,1087.063721 1311.579590,1088.601074 1314.821411,1089.734375 
	C1333.319092,1096.200806 1352.547974,1099.044678 1371.974976,1100.710571 
	C1386.802124,1101.981934 1401.550171,1101.696167 1416.145020,1098.228638 
	C1448.017944,1090.656006 1471.979736,1070.586914 1493.621948,1047.723755 
	C1507.202026,1033.377563 1518.941406,1017.251892 1531.098999,1001.607666 
	C1540.786987,989.140991 1550.494629,976.604736 1559.028687,963.349426 
	C1568.014648,949.391968 1574.368286,934.037781 1573.918945,916.960388 
	C1573.289307,893.028320 1564.696289,871.235229 1550.393066,852.846558 
	C1533.530640,831.167480 1511.180054,815.584656 1484.977539,806.197205 
	C1479.502319,804.235596 1474.018555,802.297974 1468.248535,800.246155 
	C1488.429199,789.633240 1507.427979,777.860535 1523.868896,762.785339 
	C1545.076904,743.339111 1560.598755,720.169800 1563.373535,690.471741 
	C1565.218750,670.723145 1561.054077,652.369507 1548.845703,636.339355 
	C1537.241211,621.101990 1522.408447,609.202026 1507.872070,596.979065 
	C1487.059937,579.478821 1463.138550,566.855835 1439.272461,554.489197 
	C1417.490967,543.202576 1394.703125,533.743713 1371.954834,524.470276 
	C1350.147705,515.580505 1328.132568,506.946442 1305.638550,500.064148 
	C1281.218750,492.592621 1256.238525,486.839874 1231.306152,481.207367 
	C1219.886719,478.627563 1208.095459,476.713196 1196.184448,479.047852 
	C1184.185059,481.399811 1172.666992,484.295197 1163.344116,493.290710 
	C1153.189697,503.088531 1148.475098,515.301086 1146.237793,528.570190 
	C1141.740967,555.240845 1140.084229,582.176514 1141.234253,609.196716 
	C1141.928711,625.514343 1144.213989,641.641785 1150.962280,656.816406 
	C1153.731323,663.043152 1157.889648,667.742798 1164.213379,670.371094 
	C1168.660645,672.219421 1173.239868,673.770752 1177.595215,675.807739 
	C1179.162231,676.540588 1180.997559,678.089417 1181.439087,679.630188 
	C1187.826782,701.914978 1192.498169,724.433838 1192.561768,747.834167 
	C1192.662598,784.974060 1187.846069,821.657471 1181.230957,857.973938 
	C1176.422974,884.368896 1169.100464,910.421509 1161.191040,936.100708 
	C1154.410645,958.114319 1145.128174,979.352417 1137.101562,1000.988892 
	C1131.581543,1015.868958 1137.727051,1029.280640 1152.389648,1034.986938 
	C1154.557007,1035.830322 1156.673462,1036.804565 1159.556274,1037.933716 
M1560.589233,1032.088745 
	C1540.294312,1050.165039 1526.596313,1073.029175 1514.973755,1097.055054 
	C1504.422974,1118.865356 1495.083374,1141.279297 1485.703979,1163.634521 
	C1471.505127,1197.476685 1458.193481,1231.696533 1443.660400,1265.391724 
	C1427.284180,1303.360474 1410.105347,1340.986206 1393.019775,1378.645020 
	C1381.510132,1404.013916 1367.318359,1427.853760 1350.874390,1450.362671 
	C1344.493896,1459.096436 1338.171021,1467.905762 1332.463989,1477.080078 
	C1330.429199,1480.350830 1328.655518,1485.288208 1329.642212,1488.609619 
	C1331.492554,1494.837891 1334.907104,1500.790405 1341.457764,1503.971558 
	C1358.068237,1512.037842 1375.282959,1517.661865 1393.936157,1518.440552 
	C1413.611572,1519.261719 1429.286743,1512.385742 1439.133667,1494.925415 
	C1451.944702,1472.208740 1464.887451,1449.527588 1476.594604,1426.238403 
	C1486.603271,1406.328369 1498.084595,1387.535400 1512.581787,1370.707275 
	C1519.284546,1362.926880 1526.740845,1355.618896 1536.888672,1352.048828 
	C1542.890869,1349.937134 1544.314087,1350.653687 1545.083618,1356.865234 
	C1546.553833,1368.730835 1545.523560,1380.445679 1542.601562,1392.005493 
	C1536.107544,1417.696655 1524.975830,1441.390625 1511.229492,1463.901733 
	C1508.215332,1468.837769 1504.507568,1473.385620 1500.823486,1477.869141 
	C1495.221558,1484.686768 1489.158569,1491.134766 1483.751953,1498.097290 
	C1482.389893,1499.851196 1481.733154,1503.508423 1482.665039,1505.291504 
	C1483.528076,1506.942871 1486.886841,1507.689697 1489.262573,1508.034668 
	C1491.489746,1508.358032 1493.947144,1507.922485 1496.169434,1507.323975 
	C1515.077026,1502.232422 1533.899414,1496.816284 1552.852783,1491.904053 
	C1583.557007,1483.946533 1610.530640,1467.914673 1637.357910,1452.040405 
	C1667.627441,1434.129395 1690.356689,1407.550049 1711.836426,1380.321899 
	C1728.533081,1359.157104 1742.697388,1336.110596 1754.779419,1311.924194 
	C1766.263062,1288.935791 1774.686890,1264.663696 1780.697510,1239.835449 
	C1787.608276,1211.289062 1787.552979,1181.971069 1783.965942,1152.875610 
	C1779.323975,1115.223999 1768.479004,1079.402466 1749.109619,1046.567993 
	C1740.758667,1032.411621 1732.372437,1018.195984 1719.109497,1007.624146 
	C1706.210693,997.342651 1692.672729,987.665283 1676.355713,985.008850 
	C1664.434814,983.068237 1651.823730,984.159485 1639.647461,985.279907 
	C1621.951172,986.908386 1605.508423,992.990173 1591.612305,1004.291748 
	C1581.034302,1012.894653 1571.234253,1022.453796 1560.589233,1032.088745 
M426.238983,1030.260376 
	C422.165863,1026.325073 418.156006,1022.321777 414.008453,1018.466553 
	C397.722504,1003.328674 380.135895,990.535583 357.490723,986.581116 
	C342.347900,983.936829 326.896912,981.323059 311.939301,984.951050 
	C288.793640,990.565125 269.643341,1003.769226 255.148666,1022.579468 
	C228.369308,1057.331909 213.686783,1097.549072 206.245605,1140.265381 
	C197.040070,1193.109985 203.929947,1244.369385 225.434479,1293.542603 
	C242.559204,1332.700562 264.899017,1368.658447 293.595612,1400.370483 
	C305.857819,1413.921143 318.678406,1427.219727 332.724915,1438.844971 
	C355.155212,1457.408447 381.270264,1470.430908 407.879700,1481.751831 
	C427.210754,1489.976074 447.631622,1495.768555 467.821289,1501.791626 
	C478.272705,1504.909546 489.250519,1506.338135 500.059357,1508.110474 
	C501.891632,1508.411011 504.925720,1507.109253 505.855103,1505.595947 
	C506.805725,1504.048462 506.147858,1501.255981 505.621948,1499.151611 
	C505.288727,1497.818359 503.960388,1496.703247 502.990784,1495.564819 
	C495.544800,1486.822510 486.997772,1478.791992 480.849121,1469.219604 
	C469.279053,1451.206909 458.808319,1432.484741 452.097168,1411.898804 
	C446.922974,1396.027344 441.920258,1380.202637 442.936981,1363.219604 
	C443.124725,1360.083618 443.622345,1356.947144 444.229309,1353.860596 
	C444.787842,1351.020264 446.699158,1349.831543 449.329254,1351.305664 
	C455.222321,1354.608521 461.510773,1357.493164 466.702484,1361.702393 
	C478.863556,1371.562134 488.070068,1384.259644 495.883179,1397.562012 
	C506.132843,1415.012817 514.878052,1433.348022 524.252808,1451.311768 
	C533.486267,1469.004883 542.484253,1486.822510 554.996765,1502.566528 
	C561.062988,1510.199463 568.670105,1515.287109 578.203735,1516.977051 
	C603.690063,1521.494873 627.293335,1514.879517 649.064514,1502.440063 
	C658.292419,1497.167358 663.976257,1485.878540 655.001099,1474.887085 
	C650.383789,1469.232422 646.686462,1462.837036 642.357788,1456.934448 
	C625.601013,1434.084595 610.441895,1410.275635 598.419373,1384.555786 
	C587.518555,1361.235474 576.256958,1338.076294 565.786987,1314.564331 
	C553.019714,1285.893799 540.715515,1257.011963 528.588745,1228.063232 
	C520.123413,1207.854858 512.474548,1187.305786 504.120697,1167.049194 
	C497.411285,1150.780151 489.975922,1134.810791 483.242767,1118.551025 
	C469.702209,1085.852417 453.094574,1055.185181 426.238983,1030.260376 
M1157.926880,776.527405 
	C1156.751709,765.968140 1156.725220,755.123901 1154.188965,744.902344 
	C1146.117676,712.373779 1130.555542,683.172546 1111.232544,656.067200 
	C1096.065796,634.792053 1080.362305,613.853394 1063.939331,593.539734 
	C1055.853394,583.538208 1046.055176,574.747253 1036.170532,566.432373 
	C1029.108276,560.491699 1018.033875,560.683228 1011.874573,565.780701 
	C1004.968872,571.495850 997.968201,577.334229 992.185364,584.121338 
	C977.703857,601.117737 967.660828,620.894653 959.161377,641.383728 
	C949.978577,663.520447 946.242676,687.054138 942.691589,710.582764 
	C941.954041,715.469421 944.127625,719.025574 947.465271,722.534302 
	C954.439636,729.866150 961.927917,736.984009 967.489075,745.332886 
	C983.130127,768.814575 994.915771,793.600342 990.181091,823.307129 
	C987.184998,842.105042 981.529541,859.919312 971.912476,876.219604 
	C963.751465,890.052063 950.355408,891.105286 939.029663,879.745605 
	C937.858032,878.570435 936.796875,877.274475 935.770325,875.967041 
	C927.370728,865.268982 924.331299,852.554138 924.104370,839.515991 
	C923.797485,821.883179 925.076965,804.227234 925.454346,786.576538 
	C925.763550,772.117249 926.053467,757.644775 925.753235,743.190552 
	C925.595032,735.575256 922.700623,728.596436 915.285400,725.119141 
	C911.970825,723.564758 907.902710,723.668640 904.213318,722.853455 
	C886.194946,718.872314 868.270874,719.268433 850.219055,723.040527 
	C829.940857,727.277954 811.222046,734.242310 796.905273,750.070984 
	C788.372314,759.504883 783.407776,770.941345 778.659729,782.510193 
	C769.410645,805.045959 763.520813,828.299744 764.053894,852.833252 
	C764.453308,871.216614 767.848511,889.190735 772.185913,907.007080 
	C782.410278,949.004517 806.857300,981.312500 840.621521,1007.191040 
	C862.212708,1023.739624 887.772583,1023.890747 913.119324,1023.581787 
	C937.090149,1023.289490 961.051941,1021.953491 985.008240,1020.868347 
	C1003.281250,1020.040710 1021.547058,1019.004761 1039.801025,1017.828247 
	C1048.512817,1017.266846 1057.257812,1015.450623 1063.880737,1009.580505 
	C1077.835327,997.212097 1091.301147,984.325500 1102.308838,969.059326 
	C1127.771118,933.747070 1141.768311,893.474548 1152.743774,852.025146 
	C1159.194702,827.663025 1158.731445,802.535339 1157.926880,776.527405 
M1106.264282,1305.760132 
	C1110.771973,1300.854492 1115.690430,1296.262573 1119.716675,1290.989258 
	C1137.481812,1267.721436 1149.096680,1241.826538 1153.147217,1212.594238 
	C1156.595703,1187.707031 1155.469849,1163.594238 1144.916016,1140.275391 
	C1137.272339,1123.386230 1129.456055,1106.441162 1117.041992,1092.678833 
	C1091.355835,1064.202759 1060.054688,1044.921753 1021.375854,1039.586182 
	C1000.632751,1036.724854 979.839172,1037.312378 959.176453,1040.637451 
	C936.782166,1044.241211 917.563110,1055.329224 899.178162,1067.675049 
	C867.582031,1088.892456 849.355713,1120.157593 838.330505,1155.395874 
	C829.386108,1183.983643 832.318176,1213.150024 842.207947,1241.237793 
	C860.181519,1292.284058 894.402161,1327.377319 946.212708,1344.451416 
	C969.848022,1352.240356 993.723999,1356.930908 1018.769348,1351.002319 
	C1051.533325,1343.246460 1081.862061,1331.094727 1106.264282,1305.760132 
M843.874817,1373.753418 
	C840.103210,1350.462158 826.864197,1334.377441 806.636658,1324.947632 
	C809.238953,1318.988403 812.497986,1313.778198 813.797729,1308.118164 
	C817.424194,1292.325684 815.274536,1277.067017 807.557983,1262.670044 
	C799.248718,1247.167358 793.360962,1244.641357 776.992615,1250.763550 
	C754.151001,1259.306885 732.438110,1270.132568 713.186523,1285.263550 
	C708.301514,1289.102905 703.980957,1294.024902 700.493164,1299.187378 
	C695.925537,1305.947998 693.779602,1314.085938 695.882019,1322.016479 
	C697.683411,1328.812012 701.391418,1335.145752 704.606384,1341.506714 
	C706.536072,1345.324585 709.973022,1347.756592 714.419189,1346.999756 
	C720.240845,1346.008789 722.846375,1349.078125 723.989014,1353.916870 
	C724.741150,1357.102051 725.326416,1360.541504 724.927124,1363.734619 
	C724.292847,1368.806763 721.153015,1372.701782 716.435242,1374.658447 
	C712.084412,1376.462646 709.129761,1373.186401 706.592285,1370.424927 
	C703.687805,1367.264038 700.772278,1363.895020 698.810303,1360.122925 
	C688.546204,1340.389648 687.885254,1319.081543 690.570068,1297.769409 
	C694.259277,1268.483887 714.271851,1251.660767 739.088135,1240.221069 
	C749.625854,1235.363403 761.689514,1233.740112 773.132385,1230.944336 
	C783.497070,1228.412109 790.861206,1222.560913 794.182800,1212.383423 
	C795.449890,1208.501099 795.840576,1204.239990 796.053040,1200.121826 
	C797.099792,1179.831909 798.360718,1159.538330 798.677246,1139.232544 
	C798.807556,1130.875000 797.789734,1122.182373 795.453674,1114.179321 
	C792.099792,1102.689087 785.063293,1093.750732 771.732849,1093.264526 
	C762.838440,1092.940186 753.781006,1093.371460 744.987854,1094.715820 
	C722.903809,1098.092407 703.511902,1108.491455 684.520264,1119.568237 
	C678.931641,1122.827759 673.352844,1126.366211 668.536804,1130.641235 
	C651.546631,1145.722412 635.496033,1161.865967 624.285095,1181.791260 
	C618.814392,1191.514404 614.455078,1202.268311 611.849121,1213.098633 
	C608.329285,1227.727661 606.227051,1242.812256 604.897217,1257.823730 
	C603.301697,1275.835083 602.090881,1293.917603 605.984436,1311.989746 
	C610.008362,1330.666992 612.202759,1349.760986 616.700989,1368.307983 
	C622.915894,1393.933838 636.192200,1416.566406 649.517517,1439.061646 
	C658.765198,1454.672852 671.590820,1466.581421 687.379089,1475.121216 
	C691.644897,1477.428589 697.365784,1478.856079 702.055359,1478.177246 
	C710.697449,1476.926025 719.146667,1474.059692 727.541077,1471.434204 
	C753.987488,1463.162720 777.615845,1449.269531 800.748840,1434.396729 
	C814.332825,1425.663330 827.339905,1416.677246 838.086670,1404.011475 
	C844.464233,1396.495239 844.141602,1389.165894 844.566284,1381.098022 
	C844.678650,1378.962891 844.154297,1376.794312 843.874817,1373.753418 
M1325.147461,1461.651367 
	C1360.162720,1409.318359 1355.366577,1356.714844 1326.810181,1303.169189 
	C1329.079224,1301.978516 1332.071899,1300.234863 1335.204102,1298.794067 
	C1349.602539,1292.170654 1361.343140,1282.400635 1370.434326,1269.421509 
	C1376.487793,1260.779175 1382.875366,1251.971436 1382.379150,1240.954956 
	C1381.925415,1230.882324 1380.879639,1220.582031 1378.187866,1210.912842 
	C1370.397949,1182.928711 1354.891968,1159.355469 1332.820679,1140.674438 
	C1303.236694,1115.634766 1271.540161,1094.575806 1231.123047,1091.197021 
	C1212.495972,1089.639771 1198.995239,1097.820068 1193.123169,1115.534058 
	C1189.208496,1127.343506 1188.853149,1139.291138 1189.686035,1151.508423 
	C1190.251221,1159.800293 1190.712769,1168.177490 1190.178589,1176.449219 
	C1189.224365,1191.225708 1187.991821,1206.022461 1185.951050,1220.681885 
	C1182.884033,1242.714722 1180.232788,1264.840576 1173.060425,1286.128540 
	C1164.270020,1312.218994 1154.118896,1337.566895 1137.798096,1360.057617 
	C1134.593262,1364.473999 1131.930054,1369.352783 1129.530273,1374.268921 
	C1125.136108,1383.270630 1125.518799,1387.862915 1133.166382,1394.127197 
	C1142.909302,1402.107666 1153.290161,1409.383789 1163.856812,1416.254761 
	C1169.637085,1420.013550 1176.240356,1422.633911 1182.703857,1425.180664 
	C1189.571899,1427.886841 1193.100586,1426.693237 1197.403320,1420.908813 
	C1199.976196,1417.449829 1202.356567,1413.812500 1204.480225,1410.061035 
	C1211.685181,1397.333374 1218.647217,1384.468018 1225.883667,1371.758789 
	C1229.726685,1365.009277 1233.944336,1358.473389 1237.992920,1351.841187 
	C1238.445435,1351.868408 1238.897827,1351.895630 1239.350220,1351.922852 
	C1241.269775,1359.220215 1244.059326,1366.413452 1244.948486,1373.834351 
	C1247.801758,1397.644653 1245.526123,1420.975098 1236.378418,1443.395020 
	C1234.767212,1447.343872 1235.254883,1451.267700 1238.959595,1453.661011 
	C1254.452759,1463.670654 1270.087646,1473.461060 1285.694214,1483.294434 
	C1286.662598,1483.904541 1287.809082,1484.271484 1288.914673,1484.617310 
	C1297.299561,1487.239136 1304.938477,1486.918213 1310.921021,1479.310425 
	C1315.446899,1473.555054 1320.157715,1467.945190 1325.147461,1461.651367 
M1597.309448,842.875244 
	C1623.713867,831.809082 1647.473511,816.821289 1666.513062,795.163635 
	C1677.275635,782.921326 1682.829590,769.627014 1676.431519,752.679810 
	C1667.098389,727.957886 1652.456177,707.552979 1631.385864,691.782227 
	C1625.189941,687.144714 1618.865479,682.340881 1611.891968,679.170044 
	C1603.992798,675.578247 1598.751953,677.368835 1594.529053,684.943176 
	C1587.836670,696.946533 1582.279907,709.577515 1576.040405,721.840088 
	C1565.117920,743.306152 1554.587646,765.001770 1542.764771,785.964844 
	C1537.963013,794.479004 1537.453613,802.782654 1540.704712,810.586243 
	C1544.607178,819.952820 1550.214111,828.886230 1556.478882,836.918518 
	C1563.661011,846.127014 1574.151611,848.681458 1585.580933,846.315369 
	C1589.303711,845.544739 1592.902466,844.175415 1597.309448,842.875244 
M1628.829346,917.343384 
	C1624.675171,926.742004 1620.388184,936.084961 1616.417603,945.560547 
	C1614.095947,951.100769 1617.061890,956.154358 1623.112427,956.788269 
	C1626.502563,957.143433 1630.125122,956.820374 1633.444092,955.998962 
	C1640.690796,954.205444 1647.789307,951.822632 1654.985840,949.814392 
	C1682.422241,942.157776 1707.959106,930.330566 1731.744385,914.729309 
	C1744.245728,906.529419 1753.747925,895.603455 1754.499390,880.217163 
	C1755.255371,864.739258 1750.893799,849.876099 1743.346558,836.263000 
	C1735.922485,822.872070 1725.068359,819.387390 1711.981689,827.179382 
	C1702.188354,833.010437 1692.871216,839.971436 1684.370483,847.578552 
	C1662.140503,867.471313 1643.755493,890.607300 1628.829346,917.343384 
M241.041824,899.402954 
	C245.967499,904.297791 250.352585,909.958130 255.945480,913.908203 
	C264.337067,919.834839 273.417938,924.854919 282.485382,929.741516 
	C305.920441,942.371216 331.464386,949.314819 356.862091,956.558167 
	C359.641602,957.350891 362.858795,957.176147 365.780792,956.776306 
	C370.886047,956.077759 374.137787,951.614807 372.750946,947.142029 
	C371.134491,941.928528 369.261688,936.749268 366.980896,931.794250 
	C352.230865,899.750000 331.177673,872.259399 305.265961,848.554749 
	C296.847473,840.853333 287.572021,833.839905 277.857300,827.862854 
	C263.539093,819.053284 251.888153,822.440918 244.622086,837.679626 
	C240.245468,846.858521 237.602066,856.975220 235.086227,866.900330 
	C232.236511,878.142517 233.697357,889.055298 241.041824,899.402954 
M223.534363,923.081726 
	C211.227463,921.513855 203.787811,927.385010 199.846878,938.590393 
	C197.424652,945.477600 194.110855,952.203308 192.808167,959.297363 
	C190.748886,970.511719 189.172607,981.964294 189.039246,993.335327 
	C188.933807,1002.325806 196.355270,1008.311035 205.174377,1006.834717 
	C214.425949,1005.285950 223.811584,1002.958130 232.381744,999.230713 
	C253.524902,990.034485 274.220398,979.811218 295.126709,970.067017 
	C302.080750,966.825806 303.035858,961.559509 297.080994,956.743225 
	C292.040985,952.666809 286.655945,949.015442 281.404633,945.202026 
	C264.357422,932.822632 245.415100,925.319031 223.534363,923.081726 
M1722.341064,935.820374 
	C1712.007080,942.796814 1701.476929,949.504700 1691.413452,956.851807 
	C1685.502808,961.166992 1686.612915,966.917603 1693.181641,969.959656 
	C1709.308594,977.428284 1725.276611,985.257263 1741.562622,992.358582 
	C1753.400391,997.520325 1765.469849,1002.290039 1777.751831,1006.256409 
	C1792.101807,1010.890747 1800.526123,1000.605713 1800.124756,988.597046 
	C1799.531738,970.860718 1795.790161,953.926392 1788.368530,937.930603 
	C1780.399658,920.755676 1777.368164,922.524475 1761.322876,923.629883 
	C1747.949707,924.551270 1734.860596,928.579956 1722.341064,935.820374 
M988.353333,538.343384 
	C988.353333,538.343384 988.583435,538.477295 988.583435,538.477295 
	C988.583435,538.477295 988.539978,538.151794 988.353333,538.343384 
z"/>
<path fill="#FFFFFF" opacity="1.000000" stroke="none" 
	d="
M999.005615,498.234985 
	C999.339355,495.511658 999.878906,493.268036 999.968750,491.006531 
	C1000.382446,480.591888 1001.591919,470.103180 1000.816956,459.768433 
	C999.071228,436.487152 989.835632,417.774414 966.781006,405.381866 
	C1253.190308,405.381866 1538.897095,405.381866 1824.800049,405.381866 
	C1824.800049,575.760559 1824.800049,746.114990 1824.800049,917.034241 
	C1818.034790,904.714905 1809.557861,894.718933 1797.714966,887.805847 
	C1796.689209,887.207031 1795.999634,885.048523 1796.087891,883.674500 
	C1797.250122,865.595520 1793.154663,848.423828 1786.958618,831.699890 
	C1778.545654,808.992615 1764.955811,790.964417 1740.449707,784.041626 
	C1734.099487,782.247803 1727.285767,782.095032 1720.120605,781.110962 
	C1720.363892,779.108887 1720.735840,776.480713 1720.995361,773.841431 
	C1722.473999,758.810974 1718.415405,744.775452 1712.580811,731.270752 
	C1707.034302,718.432617 1700.900513,705.883667 1692.332764,694.597046 
	C1683.763306,683.307922 1674.179443,673.175659 1663.017456,664.451660 
	C1656.716309,659.526917 1651.083740,653.676636 1644.500488,649.198242 
	C1631.848999,640.591858 1618.027588,634.958252 1602.245483,635.987976 
	C1601.249512,636.052979 1600.222900,635.872314 1599.253296,636.045715 
	C1598.359863,636.205505 1597.523926,636.688293 1596.361938,637.147705 
	C1588.330688,613.748291 1571.210571,597.230103 1553.688232,581.641968 
	C1537.362183,567.118164 1519.574463,554.115967 1501.653809,541.551208 
	C1490.796143,533.938416 1478.368652,528.593628 1466.811523,521.943054 
	C1442.648926,508.038788 1416.752197,497.990204 1391.022949,487.576782 
	C1371.878418,479.828430 1352.933228,471.396973 1333.331299,465.014160 
	C1304.793213,455.721558 1275.735596,448.128662 1246.346313,441.727631 
	C1232.086548,438.621857 1217.722290,435.558594 1203.408447,436.327698 
	C1173.648804,437.926819 1146.795776,447.375610 1127.008789,471.476868 
	C1115.810669,485.116638 1108.943726,500.755981 1106.104614,518.013306 
	C1103.887695,531.489014 1102.659790,545.127380 1100.995728,558.693909 
	C1100.517822,562.590576 1100.051025,566.488647 1099.518188,570.889099 
	C1097.761719,568.835083 1096.190796,566.690430 1094.316040,564.856567 
	C1083.613281,554.387756 1073.380737,543.343628 1061.922974,533.770020 
	C1052.016235,525.492371 1039.963379,521.024719 1026.650635,520.974548 
	C1016.691162,520.937073 1006.683472,520.412231 997.001709,526.701111 
	C997.711182,516.783142 998.357727,507.744812 999.005615,498.234985 
z"/>
<path fill="#FFFFFF" opacity="1.000000" stroke="none" 
	d="
M246.268707,784.006836 
	C235.191055,788.138672 226.177231,794.536987 218.423080,802.971741 
	C208.911850,813.317871 203.221359,825.657227 199.076859,838.789368 
	C196.953003,845.518921 195.184311,852.437988 194.118317,859.403503 
	C192.907547,867.314819 192.796234,875.389160 191.889114,883.356384 
	C191.692841,885.080200 190.546646,887.231384 189.152954,888.199707 
	C176.575958,896.937500 167.268921,908.231750 161.260956,923.119751 
	C161.260956,750.136230 161.260956,577.833801 161.260956,405.267700 
	C396.677155,405.267700 632.083496,405.267700 866.543518,405.267700 
	C854.115601,407.472321 840.693054,409.395294 827.489136,412.309265 
	C810.222656,416.119873 793.119873,420.677002 775.963623,424.980865 
	C756.172363,429.945801 736.058167,433.938751 716.705261,440.256287 
	C692.520081,448.151337 668.836243,457.655457 645.186523,467.093048 
	C628.223389,473.862274 611.696167,481.719025 594.929016,488.985596 
	C578.479065,496.114685 561.773560,502.689392 545.556152,510.307678 
	C533.959839,515.755188 522.888733,522.357544 511.758301,528.749451 
	C500.332245,535.311157 488.774384,541.734863 477.882263,549.116272 
	C453.157745,565.871643 428.333099,582.547485 404.462067,600.471375 
	C387.148987,613.471130 369.040070,625.584351 353.868988,641.400146 
	C345.594208,650.026489 335.416260,656.838562 327.227753,665.534119 
	C310.394989,683.409180 291.910339,699.953979 279.198578,721.366760 
	C274.460114,729.348633 268.965393,737.190430 266.009949,745.845398 
	C262.126617,757.217712 260.410828,769.330200 257.648468,781.634033 
	C254.787643,782.249512 250.735306,783.121277 246.268707,784.006836 
z"/>
<path fill="#FFFFFF" opacity="1.000000" stroke="none" 
	d="
M1224.000000,1554.995972 
	C1026.225708,1554.995972 828.951294,1554.995972 632.497009,1554.995972 
	C643.172424,1550.518188 654.624390,1546.056763 665.770752,1540.931274 
	C674.744873,1536.804565 682.324341,1530.601562 687.835144,1522.278198 
	C689.199829,1520.216919 690.162720,1520.568359 692.346069,1520.553345 
	C699.466431,1520.504883 706.729309,1520.085693 713.669312,1518.576416 
	C741.789795,1512.460449 768.622314,1502.215210 793.224121,1487.615967 
	C816.929688,1473.548584 842.072266,1461.038208 861.123840,1440.241455 
	C870.376770,1430.140869 881.141907,1420.874512 884.119568,1406.439575 
	C884.834412,1402.974487 885.904236,1399.475098 885.908081,1395.990479 
	C885.920654,1384.514526 885.519043,1373.038208 885.283020,1361.870850 
	C915.049072,1379.588135 947.942078,1391.967285 983.742920,1394.873779 
	C1020.381226,1397.848022 1053.989014,1386.183960 1086.842529,1371.328979 
	C1081.739868,1390.039429 1087.686523,1405.601074 1099.988770,1419.554810 
	C1108.537964,1429.251465 1119.406616,1435.882568 1129.692139,1443.384155 
	C1143.476196,1453.437500 1157.892822,1462.109985 1174.595581,1465.997192 
	C1182.095459,1467.742920 1189.978271,1467.843018 1198.671265,1468.797852 
	C1205.762085,1484.153198 1221.305298,1492.372559 1236.022705,1501.518311 
	C1245.721924,1507.545532 1255.180176,1514.012817 1265.182129,1519.486450 
	C1276.424438,1525.638794 1288.680664,1528.540405 1301.643066,1528.083374 
	C1303.421265,1528.020630 1305.818115,1528.467407 1306.943481,1529.630981 
	C1315.754517,1538.741455 1326.999268,1543.551758 1338.473022,1547.979370 
	C1344.404663,1550.268066 1350.429810,1552.314575 1357.870483,1554.995972 
	C1312.442383,1554.995972 1268.471191,1554.995972 1224.000000,1554.995972 
z"/>
<path fill="#FFFFFF" opacity="1.000000" stroke="none" 
	d="
M161.004150,1549.888672 
	C161.004150,1435.781616 161.004150,1322.164429 161.004150,1208.547363 
	C161.131790,1208.548828 161.259445,1208.550293 161.387085,1208.551758 
	C162.256607,1216.256958 163.209061,1223.953857 163.977859,1231.669189 
	C165.443253,1246.374634 169.621262,1260.377441 174.605682,1274.205200 
	C178.191406,1284.152710 180.864059,1294.484741 185.133057,1304.118286 
	C192.214935,1320.099854 199.770721,1335.916870 208.046234,1351.309082 
	C214.280899,1362.905151 221.497375,1374.050781 229.104965,1384.811523 
	C238.089142,1397.519409 247.427505,1410.061401 257.595520,1421.825439 
	C269.162109,1435.207642 281.703583,1447.758789 294.028107,1460.470703 
	C305.535522,1472.339844 319.221741,1481.536377 333.313812,1489.867432 
	C348.803345,1499.024780 364.937164,1507.109741 380.924652,1515.402954 
	C400.827057,1525.726562 422.293945,1531.855835 443.721741,1537.950317 
	C457.467133,1541.859863 471.294952,1545.609497 485.272888,1548.537842 
	C501.919006,1552.024902 518.035767,1551.033813 531.338867,1539.367065 
	C540.005676,1544.666016 548.554932,1549.893311 556.530457,1554.769653 
	C425.474152,1554.769653 293.486969,1554.769653 161.004150,1554.769653 
	C161.004150,1553.262573 161.004150,1551.820679 161.004150,1549.888672 
z"/>
<path fill="#FFFFFF" opacity="1.000000" stroke="none" 
	d="
M1725.798828,1428.704590 
	C1731.179688,1422.307983 1736.588623,1416.379272 1741.392212,1409.995239 
	C1748.482422,1400.571655 1755.632812,1391.130859 1761.875854,1381.145874 
	C1772.610596,1363.977051 1783.855469,1346.960327 1792.665649,1328.802368 
	C1801.226318,1311.158447 1807.327515,1292.277344 1813.869629,1273.714355 
	C1817.805908,1262.545410 1820.573364,1250.960449 1823.731567,1239.525269 
	C1824.240356,1237.683228 1824.043701,1235.646362 1824.676636,1233.718628 
	C1824.676636,1340.597534 1824.676636,1447.476318 1824.676636,1554.675781 
	C1693.457520,1554.675781 1562.071655,1554.675781 1431.520752,1554.675781 
	C1439.595825,1549.939453 1448.406494,1544.771606 1457.639771,1539.355835 
	C1470.869385,1551.315796 1487.246338,1552.198975 1504.215698,1548.259888 
	C1521.408691,1544.268921 1538.440918,1539.567749 1555.489380,1534.976685 
	C1581.680176,1527.923584 1606.193970,1516.768799 1630.013184,1503.992310 
	C1649.193359,1493.704102 1668.245483,1483.122559 1685.082764,1469.211670 
	C1692.271118,1463.272583 1698.429810,1456.086670 1705.054688,1449.465698 
	C1711.889771,1442.634766 1718.722534,1435.801514 1725.798828,1428.704590 
z"/>
<path fill="#FFFFFF" opacity="1.000000" stroke="none" 
	d="
M186.011581,1060.131592 
	C173.202072,1095.819946 161.604904,1131.377075 161.262222,1169.520386 
	C161.262222,1122.859131 161.262222,1076.197754 161.262222,1028.751587 
	C168.725876,1039.682861 179.831314,1044.229858 191.264542,1048.515747 
	C189.415665,1052.475586 187.721786,1056.103638 186.011581,1060.131592 
z"/>
<path fill="#FFFFFF" opacity="1.000000" stroke="none" 
	d="
M1805.228882,1045.316895 
	C1811.996216,1041.193604 1818.473633,1037.339355 1824.642578,1033.668579 
	C1824.642578,1067.341675 1824.642578,1102.340942 1824.642578,1137.340088 
	C1819.296753,1106.690063 1809.511597,1077.372437 1797.374146,1048.220459 
	C1799.796387,1047.376831 1802.367676,1046.481445 1805.228882,1045.316895 
z"/>
<path fill="#260742" opacity="1.000000" stroke="none" 
	d="
M921.546631,635.539185 
	C921.254822,636.196594 921.105957,636.499084 921.018433,636.818298 
	C912.770386,666.900879 890.706909,681.934875 862.998657,692.077393 
	C828.101440,704.851379 791.744385,710.729370 755.609375,718.148438 
	C730.448303,723.314392 705.633850,730.552551 681.085205,738.213013 
	C654.625061,746.469910 628.624084,756.210693 602.504639,765.533447 
	C598.496094,766.964233 594.830750,769.473328 591.177979,771.757690 
	C585.152039,775.526428 582.021423,781.161499 581.089722,788.170776 
	C578.950684,804.262329 580.125549,820.082214 585.387451,835.440979 
	C586.855042,839.724731 589.583008,843.576660 591.718262,847.599365 
	C595.699768,837.084351 599.242554,827.001404 603.311218,817.135315 
	C611.582947,797.076904 626.673340,783.404480 645.652832,773.883728 
	C657.907349,767.736450 664.970764,769.943970 673.433105,780.536438 
	C684.065552,793.845276 689.407288,809.609253 694.488403,825.423218 
	C699.871826,842.177856 705.222717,858.998657 709.333191,876.092224 
	C714.117981,895.989502 717.570862,916.210815 715.997620,936.889160 
	C715.151367,948.012390 709.250244,954.945435 698.606445,958.043823 
	C689.836365,960.596802 681.094421,963.246277 672.343933,965.866089 
	C670.309448,966.475220 668.290894,967.137451 665.553955,967.999146 
	C667.969666,970.112732 669.678589,971.894470 671.658997,973.291260 
	C680.511047,979.534607 686.332520,988.157410 691.026611,997.668335 
	C698.869019,1013.558289 705.666199,1029.585205 705.161926,1048.012329 
	C704.705994,1064.671509 698.023010,1077.669189 684.777039,1087.119141 
	C665.462341,1100.898682 643.867554,1110.622192 622.598694,1120.895874 
	C613.769653,1125.160645 605.315063,1130.243164 596.341675,1134.154297 
	C587.585022,1137.970947 578.585693,1141.668579 569.317932,1143.744263 
	C561.008423,1145.605347 552.503601,1143.310059 546.163452,1137.151367 
	C539.988770,1131.153320 534.038818,1124.765381 528.935730,1117.850708 
	C508.737305,1090.482056 496.857483,1059.207764 485.859406,1027.297852 
	C473.039856,990.103027 458.449188,953.518555 444.621063,916.671509 
	C441.996246,909.677368 439.343658,902.693665 436.732544,895.781006 
	C431.022461,902.391602 425.347351,909.053040 419.571991,915.626343 
	C411.032867,925.345276 404.399109,926.245422 394.196136,918.165039 
	C371.791809,900.421753 351.953156,880.176575 334.322510,857.586060 
	C321.981659,841.773193 312.912292,824.331726 305.220337,806.083130 
	C299.681610,792.942871 299.529755,779.271301 303.558441,765.511841 
	C308.666504,748.065918 319.583649,734.091675 331.525452,721.249634 
	C351.018250,700.287231 371.468445,680.200256 391.911316,660.148193 
	C396.268707,655.874146 402.496948,653.573120 407.568115,649.949890 
	C432.748352,631.959534 457.736969,613.699890 482.985809,595.807007 
	C495.332916,587.057129 507.567291,577.928162 520.789978,570.680908 
	C546.224548,556.740479 571.715759,542.891541 599.135620,532.798340 
	C616.227966,526.506714 632.150391,517.101257 649.073486,510.271606 
	C681.086060,497.352112 712.673401,483.090363 746.450317,475.084625 
	C784.904846,465.970215 823.311523,456.570831 862.007385,448.597595 
	C877.874023,445.328278 894.432556,445.331635 910.695679,444.101379 
	C921.955139,443.249634 933.251282,442.892883 944.523743,442.196411 
	C949.193542,441.907837 955.390869,445.648987 956.718018,451.543732 
	C958.304504,458.590149 959.096191,465.986755 958.995178,473.214417 
	C958.266479,525.359558 943.634521,574.511108 926.157043,623.015747 
	C924.692566,627.080017 923.198547,631.133545 921.546631,635.539185 
z"/>
<path fill="#270842" opacity="1.000000" stroke="none" 
	d="
M1159.184814,1037.825928 
	C1156.673462,1036.804565 1154.557007,1035.830322 1152.389648,1034.986938 
	C1137.727051,1029.280640 1131.581543,1015.868958 1137.101562,1000.988892 
	C1145.128174,979.352417 1154.410645,958.114319 1161.191040,936.100708 
	C1169.100464,910.421509 1176.422974,884.368896 1181.230957,857.973938 
	C1187.846069,821.657471 1192.662598,784.974060 1192.561768,747.834167 
	C1192.498169,724.433838 1187.826782,701.914978 1181.439087,679.630188 
	C1180.997559,678.089417 1179.162231,676.540588 1177.595215,675.807739 
	C1173.239868,673.770752 1168.660645,672.219421 1164.213379,670.371094 
	C1157.889648,667.742798 1153.731323,663.043152 1150.962280,656.816406 
	C1144.213989,641.641785 1141.928711,625.514343 1141.234253,609.196716 
	C1140.084229,582.176514 1141.740967,555.240845 1146.237793,528.570190 
	C1148.475098,515.301086 1153.189697,503.088531 1163.344116,493.290710 
	C1172.666992,484.295197 1184.185059,481.399811 1196.184448,479.047852 
	C1208.095459,476.713196 1219.886719,478.627563 1231.306152,481.207367 
	C1256.238525,486.839874 1281.218750,492.592621 1305.638550,500.064148 
	C1328.132568,506.946442 1350.147705,515.580505 1371.954834,524.470276 
	C1394.703125,533.743713 1417.490967,543.202576 1439.272461,554.489197 
	C1463.138550,566.855835 1487.059937,579.478821 1507.872070,596.979065 
	C1522.408447,609.202026 1537.241211,621.101990 1548.845703,636.339355 
	C1561.054077,652.369507 1565.218750,670.723145 1563.373535,690.471741 
	C1560.598755,720.169800 1545.076904,743.339111 1523.868896,762.785339 
	C1507.427979,777.860535 1488.429199,789.633240 1468.248535,800.246155 
	C1474.018555,802.297974 1479.502319,804.235596 1484.977539,806.197205 
	C1511.180054,815.584656 1533.530640,831.167480 1550.393066,852.846558 
	C1564.696289,871.235229 1573.289307,893.028320 1573.918945,916.960388 
	C1574.368286,934.037781 1568.014648,949.391968 1559.028687,963.349426 
	C1550.494629,976.604736 1540.786987,989.140991 1531.098999,1001.607666 
	C1518.941406,1017.251892 1507.202026,1033.377563 1493.621948,1047.723755 
	C1471.979736,1070.586914 1448.017944,1090.656006 1416.145020,1098.228638 
	C1401.550171,1101.696167 1386.802124,1101.981934 1371.974976,1100.710571 
	C1352.547974,1099.044678 1333.319092,1096.200806 1314.821411,1089.734375 
	C1311.579590,1088.601074 1308.304321,1087.063721 1305.600586,1084.988525 
	C1298.555786,1079.581421 1297.903564,1072.545654 1303.408936,1065.467285 
	C1322.705322,1040.657104 1337.003662,1013.129028 1346.341309,983.235779 
	C1352.925171,962.158203 1356.334473,940.359192 1353.041260,918.197266 
	C1349.971436,897.538025 1340.659424,879.223938 1328.675049,862.529724 
	C1324.228027,856.335022 1316.740845,852.322937 1309.950195,846.749329 
	C1308.590454,849.624817 1307.672363,851.108398 1307.158447,852.720886 
	C1297.842773,881.943359 1291.339722,911.771790 1287.819580,942.253662 
	C1283.362183,980.851318 1275.177124,1018.651611 1263.153931,1055.602905 
	C1259.860596,1065.724487 1254.013184,1068.370117 1243.908447,1065.121826 
	C1218.627197,1056.994873 1193.292847,1049.032837 1167.990112,1040.972046 
	C1165.145020,1040.065674 1162.365967,1038.951538 1159.184814,1037.825928 
M1388.144897,643.538391 
	C1382.898682,638.528320 1378.435669,631.991211 1372.247559,628.817871 
	C1358.271484,621.650818 1343.535400,615.914673 1328.912354,610.088684 
	C1323.726929,608.022705 1317.972900,607.383789 1312.407715,606.076843 
	C1312.407715,636.840759 1312.407715,666.266602 1312.407715,695.700745 
	C1335.760742,697.559875 1356.831177,692.694824 1376.416748,680.834290 
	C1391.511963,671.692871 1395.503540,660.373840 1388.144897,643.538391 
z"/>
<path fill="#270842" opacity="1.000000" stroke="none" 
	d="
M1560.838623,1031.838135 
	C1571.234253,1022.453796 1581.034302,1012.894653 1591.612305,1004.291748 
	C1605.508423,992.990173 1621.951172,986.908386 1639.647461,985.279907 
	C1651.823730,984.159485 1664.434814,983.068237 1676.355713,985.008850 
	C1692.672729,987.665283 1706.210693,997.342651 1719.109497,1007.624146 
	C1732.372437,1018.195984 1740.758667,1032.411621 1749.109619,1046.567993 
	C1768.479004,1079.402466 1779.323975,1115.223999 1783.965942,1152.875610 
	C1787.552979,1181.971069 1787.608276,1211.289062 1780.697510,1239.835449 
	C1774.686890,1264.663696 1766.263062,1288.935791 1754.779419,1311.924194 
	C1742.697388,1336.110596 1728.533081,1359.157104 1711.836426,1380.321899 
	C1690.356689,1407.550049 1667.627441,1434.129395 1637.357910,1452.040405 
	C1610.530640,1467.914673 1583.557007,1483.946533 1552.852783,1491.904053 
	C1533.899414,1496.816284 1515.077026,1502.232422 1496.169434,1507.323975 
	C1493.947144,1507.922485 1491.489746,1508.358032 1489.262573,1508.034668 
	C1486.886841,1507.689697 1483.528076,1506.942871 1482.665039,1505.291504 
	C1481.733154,1503.508423 1482.389893,1499.851196 1483.751953,1498.097290 
	C1489.158569,1491.134766 1495.221558,1484.686768 1500.823486,1477.869141 
	C1504.507568,1473.385620 1508.215332,1468.837769 1511.229492,1463.901733 
	C1524.975830,1441.390625 1536.107544,1417.696655 1542.601562,1392.005493 
	C1545.523560,1380.445679 1546.553833,1368.730835 1545.083618,1356.865234 
	C1544.314087,1350.653687 1542.890869,1349.937134 1536.888672,1352.048828 
	C1526.740845,1355.618896 1519.284546,1362.926880 1512.581787,1370.707275 
	C1498.084595,1387.535400 1486.603271,1406.328369 1476.594604,1426.238403 
	C1464.887451,1449.527588 1451.944702,1472.208740 1439.133667,1494.925415 
	C1429.286743,1512.385742 1413.611572,1519.261719 1393.936157,1518.440552 
	C1375.282959,1517.661865 1358.068237,1512.037842 1341.457764,1503.971558 
	C1334.907104,1500.790405 1331.492554,1494.837891 1329.642212,1488.609619 
	C1328.655518,1485.288208 1330.429199,1480.350830 1332.463989,1477.080078 
	C1338.171021,1467.905762 1344.493896,1459.096436 1350.874390,1450.362671 
	C1367.318359,1427.853760 1381.510132,1404.013916 1393.019775,1378.645020 
	C1410.105347,1340.986206 1427.284180,1303.360474 1443.660400,1265.391724 
	C1458.193481,1231.696533 1471.505127,1197.476685 1485.703979,1163.634521 
	C1495.083374,1141.279297 1504.422974,1118.865356 1514.973755,1097.055054 
	C1526.596313,1073.029175 1540.294312,1050.165039 1560.838623,1031.838135 
M1637.449463,1146.949951 
	C1631.386108,1158.212524 1625.634033,1169.656860 1619.185303,1180.694214 
	C1609.800659,1196.756714 1599.659302,1212.379272 1590.370972,1228.494873 
	C1586.805908,1234.680420 1584.698608,1241.706177 1581.734131,1248.811523 
	C1584.138550,1249.344604 1585.462646,1250.016724 1586.664917,1249.843262 
	C1594.352051,1248.735352 1601.997559,1247.333130 1609.691040,1246.278076 
	C1611.823853,1245.985596 1614.694458,1245.781250 1616.092285,1246.923950 
	C1617.469971,1248.050049 1618.044189,1251.000000 1617.835449,1253.033325 
	C1617.501465,1256.287964 1616.270142,1259.458008 1615.346924,1262.643066 
	C1612.643433,1271.969238 1609.904785,1281.285156 1607.180054,1290.605225 
	C1607.666016,1290.856689 1608.152100,1291.108154 1608.638184,1291.359619 
	C1616.075073,1288.216553 1623.791382,1285.181152 1628.548340,1278.191284 
	C1633.183350,1271.380249 1637.071899,1264.045776 1641.049316,1256.809814 
	C1642.735596,1253.742310 1644.514893,1250.245850 1648.258667,1251.239258 
	C1650.795898,1251.912354 1653.324829,1254.613037 1654.731689,1257.055420 
	C1656.565918,1260.239990 1657.286377,1264.066162 1658.647339,1268.093262 
	C1673.957031,1239.381348 1680.943848,1209.174805 1680.405640,1177.260498 
	C1679.869751,1145.476685 1673.723022,1114.913208 1660.289917,1087.636963 
	C1652.991455,1106.668091 1645.395386,1126.474976 1637.449463,1146.949951 
z"/>
<path fill="#270843" opacity="1.000000" stroke="none" 
	d="
M426.487579,1030.511963 
	C453.094574,1055.185181 469.702209,1085.852417 483.242767,1118.551025 
	C489.975922,1134.810791 497.411285,1150.780151 504.120697,1167.049194 
	C512.474548,1187.305786 520.123413,1207.854858 528.588745,1228.063232 
	C540.715515,1257.011963 553.019714,1285.893799 565.786987,1314.564331 
	C576.256958,1338.076294 587.518555,1361.235474 598.419373,1384.555786 
	C610.441895,1410.275635 625.601013,1434.084595 642.357788,1456.934448 
	C646.686462,1462.837036 650.383789,1469.232422 655.001099,1474.887085 
	C663.976257,1485.878540 658.292419,1497.167358 649.064514,1502.440063 
	C627.293335,1514.879517 603.690063,1521.494873 578.203735,1516.977051 
	C568.670105,1515.287109 561.062988,1510.199463 554.996765,1502.566528 
	C542.484253,1486.822510 533.486267,1469.004883 524.252808,1451.311768 
	C514.878052,1433.348022 506.132843,1415.012817 495.883179,1397.562012 
	C488.070068,1384.259644 478.863556,1371.562134 466.702484,1361.702393 
	C461.510773,1357.493164 455.222321,1354.608521 449.329254,1351.305664 
	C446.699158,1349.831543 444.787842,1351.020264 444.229309,1353.860596 
	C443.622345,1356.947144 443.124725,1360.083618 442.936981,1363.219604 
	C441.920258,1380.202637 446.922974,1396.027344 452.097168,1411.898804 
	C458.808319,1432.484741 469.279053,1451.206909 480.849121,1469.219604 
	C486.997772,1478.791992 495.544800,1486.822510 502.990784,1495.564819 
	C503.960388,1496.703247 505.288727,1497.818359 505.621948,1499.151611 
	C506.147858,1501.255981 506.805725,1504.048462 505.855103,1505.595947 
	C504.925720,1507.109253 501.891632,1508.411011 500.059357,1508.110474 
	C489.250519,1506.338135 478.272705,1504.909546 467.821289,1501.791626 
	C447.631622,1495.768555 427.210754,1489.976074 407.879700,1481.751831 
	C381.270264,1470.430908 355.155212,1457.408447 332.724915,1438.844971 
	C318.678406,1427.219727 305.857819,1413.921143 293.595612,1400.370483 
	C264.899017,1368.658447 242.559204,1332.700562 225.434479,1293.542603 
	C203.929947,1244.369385 197.040070,1193.109985 206.245605,1140.265381 
	C213.686783,1097.549072 228.369308,1057.331909 255.148666,1022.579468 
	C269.643341,1003.769226 288.793640,990.565125 311.939301,984.951050 
	C326.896912,981.323059 342.347900,983.936829 357.490723,986.581116 
	C380.135895,990.535583 397.722504,1003.328674 414.008453,1018.466553 
	C418.156006,1022.321777 422.165863,1026.325073 426.487579,1030.511963 
M331.862000,1095.589233 
	C331.017059,1092.534058 330.172089,1089.478882 329.327148,1086.423828 
	C302.529846,1147.185913 299.512787,1207.592163 329.714905,1268.437500 
	C331.235504,1264.157837 332.572205,1260.428101 333.885315,1256.690186 
	C335.014679,1253.475342 337.019440,1250.345215 340.532593,1251.226929 
	C343.119934,1251.876221 345.744781,1254.408691 347.270447,1256.794312 
	C349.753967,1260.677856 351.050446,1265.303711 353.384247,1269.303345 
	C359.495026,1279.775879 367.901459,1287.573120 380.625488,1291.192139 
	C379.862518,1286.873169 379.502472,1283.066406 378.488220,1279.442993 
	C375.983948,1270.495972 373.001038,1261.681274 370.567963,1252.716431 
	C369.263733,1247.910889 373.037537,1244.718506 377.786835,1245.747070 
	C384.893036,1247.286133 392.054718,1248.604248 399.237122,1249.734863 
	C401.390198,1250.073730 403.691132,1249.473267 406.244934,1249.278931 
	C405.890137,1247.770874 405.752045,1246.978149 405.517059,1246.215332 
	C399.963013,1228.184692 390.066345,1212.364746 379.658478,1196.938965 
	C358.653229,1165.806641 342.692169,1132.371460 331.862000,1095.589233 
z"/>
<path fill="#270842" opacity="1.000000" stroke="none" 
	d="
M1157.932373,777.023315 
	C1158.731445,802.535339 1159.194702,827.663025 1152.743774,852.025146 
	C1141.768311,893.474548 1127.771118,933.747070 1102.308838,969.059326 
	C1091.301147,984.325500 1077.835327,997.212097 1063.880737,1009.580505 
	C1057.257812,1015.450623 1048.512817,1017.266846 1039.801025,1017.828247 
	C1021.547058,1019.004761 1003.281250,1020.040710 985.008240,1020.868347 
	C961.051941,1021.953491 937.090149,1023.289490 913.119324,1023.581787 
	C887.772583,1023.890747 862.212708,1023.739624 840.621521,1007.191040 
	C806.857300,981.312500 782.410278,949.004517 772.185913,907.007080 
	C767.848511,889.190735 764.453308,871.216614 764.053894,852.833252 
	C763.520813,828.299744 769.410645,805.045959 778.659729,782.510193 
	C783.407776,770.941345 788.372314,759.504883 796.905273,750.070984 
	C811.222046,734.242310 829.940857,727.277954 850.219055,723.040527 
	C868.270874,719.268433 886.194946,718.872314 904.213318,722.853455 
	C907.902710,723.668640 911.970825,723.564758 915.285400,725.119141 
	C922.700623,728.596436 925.595032,735.575256 925.753235,743.190552 
	C926.053467,757.644775 925.763550,772.117249 925.454346,786.576538 
	C925.076965,804.227234 923.797485,821.883179 924.104370,839.515991 
	C924.331299,852.554138 927.370728,865.268982 935.770325,875.967041 
	C936.796875,877.274475 937.858032,878.570435 939.029663,879.745605 
	C950.355408,891.105286 963.751465,890.052063 971.912476,876.219604 
	C981.529541,859.919312 987.184998,842.105042 990.181091,823.307129 
	C994.915771,793.600342 983.130127,768.814575 967.489075,745.332886 
	C961.927917,736.984009 954.439636,729.866150 947.465271,722.534302 
	C944.127625,719.025574 941.954041,715.469421 942.691589,710.582764 
	C946.242676,687.054138 949.978577,663.520447 959.161377,641.383728 
	C967.660828,620.894653 977.703857,601.117737 992.185364,584.121338 
	C997.968201,577.334229 1004.968872,571.495850 1011.874573,565.780701 
	C1018.033875,560.683228 1029.108276,560.491699 1036.170532,566.432373 
	C1046.055176,574.747253 1055.853394,583.538208 1063.939331,593.539734 
	C1080.362305,613.853394 1096.065796,634.792053 1111.232544,656.067200 
	C1130.555542,683.172546 1146.117676,712.373779 1154.188965,744.902344 
	C1156.725220,755.123901 1156.751709,765.968140 1157.932373,777.023315 
z"/>
<path fill="#270843" opacity="1.000000" stroke="none" 
	d="
M1106.012695,1306.011230 
	C1081.862061,1331.094727 1051.533325,1343.246460 1018.769348,1351.002319 
	C993.723999,1356.930908 969.848022,1352.240356 946.212708,1344.451416 
	C894.402161,1327.377319 860.181519,1292.284058 842.207947,1241.237793 
	C832.318176,1213.150024 829.386108,1183.983643 838.330505,1155.395874 
	C849.355713,1120.157593 867.582031,1088.892456 899.178162,1067.675049 
	C917.563110,1055.329224 936.782166,1044.241211 959.176453,1040.637451 
	C979.839172,1037.312378 1000.632751,1036.724854 1021.375854,1039.586182 
	C1060.054688,1044.921753 1091.355835,1064.202759 1117.041992,1092.678833 
	C1129.456055,1106.441162 1137.272339,1123.386230 1144.916016,1140.275391 
	C1155.469849,1163.594238 1156.595703,1187.707031 1153.147217,1212.594238 
	C1149.096680,1241.826538 1137.481812,1267.721436 1119.716675,1290.989258 
	C1115.690430,1296.262573 1110.771973,1300.854492 1106.012695,1306.011230 
M960.718628,1210.777344 
	C975.021240,1223.473877 986.091980,1238.610474 994.311218,1256.182861 
	C1004.928101,1233.560425 1019.924927,1215.360718 1039.714355,1201.380615 
	C1031.012085,1192.942993 1021.368408,1185.061035 1013.591919,1175.637939 
	C1005.866699,1166.277100 1000.019531,1155.366333 993.504089,1145.373535 
	C985.386047,1168.394043 967.235413,1185.176392 948.584351,1200.939819 
	C952.738770,1204.270874 956.480713,1207.271118 960.718628,1210.777344 
z"/>
<path fill="#270843" opacity="1.000000" stroke="none" 
	d="
M843.898560,1374.197266 
	C844.154297,1376.794312 844.678650,1378.962891 844.566284,1381.098022 
	C844.141602,1389.165894 844.464233,1396.495239 838.086670,1404.011475 
	C827.339905,1416.677246 814.332825,1425.663330 800.748840,1434.396729 
	C777.615845,1449.269531 753.987488,1463.162720 727.541077,1471.434204 
	C719.146667,1474.059692 710.697449,1476.926025 702.055359,1478.177246 
	C697.365784,1478.856079 691.644897,1477.428589 687.379089,1475.121216 
	C671.590820,1466.581421 658.765198,1454.672852 649.517517,1439.061646 
	C636.192200,1416.566406 622.915894,1393.933838 616.700989,1368.307983 
	C612.202759,1349.760986 610.008362,1330.666992 605.984436,1311.989746 
	C602.090881,1293.917603 603.301697,1275.835083 604.897217,1257.823730 
	C606.227051,1242.812256 608.329285,1227.727661 611.849121,1213.098633 
	C614.455078,1202.268311 618.814392,1191.514404 624.285095,1181.791260 
	C635.496033,1161.865967 651.546631,1145.722412 668.536804,1130.641235 
	C673.352844,1126.366211 678.931641,1122.827759 684.520264,1119.568237 
	C703.511902,1108.491455 722.903809,1098.092407 744.987854,1094.715820 
	C753.781006,1093.371460 762.838440,1092.940186 771.732849,1093.264526 
	C785.063293,1093.750732 792.099792,1102.689087 795.453674,1114.179321 
	C797.789734,1122.182373 798.807556,1130.875000 798.677246,1139.232544 
	C798.360718,1159.538330 797.099792,1179.831909 796.053040,1200.121826 
	C795.840576,1204.239990 795.449890,1208.501099 794.182800,1212.383423 
	C790.861206,1222.560913 783.497070,1228.412109 773.132385,1230.944336 
	C761.689514,1233.740112 749.625854,1235.363403 739.088135,1240.221069 
	C714.271851,1251.660767 694.259277,1268.483887 690.570068,1297.769409 
	C687.885254,1319.081543 688.546204,1340.389648 698.810303,1360.122925 
	C700.772278,1363.895020 703.687805,1367.264038 706.592285,1370.424927 
	C709.129761,1373.186401 712.084412,1376.462646 716.435242,1374.658447 
	C721.153015,1372.701782 724.292847,1368.806763 724.927124,1363.734619 
	C725.326416,1360.541504 724.741150,1357.102051 723.989014,1353.916870 
	C722.846375,1349.078125 720.240845,1346.008789 714.419189,1346.999756 
	C709.973022,1347.756592 706.536072,1345.324585 704.606384,1341.506714 
	C701.391418,1335.145752 697.683411,1328.812012 695.882019,1322.016479 
	C693.779602,1314.085938 695.925537,1305.947998 700.493164,1299.187378 
	C703.980957,1294.024902 708.301514,1289.102905 713.186523,1285.263550 
	C732.438110,1270.132568 754.151001,1259.306885 776.992615,1250.763550 
	C793.360962,1244.641357 799.248718,1247.167358 807.557983,1262.670044 
	C815.274536,1277.067017 817.424194,1292.325684 813.797729,1308.118164 
	C812.497986,1313.778198 809.238953,1318.988403 806.636658,1324.947632 
	C826.864197,1334.377441 840.103210,1350.462158 843.898560,1374.197266 
z"/>
<path fill="#270843" opacity="1.000000" stroke="none" 
	d="
M1324.966797,1461.960938 
	C1320.157715,1467.945190 1315.446899,1473.555054 1310.921021,1479.310425 
	C1304.938477,1486.918213 1297.299561,1487.239136 1288.914673,1484.617310 
	C1287.809082,1484.271484 1286.662598,1483.904541 1285.694214,1483.294434 
	C1270.087646,1473.461060 1254.452759,1463.670654 1238.959595,1453.661011 
	C1235.254883,1451.267700 1234.767212,1447.343872 1236.378418,1443.395020 
	C1245.526123,1420.975098 1247.801758,1397.644653 1244.948486,1373.834351 
	C1244.059326,1366.413452 1241.269775,1359.220215 1239.350220,1351.922852 
	C1238.897827,1351.895630 1238.445435,1351.868408 1237.992920,1351.841187 
	C1233.944336,1358.473389 1229.726685,1365.009277 1225.883667,1371.758789 
	C1218.647217,1384.468018 1211.685181,1397.333374 1204.480225,1410.061035 
	C1202.356567,1413.812500 1199.976196,1417.449829 1197.403320,1420.908813 
	C1193.100586,1426.693237 1189.571899,1427.886841 1182.703857,1425.180664 
	C1176.240356,1422.633911 1169.637085,1420.013550 1163.856812,1416.254761 
	C1153.290161,1409.383789 1142.909302,1402.107666 1133.166382,1394.127197 
	C1125.518799,1387.862915 1125.136108,1383.270630 1129.530273,1374.268921 
	C1131.930054,1369.352783 1134.593262,1364.473999 1137.798096,1360.057617 
	C1154.118896,1337.566895 1164.270020,1312.218994 1173.060425,1286.128540 
	C1180.232788,1264.840576 1182.884033,1242.714722 1185.951050,1220.681885 
	C1187.991821,1206.022461 1189.224365,1191.225708 1190.178589,1176.449219 
	C1190.712769,1168.177490 1190.251221,1159.800293 1189.686035,1151.508423 
	C1188.853149,1139.291138 1189.208496,1127.343506 1193.123169,1115.534058 
	C1198.995239,1097.820068 1212.495972,1089.639771 1231.123047,1091.197021 
	C1271.540161,1094.575806 1303.236694,1115.634766 1332.820679,1140.674438 
	C1354.891968,1159.355469 1370.397949,1182.928711 1378.187866,1210.912842 
	C1380.879639,1220.582031 1381.925415,1230.882324 1382.379150,1240.954956 
	C1382.875366,1251.971436 1376.487793,1260.779175 1370.434326,1269.421509 
	C1361.343140,1282.400635 1349.602539,1292.170654 1335.204102,1298.794067 
	C1332.071899,1300.234863 1329.079224,1301.978516 1326.810181,1303.169189 
	C1355.366577,1356.714844 1360.162720,1409.318359 1324.966797,1461.960938 
M1258.912964,1191.529297 
	C1258.912964,1203.974243 1258.912964,1216.419312 1258.912964,1229.470459 
	C1262.520142,1229.255005 1264.884033,1229.466431 1267.057129,1228.919434 
	C1274.288940,1227.099121 1281.492554,1225.138794 1288.629761,1222.977661 
	C1294.769287,1221.118530 1295.358521,1219.922119 1293.531616,1213.545654 
	C1290.138794,1201.702515 1283.240967,1191.986328 1274.165405,1183.947998 
	C1270.219116,1180.453003 1265.239990,1178.124023 1259.934814,1174.761597 
	C1259.539551,1180.952515 1259.233398,1185.747681 1258.912964,1191.529297 
z"/>
<path fill="#270843" opacity="1.000000" stroke="none" 
	d="
M1596.933716,842.977539 
	C1592.902466,844.175415 1589.303711,845.544739 1585.580933,846.315369 
	C1574.151611,848.681458 1563.661011,846.127014 1556.478882,836.918518 
	C1550.214111,828.886230 1544.607178,819.952820 1540.704712,810.586243 
	C1537.453613,802.782654 1537.963013,794.479004 1542.764771,785.964844 
	C1554.587646,765.001770 1565.117920,743.306152 1576.040405,721.840088 
	C1582.279907,709.577515 1587.836670,696.946533 1594.529053,684.943176 
	C1598.751953,677.368835 1603.992798,675.578247 1611.891968,679.170044 
	C1618.865479,682.340881 1625.189941,687.144714 1631.385864,691.782227 
	C1652.456177,707.552979 1667.098389,727.957886 1676.431519,752.679810 
	C1682.829590,769.627014 1677.275635,782.921326 1666.513062,795.163635 
	C1647.473511,816.821289 1623.713867,831.809082 1596.933716,842.977539 
z"/>
<path fill="#270943" opacity="1.000000" stroke="none" 
	d="
M1628.979736,917.004517 
	C1643.755493,890.607300 1662.140503,867.471313 1684.370483,847.578552 
	C1692.871216,839.971436 1702.188354,833.010437 1711.981689,827.179382 
	C1725.068359,819.387390 1735.922485,822.872070 1743.346558,836.263000 
	C1750.893799,849.876099 1755.255371,864.739258 1754.499390,880.217163 
	C1753.747925,895.603455 1744.245728,906.529419 1731.744385,914.729309 
	C1707.959106,930.330566 1682.422241,942.157776 1654.985840,949.814392 
	C1647.789307,951.822632 1640.690796,954.205444 1633.444092,955.998962 
	C1630.125122,956.820374 1626.502563,957.143433 1623.112427,956.788269 
	C1617.061890,956.154358 1614.095947,951.100769 1616.417603,945.560547 
	C1620.388184,936.084961 1624.675171,926.742004 1628.979736,917.004517 
z"/>
<path fill="#270943" opacity="1.000000" stroke="none" 
	d="
M240.838623,899.103271 
	C233.697357,889.055298 232.236511,878.142517 235.086227,866.900330 
	C237.602066,856.975220 240.245468,846.858521 244.622086,837.679626 
	C251.888153,822.440918 263.539093,819.053284 277.857300,827.862854 
	C287.572021,833.839905 296.847473,840.853333 305.265961,848.554749 
	C331.177673,872.259399 352.230865,899.750000 366.980896,931.794250 
	C369.261688,936.749268 371.134491,941.928528 372.750946,947.142029 
	C374.137787,951.614807 370.886047,956.077759 365.780792,956.776306 
	C362.858795,957.176147 359.641602,957.350891 356.862091,956.558167 
	C331.464386,949.314819 305.920441,942.371216 282.485382,929.741516 
	C273.417938,924.854919 264.337067,919.834839 255.945480,913.908203 
	C250.352585,909.958130 245.967499,904.297791 240.838623,899.103271 
z"/>
<path fill="#270942" opacity="1.000000" stroke="none" 
	d="
M223.979691,923.090515 
	C245.415100,925.319031 264.357422,932.822632 281.404633,945.202026 
	C286.655945,949.015442 292.040985,952.666809 297.080994,956.743225 
	C303.035858,961.559509 302.080750,966.825806 295.126709,970.067017 
	C274.220398,979.811218 253.524902,990.034485 232.381744,999.230713 
	C223.811584,1002.958130 214.425949,1005.285950 205.174377,1006.834717 
	C196.355270,1008.311035 188.933807,1002.325806 189.039246,993.335327 
	C189.172607,981.964294 190.748886,970.511719 192.808167,959.297363 
	C194.110855,952.203308 197.424652,945.477600 199.846878,938.590393 
	C203.787811,927.385010 211.227463,921.513855 223.979691,923.090515 
z"/>
<path fill="#270943" opacity="1.000000" stroke="none" 
	d="
M1722.657471,935.625732 
	C1734.860596,928.579956 1747.949707,924.551270 1761.322876,923.629883 
	C1777.368164,922.524475 1780.399658,920.755676 1788.368530,937.930603 
	C1795.790161,953.926392 1799.531738,970.860718 1800.124756,988.597046 
	C1800.526123,1000.605713 1792.101807,1010.890747 1777.751831,1006.256409 
	C1765.469849,1002.290039 1753.400391,997.520325 1741.562622,992.358582 
	C1725.276611,985.257263 1709.308594,977.428284 1693.181641,969.959656 
	C1686.612915,966.917603 1685.502808,961.166992 1691.413452,956.851807 
	C1701.476929,949.504700 1712.007080,942.796814 1722.657471,935.625732 
z"/>
<path fill="#020202" opacity="1.000000" stroke="none" 
	d="
M988.446655,538.247559 
	C988.539978,538.151794 988.583435,538.477295 988.583435,538.477295 
	C988.583435,538.477295 988.353333,538.343384 988.446655,538.247559 
z"/>
<path fill="#FEFEFE" opacity="1.000000" stroke="none" 
	d="
M1388.343750,643.856995 
	C1395.503540,660.373840 1391.511963,671.692871 1376.416748,680.834290 
	C1356.831177,692.694824 1335.760742,697.559875 1312.407715,695.700745 
	C1312.407715,666.266602 1312.407715,636.840759 1312.407715,606.076843 
	C1317.972900,607.383789 1323.726929,608.022705 1328.912354,610.088684 
	C1343.535400,615.914673 1358.271484,621.650818 1372.247559,628.817871 
	C1378.435669,631.991211 1382.898682,638.528320 1388.343750,643.856995 
z"/>
<path fill="#FDFDFE" opacity="1.000000" stroke="none" 
	d="
M1637.624390,1146.615967 
	C1645.395386,1126.474976 1652.991455,1106.668091 1660.289917,1087.636963 
	C1673.723022,1114.913208 1679.869751,1145.476685 1680.405640,1177.260498 
	C1680.943848,1209.174805 1673.957031,1239.381348 1658.647339,1268.093262 
	C1657.286377,1264.066162 1656.565918,1260.239990 1654.731689,1257.055420 
	C1653.324829,1254.613037 1650.795898,1251.912354 1648.258667,1251.239258 
	C1644.514893,1250.245850 1642.735596,1253.742310 1641.049316,1256.809814 
	C1637.071899,1264.045776 1633.183350,1271.380249 1628.548340,1278.191284 
	C1623.791382,1285.181152 1616.075073,1288.216553 1608.638184,1291.359619 
	C1608.152100,1291.108154 1607.666016,1290.856689 1607.180054,1290.605225 
	C1609.904785,1281.285156 1612.643433,1271.969238 1615.346924,1262.643066 
	C1616.270142,1259.458008 1617.501465,1256.287964 1617.835449,1253.033325 
	C1618.044189,1251.000000 1617.469971,1248.050049 1616.092285,1246.923950 
	C1614.694458,1245.781250 1611.823853,1245.985596 1609.691040,1246.278076 
	C1601.997559,1247.333130 1594.352051,1248.735352 1586.664917,1249.843262 
	C1585.462646,1250.016724 1584.138550,1249.344604 1581.734131,1248.811523 
	C1584.698608,1241.706177 1586.805908,1234.680420 1590.370972,1228.494873 
	C1599.659302,1212.379272 1609.800659,1196.756714 1619.185303,1180.694214 
	C1625.634033,1169.656860 1631.386108,1158.212524 1637.624390,1146.615967 
z"/>
<path fill="#FEFDFE" opacity="1.000000" stroke="none" 
	d="
M331.955048,1095.982666 
	C342.692169,1132.371460 358.653229,1165.806641 379.658478,1196.938965 
	C390.066345,1212.364746 399.963013,1228.184692 405.517059,1246.215332 
	C405.752045,1246.978149 405.890137,1247.770874 406.244934,1249.278931 
	C403.691132,1249.473267 401.390198,1250.073730 399.237122,1249.734863 
	C392.054718,1248.604248 384.893036,1247.286133 377.786835,1245.747070 
	C373.037537,1244.718506 369.263733,1247.910889 370.567963,1252.716431 
	C373.001038,1261.681274 375.983948,1270.495972 378.488220,1279.442993 
	C379.502472,1283.066406 379.862518,1286.873169 380.625488,1291.192139 
	C367.901459,1287.573120 359.495026,1279.775879 353.384247,1269.303345 
	C351.050446,1265.303711 349.753967,1260.677856 347.270447,1256.794312 
	C345.744781,1254.408691 343.119934,1251.876221 340.532593,1251.226929 
	C337.019440,1250.345215 335.014679,1253.475342 333.885315,1256.690186 
	C332.572205,1260.428101 331.235504,1264.157837 329.714905,1268.437500 
	C299.512787,1207.592163 302.529846,1147.185913 329.327148,1086.423828 
	C330.172089,1089.478882 331.017059,1092.534058 331.955048,1095.982666 
z"/>
<path fill="#FDFDFD" opacity="1.000000" stroke="none" 
	d="
M960.470642,1210.524414 
	C956.480713,1207.271118 952.738770,1204.270874 948.584351,1200.939819 
	C967.235413,1185.176392 985.386047,1168.394043 993.504089,1145.373535 
	C1000.019531,1155.366333 1005.866699,1166.277100 1013.591919,1175.637939 
	C1021.368408,1185.061035 1031.012085,1192.942993 1039.714355,1201.380615 
	C1019.924927,1215.360718 1004.928101,1233.560425 994.311218,1256.182861 
	C986.091980,1238.610474 975.021240,1223.473877 960.470642,1210.524414 
z"/>
<path fill="#FDFCFD" opacity="1.000000" stroke="none" 
	d="
M1258.920044,1191.036011 
	C1259.233398,1185.747681 1259.539551,1180.952515 1259.934814,1174.761597 
	C1265.239990,1178.124023 1270.219116,1180.453003 1274.165405,1183.947998 
	C1283.240967,1191.986328 1290.138794,1201.702515 1293.531616,1213.545654 
	C1295.358521,1219.922119 1294.769287,1221.118530 1288.629761,1222.977661 
	C1281.492554,1225.138794 1274.288940,1227.099121 1267.057129,1228.919434 
	C1264.884033,1229.466431 1262.520142,1229.255005 1258.912964,1229.470459 
	C1258.912964,1216.419312 1258.912964,1203.974243 1258.920044,1191.036011 
z"/>
</svg>